<?xml version="1.0" encoding="UTF-8" standalone="no"?>
<!-- Created with Inkscape (http://www.inkscape.org/) -->

<svg
   xmlns:dc="http://purl.org/dc/elements/1.1/"
   xmlns:cc="http://creativecommons.org/ns#"
   xmlns:rdf="http://www.w3.org/1999/02/22-rdf-syntax-ns#"
   xmlns:svg="http://www.w3.org/2000/svg"
   xmlns="http://www.w3.org/2000/svg"
   xmlns:xlink="http://www.w3.org/1999/xlink"
   xmlns:sodipodi="http://sodipodi.sourceforge.net/DTD/sodipodi-0.dtd"
   xmlns:inkscape="http://www.inkscape.org/namespaces/inkscape"
   width="590.74469"
   height="423.85474"
   id="svg2"
   version="1.1"
   inkscape:version="0.48.3.1 r9886"
   sodipodi:docname="TV_NotchDataConfig2.svg"
   inkscape:export-filename="~/Work/thesis/SimpleResponsesChapter/gfx/TV_Notch/TV_NotchDataConfig2.pdf.png"
   inkscape:export-xdpi="300"
   inkscape:export-ydpi="300">
  <defs
     id="defs4">
    <marker
       inkscape:stockid="Arrow1Mend"
       orient="auto"
       refY="0"
       refX="0"
       id="Arrow1Mend"
       style="overflow:visible">
      <path
         id="path3805"
         d="M 0,0 5,-5 -12.5,0 5,5 0,0 z"
         style="fill-rule:evenodd;stroke:#000000;stroke-width:1pt"
         transform="matrix(-0.4,0,0,-0.4,-4,0)"
         inkscape:connector-curvature="0" />
    </marker>
    <marker
       inkscape:stockid="Arrow2Lend"
       orient="auto"
       refY="0"
       refX="0"
       id="Arrow2Lend"
       style="overflow:visible">
      <path
         id="path5406"
         style="font-size:12px;fill-rule:evenodd;stroke-width:0.625;stroke-linejoin:round"
         d="M 8.7185878,4.0337352 -2.2072895,0.01601326 8.7185884,-4.0017078 c -1.7454984,2.3720609 -1.7354408,5.6174519 -6e-7,8.035443 z"
         transform="matrix(-1.1,0,0,-1.1,-1.1,0)"
         inkscape:connector-curvature="0" />
    </marker>
    <inkscape:perspective
       sodipodi:type="inkscape:persp3d"
       inkscape:vp_x="0 : 526.18109 : 1"
       inkscape:vp_y="0 : 1000 : 0"
       inkscape:vp_z="744.09448 : 526.18109 : 1"
       inkscape:persp3d-origin="372.04724 : 350.78739 : 1"
       id="perspective10" />
    <inkscape:perspective
       id="perspective2824"
       inkscape:persp3d-origin="0.5 : 0.33333333 : 1"
       inkscape:vp_z="1 : 0.5 : 1"
       inkscape:vp_y="0 : 1000 : 0"
       inkscape:vp_x="0 : 0.5 : 1"
       sodipodi:type="inkscape:persp3d" />
    <inkscape:perspective
       id="perspective2838"
       inkscape:persp3d-origin="0.5 : 0.33333333 : 1"
       inkscape:vp_z="1 : 0.5 : 1"
       inkscape:vp_y="0 : 1000 : 0"
       inkscape:vp_x="0 : 0.5 : 1"
       sodipodi:type="inkscape:persp3d" />
    <inkscape:perspective
       id="perspective2852"
       inkscape:persp3d-origin="0.5 : 0.33333333 : 1"
       inkscape:vp_z="1 : 0.5 : 1"
       inkscape:vp_y="0 : 1000 : 0"
       inkscape:vp_x="0 : 0.5 : 1"
       sodipodi:type="inkscape:persp3d" />
    <inkscape:perspective
       id="perspective2866"
       inkscape:persp3d-origin="0.5 : 0.33333333 : 1"
       inkscape:vp_z="1 : 0.5 : 1"
       inkscape:vp_y="0 : 1000 : 0"
       inkscape:vp_x="0 : 0.5 : 1"
       sodipodi:type="inkscape:persp3d" />
    <inkscape:perspective
       id="perspective2880"
       inkscape:persp3d-origin="0.5 : 0.33333333 : 1"
       inkscape:vp_z="1 : 0.5 : 1"
       inkscape:vp_y="0 : 1000 : 0"
       inkscape:vp_x="0 : 0.5 : 1"
       sodipodi:type="inkscape:persp3d" />
    <inkscape:perspective
       id="perspective2894"
       inkscape:persp3d-origin="0.5 : 0.33333333 : 1"
       inkscape:vp_z="1 : 0.5 : 1"
       inkscape:vp_y="0 : 1000 : 0"
       inkscape:vp_x="0 : 0.5 : 1"
       sodipodi:type="inkscape:persp3d" />
    <inkscape:perspective
       id="perspective3684"
       inkscape:persp3d-origin="0.5 : 0.33333333 : 1"
       inkscape:vp_z="1 : 0.5 : 1"
       inkscape:vp_y="0 : 1000 : 0"
       inkscape:vp_x="0 : 0.5 : 1"
       sodipodi:type="inkscape:persp3d" />
    <inkscape:perspective
       id="perspective6056"
       inkscape:persp3d-origin="0.5 : 0.33333333 : 1"
       inkscape:vp_z="1 : 0.5 : 1"
       inkscape:vp_y="0 : 1000 : 0"
       inkscape:vp_x="0 : 0.5 : 1"
       sodipodi:type="inkscape:persp3d" />
    <inkscape:perspective
       id="perspective6078"
       inkscape:persp3d-origin="0.5 : 0.33333333 : 1"
       inkscape:vp_z="1 : 0.5 : 1"
       inkscape:vp_y="0 : 1000 : 0"
       inkscape:vp_x="0 : 0.5 : 1"
       sodipodi:type="inkscape:persp3d" />
    <inkscape:perspective
       id="perspective6078-5"
       inkscape:persp3d-origin="0.5 : 0.33333333 : 1"
       inkscape:vp_z="1 : 0.5 : 1"
       inkscape:vp_y="0 : 1000 : 0"
       inkscape:vp_x="0 : 0.5 : 1"
       sodipodi:type="inkscape:persp3d" />
    <inkscape:perspective
       id="perspective6109"
       inkscape:persp3d-origin="0.5 : 0.33333333 : 1"
       inkscape:vp_z="1 : 0.5 : 1"
       inkscape:vp_y="0 : 1000 : 0"
       inkscape:vp_x="0 : 0.5 : 1"
       sodipodi:type="inkscape:persp3d" />
    <filter
       color-interpolation-filters="sRGB"
       inkscape:collect="always"
       id="filter6042-9">
      <feGaussianBlur
         inkscape:collect="always"
         stdDeviation="0.44700048"
         id="feGaussianBlur6044-3" />
    </filter>
    <inkscape:perspective
       id="perspective6137"
       inkscape:persp3d-origin="0.5 : 0.33333333 : 1"
       inkscape:vp_z="1 : 0.5 : 1"
       inkscape:vp_y="0 : 1000 : 0"
       inkscape:vp_x="0 : 0.5 : 1"
       sodipodi:type="inkscape:persp3d" />
    <filter
       color-interpolation-filters="sRGB"
       inkscape:collect="always"
       id="filter6038-5">
      <feGaussianBlur
         inkscape:collect="always"
         stdDeviation="0.53583986"
         id="feGaussianBlur6040-3" />
    </filter>
    <inkscape:perspective
       id="perspective2871"
       inkscape:persp3d-origin="0.5 : 0.33333333 : 1"
       inkscape:vp_z="1 : 0.5 : 1"
       inkscape:vp_y="0 : 1000 : 0"
       inkscape:vp_x="0 : 0.5 : 1"
       sodipodi:type="inkscape:persp3d" />
    <inkscape:perspective
       id="perspective2885"
       inkscape:persp3d-origin="0.5 : 0.33333333 : 1"
       inkscape:vp_z="1 : 0.5 : 1"
       inkscape:vp_y="0 : 1000 : 0"
       inkscape:vp_x="0 : 0.5 : 1"
       sodipodi:type="inkscape:persp3d" />
    <inkscape:perspective
       id="perspective2899"
       inkscape:persp3d-origin="0.5 : 0.33333333 : 1"
       inkscape:vp_z="1 : 0.5 : 1"
       inkscape:vp_y="0 : 1000 : 0"
       inkscape:vp_x="0 : 0.5 : 1"
       sodipodi:type="inkscape:persp3d" />
    <inkscape:perspective
       id="perspective2913"
       inkscape:persp3d-origin="0.5 : 0.33333333 : 1"
       inkscape:vp_z="1 : 0.5 : 1"
       inkscape:vp_y="0 : 1000 : 0"
       inkscape:vp_x="0 : 0.5 : 1"
       sodipodi:type="inkscape:persp3d" />
  </defs>
  <sodipodi:namedview
     id="base"
     pagecolor="#ffffff"
     bordercolor="#666666"
     borderopacity="1.0"
     inkscape:pageopacity="0.0"
     inkscape:pageshadow="2"
     inkscape:zoom="1.2433446"
     inkscape:cx="159.14588"
     inkscape:cy="165.80326"
     inkscape:document-units="px"
     inkscape:current-layer="layer1"
     showgrid="false"
     inkscape:snap-to-guides="false"
     showguides="false"
     inkscape:window-width="1440"
     inkscape:window-height="850"
     inkscape:window-x="0"
     inkscape:window-y="25"
     inkscape:window-maximized="1"
     fit-margin-top="0"
     fit-margin-left="0"
     fit-margin-right="0"
     fit-margin-bottom="0" />
  <metadata
     id="metadata7">
    <rdf:RDF>
      <cc:Work
         rdf:about="">
        <dc:format>image/svg+xml</dc:format>
        <dc:type
           rdf:resource="http://purl.org/dc/dcmitype/StillImage" />
        <dc:title></dc:title>
      </cc:Work>
    </rdf:RDF>
  </metadata>
  <g
     inkscape:label="Layer 1"
     inkscape:groupmode="layer"
     id="layer1"
     transform="translate(-49.940552,-218.88881)">
    <image
       y="520.48895"
       x="232.68361"
       id="image2915"
       height="122.25459"
       width="405.49432"
       xlink:href="file:///home/eagerm/Work/thesis/SimpleResponsesChapter/gfx/TV_Notch/inkscape_pasted_image_20101004_155727.png" />
    <image
       y="218.88881"
       x="56.402874"
       id="image2901"
       height="110.34671"
       width="388.09042"
       xlink:href="file:///home/eagerm/Work/thesis/SimpleResponsesChapter/gfx/TV_Notch/inkscape_pasted_image_20101004_155000.png" />
    <path
       style="fill:none;stroke:#000000;stroke-width:2.75900006;stroke-linecap:butt;stroke-linejoin:miter;stroke-miterlimit:4;stroke-opacity:1;stroke-dasharray:none"
       d="m 136.2669,412.55867 180.88622,0.24888 0,50.87036 138.28991,-1.15615 -1.57146,-49.71421 183.86271,-1.15615 1.57149,2.31229"
       id="path2900"
       sodipodi:nodetypes="ccccccc"
       inkscape:connector-curvature="0" />
    <path
       style="fill:none;stroke:#00ff00;stroke-width:3.46347499;stroke-linecap:butt;stroke-linejoin:miter;stroke-miterlimit:4;stroke-opacity:1;stroke-dasharray:none"
       d="m 432.19566,269.8333 c -1.66452,-0.22609 -5.27231,1.39873 -5.07485,-0.59731 -0.53459,-0.44297 -2.67292,0.44297 -3.2075,0 -0.25201,-0.20882 0.252,-0.67712 0,-0.88594 -0.35497,-0.29413 -1.78339,0.29413 -2.13835,0 -0.252,-0.20882 0.25201,-0.67712 0,-0.88594 -0.504,-0.41764 -1.63432,0.41763 -2.13834,0 -0.252,-0.20882 0.25201,-0.67713 0,-0.88594 -0.25727,-0.21319 -4.01939,0.21318 -4.27667,0 -2.21214,-1.83304 2.16134,1.37047 -2.28829,-0.47307 -1.39935,-1.24555 -2.98771,-0.15851 -2.3367,-1.6075 -0.50401,-0.41764 -1.12882,-0.79785 -1.79001,-0.57726 -1.10435,0.36844 -1.73065,0.0445 -2.48667,-0.16437 -2.40608,-0.52707 -1.24367,-1.62628 -3.92835,-1.6075 -2.36399,-0.97944 -0.33178,-0.54986 -1.06917,-1.77189 -2.22481,-3.68707 0.0738,0.9471 -2.13833,-0.88594 -0.25201,-0.20882 0.252,-0.67712 0,-0.88594 -0.25201,-0.20882 -0.75041,0.13207 -1.06917,0 -0.4508,-0.18677 -0.61837,-0.69917 -1.06917,-0.88594 -0.31876,-0.13207 -0.81716,0.20882 -1.06917,0 -0.25201,-0.20882 0.25201,-0.67713 0,-0.88594 -0.35705,-0.29586 -1.78129,0.29586 -2.13834,0 -0.252,-0.20882 0.25201,-0.67713 0,-0.88595 -0.53458,-0.44297 -2.67292,0.44298 -3.2075,0 -0.25201,-0.20881 0.252,-0.67711 0,-0.88594 -0.25201,-0.20882 -0.81717,0.20883 -1.06917,0 -0.35618,-0.29513 0.35617,-1.47674 0,-1.77187 -0.252,-0.20882 -0.81716,0.20881 -1.06917,0 -0.25201,-0.20882 0.25201,-0.67713 0,-0.88595 -0.25201,-0.20881 -0.81717,0.20882 -1.06917,0 -1.42556,-1.18125 1.78195,-0.88594 -1.06917,-0.88594 -2.85111,0 0.35639,0.29532 -1.06917,-0.88594 -0.53458,-0.44297 -2.67292,0.44297 -3.2075,0 -0.25201,-0.20882 0.25201,-0.67712 0,-0.88594 -0.25201,-0.20882 -0.81716,0.20882 -1.06917,0 -0.25201,-0.20882 0.25201,-0.67712 0,-0.88594 -0.25201,-0.20882 -0.81717,0.20882 -1.06917,0 -0.252,-0.20882 0,-0.59063 0,-0.88594 -0.35639,0 -0.7504,0.13207 -1.06917,0 -2.56022,-1.06073 0.67379,-1.77188 -2.13833,-1.77188 -0.25931,0 -3.17313,-0.0285 -3.20751,0 -0.25201,0.20882 0,0.59062 0,0.88594 0,0.29531 0,0.59063 0,0.88594 -0.14374,1.28309 0.80849,2.78535 -1.06916,2.65782 -0.35619,0.29514 0.35617,1.47674 0,1.77188 -0.25201,0.20882 -1.06918,0.29531 -1.06918,0 0,-0.29531 1.06918,-0.29531 1.06918,0 0,1.84354 -1.49938,0.35648 -2.13834,0.88595 0.12792,0.87454 -0.0269,0.96483 -1.06917,0.88594 -0.4508,0.18677 -0.61837,0.69917 -1.06918,0.88593 -2.01909,0.37668 -1.97857,1.15252 -2.13833,2.65783 -1.05542,-0.106 -1.16438,0.0223 -1.06917,0.88594 -1.76678,1.06122 -1.01208,2.81306 -1.06917,4.42971 -0.25201,0.20882 -0.81716,-0.20882 -1.06916,0 -0.29256,0.2424 0.29,3.06314 0,3.54376 -0.22541,0.37354 -0.84377,0.51239 -1.06917,0.88594 -0.31877,0.52827 0.50401,1.35424 0,1.77188 -2.21215,1.83304 0.0865,-2.80113 -2.13834,0.88594 -0.31877,0.52827 0.50401,1.35424 0,1.77188 -0.25201,0.20882 -0.81717,-0.20882 -1.06917,0 -0.3178,1.21032 -0.059,1.08163 -1.06917,2.65782 -2.0536,2.51044 -2.69714,6.33281 -5.27321,7.40011 -5.45796,8.83423 -32.43738,5.75685 -58.70274,6.65069"
       id="path3698"
       sodipodi:nodetypes="ccsssssssccsccssssssssssssssssssssssscssssccsssccccccsssssscccc"
       inkscape:connector-curvature="0" />
    <path
       style="fill:none;stroke:#fb1516;stroke-width:3.68405652;stroke-linecap:butt;stroke-linejoin:miter;stroke-miterlimit:4;stroke-opacity:1;stroke-dasharray:none"
       d="m 322.43361,586.6025 c 3.70194,0 7.40388,0 11.10582,0 0.50016,0 2.99376,0.14684 3.33175,0 0.46826,-0.20344 0.64232,-0.76156 1.11058,-0.965 0.29202,-0.12687 3.86159,0 4.44233,0 2.59136,0 5.18272,0 7.77408,0 0.50016,0 2.99376,0.14684 3.33174,0 0.46827,-0.20344 0.64233,-0.76157 1.11059,-0.96501 0.28714,-0.12475 5.87631,0 6.66349,0 0.3702,0 0.84882,0.22746 1.11059,0 0.26176,-0.22745 -0.26177,-0.73755 0,-0.965 0.52353,-0.45491 1.55894,0.28771 2.22116,0 0.46826,-0.20344 0.64232,-0.76156 1.11059,-0.965 0.3311,-0.14386 0.74038,0 1.11058,0 0.37019,0 0.74038,0 1.11058,0 1.85097,0 3.70194,0 5.55291,0 0.3702,0 0.84881,-0.22745 1.11058,0 0.26177,0.22745 -0.26177,0.73755 0,0.965 0.26177,0.22745 0.74039,0 1.11058,0 2.59136,0 5.18273,0 7.77408,0 0.37019,0 0.74039,0 1.11059,0 0.37019,0 0.84881,0.22745 1.11058,0 0.26177,-0.22745 -0.26177,-0.73755 0,-0.965 0.26724,-0.23221 4.17509,0.2322 4.44233,0 0.26177,-0.22745 -0.26177,-0.73755 0,-0.965 0.11105,-0.0965 3.22069,-0.0965 3.33175,0 2.29783,1.99662 -3.5114,-0.0781 1.11058,1.93 0.22781,0.099 3.17513,0.13609 3.33174,0 0.26177,-0.22745 -0.26177,-0.73755 0,-0.965 0.26177,-0.22745 0.74039,0 1.11058,0 0.37021,0 1.11059,-0.32167 1.11059,0 0,0.32166 -1.11059,-0.32167 -1.11059,0 0,2.00806 1.55746,0.38828 2.22117,0.965 0.26177,0.22745 -0.26177,0.73755 0,0.965 0.26177,0.22746 0.84882,-0.22745 1.11058,0 0.26177,0.22746 0.3702,0.96501 0,0.96501 -0.37019,0 -0.37019,-0.96501 0,-0.96501 0.52354,0 0.87645,0.55812 1.11059,0.96501 0.33111,0.57542 -0.52354,1.47509 0,1.93 0.26176,0.22745 0.84881,-0.22745 1.11058,0 0.26177,0.22745 -0.26177,0.73755 0,0.965 0.26177,0.22746 1.11058,-0.32166 1.11058,0 0,1.36709 -5.18271,-2.73417 1.11059,0 0.3311,0.14386 -0.26177,0.73756 0,0.96501 0.26176,0.22745 0.84881,-0.22745 1.11058,0 0.26177,0.22745 -0.26177,0.73755 0,0.965 0.55529,0.4825 2.77646,-0.4825 3.33175,0 0.26176,0.22745 -0.26177,0.73755 0,0.965 0.52353,0.45491 1.69763,-0.45491 2.22116,0 0.52354,0.45491 -0.52353,1.4751 0,1.93001 0.26177,0.22745 0.84882,-0.22745 1.11059,0 0.26176,0.22745 -0.26177,0.73755 0,0.965 0.26176,0.22746 1.11058,-0.32166 1.11058,0 0,0.32167 -1.48079,0 -1.11058,0 1.85096,0 4.57868,2.28546 6.42965,2.28546 1.83951,0.54593 1.89279,-0.63364 4.67617,-0.35546 0.26176,0.22746 -0.26177,0.73756 0,0.96501 0.0357,0.031 3.0624,0 3.33174,0 6.6635,0 13.32699,0 19.99049,0"
       id="path3700"
       sodipodi:nodetypes="csssssssssssssssssssssssssssssssssssssssssssssssssssssccssc"
       inkscape:connector-curvature="0" />
    <path
       style="fill:none;stroke:#000000;stroke-width:1.14134777;stroke-linecap:butt;stroke-linejoin:miter;stroke-miterlimit:4;stroke-opacity:1;stroke-dasharray:none;marker-end:url(#Arrow2Lend)"
       d="m 326.003,535.98894 c 6.63574,-22.69194 26.85898,-34.05044 50.35246,-36.24801 24.09164,-3.02736 66.09394,0.75101 79.51769,-5.33469 9.40226,-4.35157 11.91899,-9.02243 12.80243,-14.50641 0.46482,-2.88546 0.47748,-5.99603 0.803,-9.40364"
       id="path5830"
       sodipodi:nodetypes="cccsc"
       inkscape:connector-curvature="0" />
    <rect
       style="fill:#ffffff;fill-opacity:1;stroke:none"
       id="rect6046"
       width="293.64978"
       height="26.695436"
       x="49.940552"
       y="468.5195"
       rx="0.29936859"
       ry="0.24935445" />
    <rect
       style="fill:#ffffff;fill-opacity:1;stroke:none"
       id="rect6046-8"
       width="49.18174"
       height="16.832878"
       x="244.83835"
       y="271.32904"
       rx="0.05013955"
       ry="0.15723111" />
    <rect
       style="fill:#ffffff;fill-opacity:1;stroke:none"
       id="rect6046-8-3"
       width="74.841782"
       height="16.832878"
       x="258.1922"
       y="273.4761"
       rx="0.076299325"
       ry="0.15723111" />
    <rect
       style="fill:#ffffff;fill-opacity:1;stroke:none"
       id="rect6046-8-4"
       width="332.99042"
       height="35.125576"
       x="226.20871"
       y="354.76831"
       rx="0.33947539"
       ry="0.32809797" />
    <path
       style="fill:none;stroke:#04ff00;stroke-width:5;stroke-linecap:butt;stroke-linejoin:miter;stroke-miterlimit:4;stroke-opacity:1;stroke-dasharray:none;filter:url(#filter6042-9)"
       d="m 264.84682,435.48135 c 1.16913,-0.57198 4.73408,0.88601 5.62009,0 0.33117,-0.33117 -0.33116,-1.07386 0,-1.40502 0.33117,-0.33117 1.07386,0.33116 1.40503,0 0.33116,-0.33117 -0.33117,-1.07386 0,-1.40503 0.66233,-0.66233 1.97225,0.4189 2.81004,0 0.59241,-0.2962 0.93668,-1.87336 1.40503,-1.40502 0.46834,0.46834 -1.40503,2.06736 -1.40503,1.40502 0,-4.6707 2.76993,-1.32479 4.21507,-4.21506 0.20945,-0.4189 -0.33117,-1.07386 0,-1.40503 0.66234,-0.66233 2.14771,0.66234 2.81005,0 0.33116,-0.33116 -0.33117,-1.07385 0,-1.40502 0.33116,-0.33117 0.93668,0 1.40502,0 0.46834,0 1.40502,-0.46834 1.40502,0 0,0.46834 -1.40502,0.46834 -1.40502,0 0,-0.66233 0.81261,-1.10882 1.40502,-1.40502 0.8378,-0.4189 2.14771,0.66233 2.81005,0 0.33117,-0.33117 -0.33117,-1.07386 0,-1.40503 6.19495,-5.09898 1.72952,-0.40273 5.46111,-4.14915 3.55873,-3.12007 2.48413,-5.93292 9.93685,-10.21776 0.70251,-0.70251 2.16483,-1.79085 2.86734,-2.49336 0.33116,-0.33117 1.07385,0.33117 1.40502,0 0.33117,-0.33117 -0.33117,-1.07386 0,-1.40502 0.1405,-0.14051 4.07457,-0.14051 4.21507,0 0.33117,0.33116 -0.33117,1.07385 0,1.40502 2.90704,2.90704 -0.11364,-4.44235 2.81004,1.40502 0.28257,0.56514 1.10441,3.91445 1.40503,4.21507 0.33116,0.33117 1.07385,-0.33117 1.40502,0 1.39668,1.39668 -0.99676,2.83421 0.782,6.39174 0.29621,0.59241 0.32682,4.25603 0.62302,4.84844 0.20945,0.4189 -0.33116,1.07386 0,1.40503 0.33117,0.33116 1.07386,-0.33117 1.40503,0 0.66233,0.66233 -0.4189,1.97225 0,2.81004 0.2962,0.59241 1.10881,0.81262 1.40502,1.40503 0.4189,0.83779 -0.66233,2.14771 0,2.81004 0.33117,0.33117 1.07386,-0.33117 1.40502,0 0.33117,0.33117 -0.33116,1.07386 0,1.40502 0.33117,0.33117 0.55253,3.87747 0.8837,4.20863 1.19942,1.19943 -0.50346,3.57697 0.52133,5.62654 0.20944,0.41889 1.07385,-0.33117 1.40502,0 0.66233,0.66233 -0.66234,2.14771 0,2.81004 0.33117,0.33117 1.07385,-0.33117 1.40502,0 0.66234,0.66234 -0.66233,2.14771 0,2.81005 0.33117,0.33116 1.07386,-0.33117 1.40502,0 0.70252,0.70251 -0.70251,3.51255 0,4.21507 0.66234,0.66233 2.14772,-0.66234 2.81005,0 0.70251,0.70251 -0.70251,3.51255 0,4.21506 1.34858,1.34859 1.40502,-1.25501 1.40502,2.81005 0,0.93668 -0.66233,2.14771 0,2.81005 0.64949,0.64949 0.49942,2.44536 1.34773,2.86952 0.59241,0.2962 3.67995,0.72621 4.27236,1.02242 1.47738,0.73869 5.3375,0.5739 7.02512,0.5739 12.68629,-0.0172 27.00506,-0.20957 37.21091,-0.25077"
       id="path6018-3"
       transform="matrix(0.87683396,0,0,1.3428444,33.56928,-163.37859)"
       inkscape:connector-curvature="0"
       sodipodi:nodetypes="csscscssssscsssssccccsccsscssscsssscscsssscccsssscscc" />
    <path
       style="fill:none;stroke:#ff0000;stroke-width:5;stroke-linecap:butt;stroke-linejoin:miter;stroke-miterlimit:4;stroke-opacity:1;stroke-dasharray:none;filter:url(#filter6038-5)"
       d="m 380.05871,460.28793 c 4.00403,0 0.38065,0 5.62009,0 8.92027,0 23.67418,0 36.5306,0 0.8574,0 5.07264,0.54745 5.62009,0 0.33117,-0.33117 -0.33117,-1.07386 0,-1.40502 0.70251,-0.70252 3.51256,0.70251 4.21507,0 0.33117,-0.33117 -0.33117,-1.07386 0,-1.40503 0.33117,-0.33116 0.93668,0 1.40502,0 0.46834,0 1.40503,-0.46834 1.40503,0 0,0.46834 -1.40503,0.46834 -1.40503,0 0,-0.66233 0.81262,-1.10882 1.40503,-1.40502 0.41889,-0.20945 1.07385,0.33117 1.40502,0 0.66233,-0.66233 0,-1.87336 0,-2.81005 0,-3.74672 -0.46834,0.46834 1.40502,-1.40502 0.66234,-0.66233 -0.66233,-2.14771 0,-2.81005 0.46692,-0.46692 2.34313,0.46693 2.81005,0 1.87336,-1.87336 -2.34171,-1.40502 1.40502,-1.40502 2.91757,0 0.0537,-1.43188 2.81005,-2.81004 0.83779,-0.4189 2.14771,0.66233 2.81004,0 0.33117,-0.33117 -0.33117,-1.07386 0,-1.40503 0.66234,-0.66233 2.14771,0.66234 2.81005,0 0.33116,-0.33116 -0.33117,-1.07385 0,-1.40502 0.66233,-0.66233 3.74673,0 2.81004,0 -0.93668,0 -3.74672,0 -2.81004,0 0.68468,0 6.65016,0.37495 7.02511,0 0.33117,-0.33117 -0.33116,-1.07386 0,-1.40502 0.93804,-0.93804 11.86075,1.09474 14.05023,0 0.4189,-0.20945 -0.33117,-1.07386 0,-1.40503 0.66234,-0.66233 1.87337,0 2.81005,0 2.7211,0 8.85904,-1.19057 11.24018,0 0.59241,0.29621 0.81261,1.10882 1.40502,1.40503 1.16981,0.5849 4.72887,-0.89123 5.6201,0 0.33116,0.33116 -0.33117,1.07385 0,1.40502 1.47491,1.47491 8.29341,-2.87841 11.24018,-1.40502 0.59241,0.2962 0.81261,1.10881 1.40502,1.40502 2.072,1.036 8.26002,-1.57515 9.83516,0 0.33117,0.33117 -0.33116,1.07386 0,1.40502 1.12144,1.12144 5.55105,-0.73703 7.02512,0 0.59241,0.29621 0.81261,1.10882 1.40502,1.40503 1.87336,0.93668 5.15175,-0.93669 7.02512,0 0.5924,0.2962 0.81261,1.10881 1.40502,1.40502 2.1658,1.0829 5.61672,0 9.83516,0 1.10014,0 6.32404,-0.70107 7.02511,0 0.33117,0.33117 -0.33116,1.07385 0,1.40502 0.66234,0.66234 2.14772,-0.66233 2.81005,0 0.33117,0.33117 -0.33117,1.07386 0,1.40502 0.2238,0.22381 19.02314,0 21.07534,0"
       id="path6020-8"
       transform="matrix(0.84414965,0,0,1.9689094,81.754872,-443.96699)"
       inkscape:connector-curvature="0" />
    <path
       style="fill:none;stroke:#000000;stroke-width:2;stroke-linecap:butt;stroke-linejoin:miter;stroke-miterlimit:4;stroke-opacity:1;stroke-dasharray:none;marker-end:url(#Arrow1Mend)"
       d="m 447.56791,271.71106 c 46.93913,8.00524 60.01591,28.00677 39.97104,43.46675 -25.18211,18.80084 -53.72813,17.19259 -69.81848,18.21178 -22.61933,1.43275 -10.99521,1.33955 -40.57358,2.47625 -33.21917,8.75338 -38.11307,23.32431 -48.99203,46.54954"
       id="path5380"
       sodipodi:nodetypes="ccscc"
       inkscape:connector-curvature="0" />
  </g>
</svg>
