<?xml version="1.0" encoding="UTF-8" standalone="no"?>
<!-- Created with Inkscape (http://www.inkscape.org/) -->

<svg
   xmlns:dc="http://purl.org/dc/elements/1.1/"
   xmlns:cc="http://creativecommons.org/ns#"
   xmlns:rdf="http://www.w3.org/1999/02/22-rdf-syntax-ns#"
   xmlns:svg="http://www.w3.org/2000/svg"
   xmlns="http://www.w3.org/2000/svg"
   xmlns:xlink="http://www.w3.org/1999/xlink"
   xmlns:sodipodi="http://sodipodi.sourceforge.net/DTD/sodipodi-0.dtd"
   xmlns:inkscape="http://www.inkscape.org/namespaces/inkscape"
   width="632.51324"
   height="882.32697"
   id="svg2"
   version="1.1"
   inkscape:version="0.47pre4 r22446"
   sodipodi:docname="TV_NotchDataConfig.svg">
  <defs
     id="defs4">
    <marker
       inkscape:stockid="Arrow2Lend"
       orient="auto"
       refY="0"
       refX="0"
       id="Arrow2Lend"
       style="overflow:visible">
      <path
         id="path5406"
         style="font-size:12px;fill-rule:evenodd;stroke-width:0.625;stroke-linejoin:round"
         d="M 8.7185878,4.0337352 -2.2072895,0.01601326 8.7185884,-4.0017078 c -1.7454984,2.3720609 -1.7354408,5.6174519 -6e-7,8.035443 z"
         transform="matrix(-1.1,0,0,-1.1,-1.1,0)" />
    </marker>
    <inkscape:perspective
       sodipodi:type="inkscape:persp3d"
       inkscape:vp_x="0 : 526.18109 : 1"
       inkscape:vp_y="0 : 1000 : 0"
       inkscape:vp_z="744.09448 : 526.18109 : 1"
       inkscape:persp3d-origin="372.04724 : 350.78739 : 1"
       id="perspective10" />
    <inkscape:perspective
       id="perspective2824"
       inkscape:persp3d-origin="0.5 : 0.33333333 : 1"
       inkscape:vp_z="1 : 0.5 : 1"
       inkscape:vp_y="0 : 1000 : 0"
       inkscape:vp_x="0 : 0.5 : 1"
       sodipodi:type="inkscape:persp3d" />
    <inkscape:perspective
       id="perspective2838"
       inkscape:persp3d-origin="0.5 : 0.33333333 : 1"
       inkscape:vp_z="1 : 0.5 : 1"
       inkscape:vp_y="0 : 1000 : 0"
       inkscape:vp_x="0 : 0.5 : 1"
       sodipodi:type="inkscape:persp3d" />
    <inkscape:perspective
       id="perspective2852"
       inkscape:persp3d-origin="0.5 : 0.33333333 : 1"
       inkscape:vp_z="1 : 0.5 : 1"
       inkscape:vp_y="0 : 1000 : 0"
       inkscape:vp_x="0 : 0.5 : 1"
       sodipodi:type="inkscape:persp3d" />
    <inkscape:perspective
       id="perspective2866"
       inkscape:persp3d-origin="0.5 : 0.33333333 : 1"
       inkscape:vp_z="1 : 0.5 : 1"
       inkscape:vp_y="0 : 1000 : 0"
       inkscape:vp_x="0 : 0.5 : 1"
       sodipodi:type="inkscape:persp3d" />
    <inkscape:perspective
       id="perspective2880"
       inkscape:persp3d-origin="0.5 : 0.33333333 : 1"
       inkscape:vp_z="1 : 0.5 : 1"
       inkscape:vp_y="0 : 1000 : 0"
       inkscape:vp_x="0 : 0.5 : 1"
       sodipodi:type="inkscape:persp3d" />
    <inkscape:perspective
       id="perspective2894"
       inkscape:persp3d-origin="0.5 : 0.33333333 : 1"
       inkscape:vp_z="1 : 0.5 : 1"
       inkscape:vp_y="0 : 1000 : 0"
       inkscape:vp_x="0 : 0.5 : 1"
       sodipodi:type="inkscape:persp3d" />
    <inkscape:perspective
       id="perspective3684"
       inkscape:persp3d-origin="0.5 : 0.33333333 : 1"
       inkscape:vp_z="1 : 0.5 : 1"
       inkscape:vp_y="0 : 1000 : 0"
       inkscape:vp_x="0 : 0.5 : 1"
       sodipodi:type="inkscape:persp3d" />
    <filter
       inkscape:collect="always"
       id="filter6038"
       color-interpolation-filters="sRGB">
      <feGaussianBlur
         inkscape:collect="always"
         stdDeviation="0.53583986"
         id="feGaussianBlur6040" />
    </filter>
    <filter
       inkscape:collect="always"
       id="filter6042"
       color-interpolation-filters="sRGB">
      <feGaussianBlur
         inkscape:collect="always"
         stdDeviation="0.44700048"
         id="feGaussianBlur6044" />
    </filter>
    <inkscape:perspective
       id="perspective6056"
       inkscape:persp3d-origin="0.5 : 0.33333333 : 1"
       inkscape:vp_z="1 : 0.5 : 1"
       inkscape:vp_y="0 : 1000 : 0"
       inkscape:vp_x="0 : 0.5 : 1"
       sodipodi:type="inkscape:persp3d" />
    <inkscape:perspective
       id="perspective6078"
       inkscape:persp3d-origin="0.5 : 0.33333333 : 1"
       inkscape:vp_z="1 : 0.5 : 1"
       inkscape:vp_y="0 : 1000 : 0"
       inkscape:vp_x="0 : 0.5 : 1"
       sodipodi:type="inkscape:persp3d" />
    <inkscape:perspective
       id="perspective6078-5"
       inkscape:persp3d-origin="0.5 : 0.33333333 : 1"
       inkscape:vp_z="1 : 0.5 : 1"
       inkscape:vp_y="0 : 1000 : 0"
       inkscape:vp_x="0 : 0.5 : 1"
       sodipodi:type="inkscape:persp3d" />
    <inkscape:perspective
       id="perspective6109"
       inkscape:persp3d-origin="0.5 : 0.33333333 : 1"
       inkscape:vp_z="1 : 0.5 : 1"
       inkscape:vp_y="0 : 1000 : 0"
       inkscape:vp_x="0 : 0.5 : 1"
       sodipodi:type="inkscape:persp3d" />
    <filter
       color-interpolation-filters="sRGB"
       inkscape:collect="always"
       id="filter6042-9">
      <feGaussianBlur
         inkscape:collect="always"
         stdDeviation="0.44700048"
         id="feGaussianBlur6044-3" />
    </filter>
    <inkscape:perspective
       id="perspective6137"
       inkscape:persp3d-origin="0.5 : 0.33333333 : 1"
       inkscape:vp_z="1 : 0.5 : 1"
       inkscape:vp_y="0 : 1000 : 0"
       inkscape:vp_x="0 : 0.5 : 1"
       sodipodi:type="inkscape:persp3d" />
    <filter
       color-interpolation-filters="sRGB"
       inkscape:collect="always"
       id="filter6038-5">
      <feGaussianBlur
         inkscape:collect="always"
         stdDeviation="0.53583986"
         id="feGaussianBlur6040-3" />
    </filter>
    <inkscape:perspective
       id="perspective2871"
       inkscape:persp3d-origin="0.5 : 0.33333333 : 1"
       inkscape:vp_z="1 : 0.5 : 1"
       inkscape:vp_y="0 : 1000 : 0"
       inkscape:vp_x="0 : 0.5 : 1"
       sodipodi:type="inkscape:persp3d" />
    <inkscape:perspective
       id="perspective2885"
       inkscape:persp3d-origin="0.5 : 0.33333333 : 1"
       inkscape:vp_z="1 : 0.5 : 1"
       inkscape:vp_y="0 : 1000 : 0"
       inkscape:vp_x="0 : 0.5 : 1"
       sodipodi:type="inkscape:persp3d" />
    <inkscape:perspective
       id="perspective2899"
       inkscape:persp3d-origin="0.5 : 0.33333333 : 1"
       inkscape:vp_z="1 : 0.5 : 1"
       inkscape:vp_y="0 : 1000 : 0"
       inkscape:vp_x="0 : 0.5 : 1"
       sodipodi:type="inkscape:persp3d" />
    <inkscape:perspective
       id="perspective2913"
       inkscape:persp3d-origin="0.5 : 0.33333333 : 1"
       inkscape:vp_z="1 : 0.5 : 1"
       inkscape:vp_y="0 : 1000 : 0"
       inkscape:vp_x="0 : 0.5 : 1"
       sodipodi:type="inkscape:persp3d" />
  </defs>
  <sodipodi:namedview
     id="base"
     pagecolor="#ffffff"
     bordercolor="#666666"
     borderopacity="1.0"
     inkscape:pageopacity="0.0"
     inkscape:pageshadow="2"
     inkscape:zoom="0.5"
     inkscape:cx="401.42747"
     inkscape:cy="114.00003"
     inkscape:document-units="px"
     inkscape:current-layer="layer1"
     showgrid="false"
     inkscape:snap-to-guides="false"
     showguides="false"
     inkscape:window-width="1024"
     inkscape:window-height="574"
     inkscape:window-x="0"
     inkscape:window-y="1"
     inkscape:window-maximized="1" />
  <metadata
     id="metadata7">
    <rdf:RDF>
      <cc:Work
         rdf:about="">
        <dc:format>image/svg+xml</dc:format>
        <dc:type
           rdf:resource="http://purl.org/dc/dcmitype/StillImage" />
        <dc:title />
      </cc:Work>
    </rdf:RDF>
  </metadata>
  <g
     inkscape:label="Layer 1"
     inkscape:groupmode="layer"
     id="layer1"
     transform="translate(-23.54385,-20.541594)">
    <image
       y="722.86853"
       x="107.04385"
       id="image2915"
       height="178"
       width="513"
       xlink:href="file:///media/data/Work/thesis/SimpleResponsesChapter/gfx/inkscape_pasted_image_20101004_155727.png" />
    <image
       y="38.390873"
       x="56.57354"
       id="image2901"
       height="175"
       width="510"
       xlink:href="file:///media/data/Work/thesis/SimpleResponsesChapter/gfx/inkscape_pasted_image_20101004_155000.png" />
    <path
       style="fill:none;stroke:#000000;stroke-width:2.75900006;stroke-linecap:butt;stroke-linejoin:miter;stroke-miterlimit:4;stroke-opacity:1;stroke-dasharray:none"
       d="m 136.2669,412.55867 180.88622,0.24888 0,50.87036 138.28991,-1.15615 -1.57146,-49.71421 183.86271,-1.15615 1.57149,2.31229"
       id="path2900"
       sodipodi:nodetypes="ccccccc" />
    <path
       style="fill:none;stroke:#000000;stroke-width:1.48515582;stroke-linecap:butt;stroke-linejoin:miter;stroke-miterlimit:4;stroke-opacity:1;stroke-dasharray:5.94062295, 1.48515573;stroke-dashoffset:0"
       d="m 454.2268,397.21711 -0.80878,232.63755"
       id="path2902-5" />
    <path
       style="fill:none;stroke:#00ff00;stroke-width:5;stroke-linecap:butt;stroke-linejoin:miter;stroke-miterlimit:4;stroke-opacity:1;stroke-dasharray:none"
       d="m 550.41287,119.18428 c -2.18739,-0.35856 -6.92848,2.21826 -6.66899,-0.94728 -0.70252,-0.70252 -3.51256,0.70251 -4.21507,0 -0.33117,-0.33117 0.33116,-1.07386 0,-1.40503 -0.46647,-0.46646 -2.34359,0.46647 -2.81005,0 -0.33117,-0.33116 0.33117,-1.07385 0,-1.40502 -0.66233,-0.66233 -2.14771,0.66233 -2.81005,0 -0.33116,-0.33117 0.33117,-1.07386 0,-1.40502 -0.33809,-0.33809 -5.282,0.33809 -5.62009,0 -2.90704,-2.90704 2.84027,2.17345 -3.0071,-0.75024 -1.83893,-1.97534 -3.92623,-0.25139 -3.07073,-2.54936 -0.66233,-0.66233 -1.48341,-1.26531 -2.3523,-0.91547 -1.45125,0.5843 -2.27429,0.0705 -3.26779,-0.26068 -3.1619,-0.83589 -1.63434,-2.57914 -5.16235,-2.54936 -3.10659,-1.5533 -0.43601,-0.87202 -1.40503,-2.81005 -2.92368,-5.84737 0.097,1.50202 -2.81004,-1.40502 -0.33117,-0.33117 0.33117,-1.07386 0,-1.40503 -0.33117,-0.33116 -0.98613,0.20945 -1.40502,0 -0.59241,-0.2962 -0.81262,-1.10881 -1.40503,-1.40502 -0.41889,-0.20945 -1.07385,0.33117 -1.40502,0 -0.33117,-0.33117 0.33117,-1.07386 0,-1.40502 -0.46921,-0.46921 -2.34084,0.46921 -2.81005,0 -0.33116,-0.33117 0.33117,-1.07386 0,-1.40503 -0.70251,-0.70251 -3.51255,0.70252 -4.21506,0 -0.33117,-0.33116 0.33116,-1.07385 0,-1.405023 -0.33117,-0.33117 -1.07386,0.331173 -1.40503,0 -0.46806,-0.46806 0.46806,-2.34198 0,-2.81004 -0.33116,-0.33117 -1.07385,0.33116 -1.40502,0 -0.33117,-0.33117 0.33117,-1.07386 0,-1.40503 -0.33117,-0.33116 -1.07386,0.33117 -1.40502,0 -1.87337,-1.87336 2.3417,-1.40502 -1.40503,-1.40502 -3.74672,0 0.46834,0.46834 -1.40502,-1.40502 -0.70251,-0.70251 -3.51256,0.70251 -4.21507,0 -0.33117,-0.33117 0.33117,-1.07386 0,-1.40503 -0.33117,-0.33116 -1.07385,0.33117 -1.40502,0 -0.33117,-0.33116 0.33117,-1.07385 0,-1.40502 -0.33117,-0.33117 -1.07386,0.33117 -1.40502,0 -0.33117,-0.33117 0,-0.93668 0,-1.40502 -0.46835,0 -0.98613,0.20945 -1.40503,0 -3.36446,-1.68223 0.88544,-2.81005 -2.81004,-2.81005 -0.34076,0 -4.16989,-0.0452 -4.21507,0 -0.33117,0.33117 0,0.93668 0,1.40503 0,0.46834 0,0.93668 0,1.40502 -0.1889,2.034872 1.06245,4.417327 -1.40502,4.21507 -0.46807,0.46806 0.46806,2.34198 0,2.81004 -0.33117,0.33117 -1.40503,0.46834 -1.40503,0 0,-0.46834 1.40503,-0.46834 1.40503,0 0,2.92369 -1.97037,0.56534 -2.81005,1.40503 0.16811,1.386953 -0.0354,1.53014 -1.40502,1.40502 -0.59241,0.2962 -0.81262,1.10882 -1.40503,1.40502 -2.65334,0.597369 -2.6001,1.827795 -2.81004,4.215073 -1.38696,-0.16811 -1.53015,0.03541 -1.40503,1.40502 -2.32177,1.68301 -1.33,4.46127 -1.40502,7.02512 -0.33117,0.33117 -1.07385,-0.33117 -1.40502,0 -0.38445,0.38444 0.3811,4.85788 0,5.62009 -0.29621,0.59241 -1.10882,0.81261 -1.40502,1.40502 -0.4189,0.83779 0.66233,2.14771 0,2.81005 -2.90705,2.90704 0.11363,-4.44235 -2.81005,1.40502 -0.4189,0.83779 0.66233,2.14771 0,2.81005 -0.33117,0.33116 -1.07386,-0.33117 -1.40502,0 -0.41763,1.91945 -0.0775,1.71536 -1.40503,4.21506 -2.69869,3.98133 -3.54438,10.04326 -6.92967,11.73591 -7.17244,14.0103 -42.62682,9.12984 -77.14283,10.5474"
       id="path3698"
       sodipodi:nodetypes="ccsssssssccsccssssssssssssssssssssssscssssccsssccccccsssssscccc" />
    <path
       style="fill:none;stroke:#00ff00;stroke-width:5;stroke-linecap:butt;stroke-linejoin:miter;stroke-miterlimit:4;stroke-opacity:1;stroke-dasharray:none"
       d="m 220.5886,819.12837 c 4.68341,0 9.36682,0 14.05023,0 0.63276,0 3.78747,0.2138 4.21507,0 0.59241,-0.2962 0.81261,-1.10881 1.40502,-1.40502 0.36944,-0.18472 4.88538,0 5.62009,0 3.27839,0 6.55678,0 9.83517,0 0.63276,0 3.78747,0.2138 4.21506,0 0.59241,-0.2962 0.81262,-1.10882 1.40503,-1.40502 0.36327,-0.18164 7.43425,0 8.43013,0 0.46835,0 1.07386,0.33117 1.40503,0 0.33116,-0.33117 -0.33117,-1.07386 0,-1.40502 0.66233,-0.66234 1.97225,0.41889 2.81004,0 0.59241,-0.29621 0.81262,-1.10882 1.40503,-1.40503 0.41889,-0.20945 0.93668,0 1.40502,0 0.46834,0 0.93668,0 1.40502,0 2.34171,0 4.68341,0 7.02512,0 0.46834,0 1.07385,-0.33116 1.40502,0 0.33117,0.33117 -0.33117,1.07386 0,1.40503 0.33117,0.33116 0.93668,0 1.40502,0 3.27839,0 6.55678,0 9.83516,0 0.46834,0 0.93669,0 1.40503,0 0.46834,0 1.07385,0.33116 1.40502,0 0.33117,-0.33117 -0.33117,-1.07386 0,-1.40503 0.33809,-0.33809 5.282,0.33809 5.62009,0 0.33117,-0.33116 -0.33117,-1.07385 0,-1.40502 0.1405,-0.1405 4.07457,-0.1405 4.21507,0 2.90704,2.90704 -4.44235,-0.11364 1.40502,2.81005 0.28821,0.1441 4.01693,0.19814 4.21507,0 0.33117,-0.33117 -0.33117,-1.07386 0,-1.40503 0.33117,-0.33116 0.93668,0 1.40502,0 0.46835,0 1.40503,-0.46834 1.40503,0 0,0.46834 -1.40503,-0.46834 -1.40503,0 0,2.92369 1.97037,0.56534 2.81005,1.40503 0.33117,0.33116 -0.33117,1.07385 0,1.40502 0.33117,0.33117 1.07386,-0.33117 1.40502,0 0.33117,0.33117 0.46834,1.40502 0,1.40502 -0.46834,0 -0.46834,-1.40502 0,-1.40502 0.66234,0 1.10882,0.81261 1.40503,1.40502 0.41889,0.8378 -0.66234,2.14771 0,2.81005 0.33116,0.33116 1.07385,-0.33117 1.40502,0 0.33117,0.33116 -0.33117,1.07385 0,1.40502 0.33117,0.33117 1.40502,-0.46834 1.40502,0 0,1.99045 -6.55677,-3.9809 1.40503,0 0.41889,0.20945 -0.33117,1.07386 0,1.40502 0.33116,0.33117 1.07385,-0.33116 1.40502,0 0.33117,0.33117 -0.33117,1.07386 0,1.40503 0.70251,0.70251 3.51256,-0.70252 4.21507,0 0.33116,0.33116 -0.33117,1.07385 0,1.40502 0.66233,0.66233 2.14771,-0.66234 2.81004,0 0.66234,0.66233 -0.66233,2.14771 0,2.81005 0.33117,0.33116 1.07386,-0.33117 1.40503,0 0.33116,0.33116 -0.33117,1.07385 0,1.40502 0.33116,0.33117 1.40502,-0.46834 1.40502,0 0,0.46834 -1.87337,0 -1.40502,0 2.3417,0 5.7926,3.32757 8.1343,3.32757 2.32721,0.79487 2.39461,-0.92256 5.91593,-0.51753 0.33116,0.33117 -0.33117,1.07386 0,1.40503 0.0452,0.0452 3.87431,0 4.21506,0 8.43014,0 16.86028,0 25.29042,0"
       id="path3700"
       sodipodi:nodetypes="csssssssssssssssssssssssssssssssssssssssssssssssssssssccssc" />
    <path
       style="fill:none;stroke:#000000;stroke-width:2;stroke-linecap:butt;stroke-linejoin:miter;stroke-miterlimit:4;stroke-opacity:1;stroke-dasharray:none;marker-end:url(#Arrow2Lend)"
       d="m 335.80048,793.83796 c -4.33927,-35.24978 -0.55278,-63.77882 22.48037,-87.11142 27.36716,-19.05348 109.7982,-8.84021 125.04704,-25.29041 10.6806,-11.76269 13.53952,-24.38843 14.54307,-39.21216 0.52802,-7.79965 0.5424,-16.20779 0.91219,-25.41889"
       id="path5830"
       sodipodi:nodetypes="cccsc" />
    <path
       style="fill:none;stroke:#04ff00;stroke-width:5;stroke-linecap:butt;stroke-linejoin:miter;stroke-miterlimit:4;stroke-opacity:1;stroke-dasharray:none;filter:url(#filter6042)"
       d="m 268.35938,320.34523 c 1.16913,-0.57198 4.73408,0.88601 5.62009,0 0.33117,-0.33117 -0.33116,-1.07386 0,-1.40502 0.33117,-0.33117 1.07386,0.33116 1.40503,0 0.33116,-0.33117 -0.33117,-1.07386 0,-1.40503 0.66233,-0.66233 1.97225,0.4189 2.81004,0 0.59241,-0.2962 0.93668,-1.87336 1.40503,-1.40502 0.46834,0.46834 -1.40503,2.06736 -1.40503,1.40502 0,-4.6707 2.76993,-1.32479 4.21507,-4.21506 0.20945,-0.4189 -0.33117,-1.07386 0,-1.40503 0.66234,-0.66233 2.14771,0.66234 2.81005,0 0.33116,-0.33116 -0.33117,-1.07385 0,-1.40502 0.33116,-0.33117 0.93668,0 1.40502,0 0.46834,0 1.40502,-0.46834 1.40502,0 0,0.46834 -1.40502,0.46834 -1.40502,0 0,-0.66233 0.81261,-1.10882 1.40502,-1.40502 0.8378,-0.4189 2.14771,0.66233 2.81005,0 0.33117,-0.33117 -0.33117,-1.07386 0,-1.40503 0.64949,-0.64949 3.36675,0.42416 4.21507,0 1.18482,-0.59241 1.62522,-2.21763 2.81004,-2.81004 0.8378,-0.4189 3.74673,0 2.81005,0 -0.93668,0 -2.81005,0.93668 -2.81005,0 0,-1.61447 3.20683,-1.40502 4.21507,-1.40502 0.46834,0 1.07386,0.33116 1.40503,0 0.66233,-0.66234 -0.4189,-1.97226 0,-2.81005 2.92368,-5.84737 -0.097,1.50202 2.81004,-1.40502 0.46834,-0.46834 0.93668,-3.74673 1.40502,-4.21507 0.33117,-0.33117 1.07386,0.33116 1.40503,0 0.70251,-0.70251 -0.70251,-3.51256 0,-4.21507 0.33116,-0.33117 1.07385,0.33117 1.40502,0 0.33117,-0.33117 -0.33117,-1.07386 0,-1.40502 0.1405,-0.14051 4.07457,-0.14051 4.21507,0 0.33117,0.33116 -0.33117,1.07385 0,1.40502 2.90704,2.90704 -0.11364,-4.44235 2.81004,1.40502 0.28257,0.56514 1.10441,3.91445 1.40503,4.21507 0.33116,0.33117 1.07385,-0.33117 1.40502,0 1.39668,1.39668 -1.77876,6.27763 0,9.83516 0.29621,0.59241 1.10882,0.81261 1.40502,1.40502 0.20945,0.4189 -0.33116,1.07386 0,1.40503 0.33117,0.33116 1.07386,-0.33117 1.40503,0 0.66233,0.66233 -0.4189,1.97225 0,2.81004 0.2962,0.59241 1.10881,0.81262 1.40502,1.40503 0.4189,0.83779 -0.66233,2.14771 0,2.81004 0.33117,0.33117 1.07386,-0.33117 1.40502,0 0.33117,0.33117 -0.33116,1.07386 0,1.40502 0.33117,0.33117 1.07386,-0.33116 1.40503,0 1.19942,1.19943 -1.02479,7.7856 0,9.83517 0.20944,0.41889 1.07385,-0.33117 1.40502,0 0.66233,0.66233 -0.66234,2.14771 0,2.81004 0.33117,0.33117 1.07385,-0.33117 1.40502,0 0.66234,0.66234 -0.66233,2.14771 0,2.81005 0.33117,0.33116 1.07386,-0.33117 1.40502,0 0.70252,0.70251 -0.70251,3.51255 0,4.21507 0.66234,0.66233 2.14772,-0.66234 2.81005,0 0.70251,0.70251 -0.70251,3.51255 0,4.21506 1.34858,1.34859 1.40502,-1.25501 1.40502,2.81005 0,0.93668 -0.66233,2.14771 0,2.81005 0.64949,0.64949 3.36676,-0.42416 4.21507,0 0.59241,0.2962 0.81261,1.10881 1.40502,1.40502 1.47738,0.73869 5.3375,0 7.02512,0 3.67025,0 16.77655,-0.0837 16.86027,0 0.33117,0.33117 -0.33116,1.07386 0,1.40502 0.37192,0.37192 3.63653,0 4.21507,0 1.10015,0 6.32404,-0.70107 7.02512,0 0.33117,0.33117 -0.33117,1.07386 0,1.40503 0.39355,0.39355 6.4503,0.2874 7.02511,0 0.59241,-0.29621 0.93668,-0.93669 1.40503,-1.40503"
       id="path6018" />
    <path
       style="fill:none;stroke:#ff0000;stroke-width:5;stroke-linecap:butt;stroke-linejoin:miter;stroke-miterlimit:4;stroke-opacity:1;stroke-dasharray:none;filter:url(#filter6038)"
       d="m 392.0014,591.51466 c 4.00403,0 0.38065,0 5.62009,0 8.92027,0 23.67418,0 36.5306,0 0.8574,0 5.07264,0.54745 5.62009,0 0.33117,-0.33117 -0.33117,-1.07386 0,-1.40502 0.70251,-0.70252 3.51256,0.70251 4.21507,0 0.33117,-0.33117 -0.33117,-1.07386 0,-1.40503 0.33117,-0.33116 0.93668,0 1.40502,0 0.46834,0 1.40503,-0.46834 1.40503,0 0,0.46834 -1.40503,0.46834 -1.40503,0 0,-0.66233 0.81262,-1.10882 1.40503,-1.40502 0.41889,-0.20945 1.07385,0.33117 1.40502,0 0.66233,-0.66233 0,-1.87336 0,-2.81005 0,-3.74672 -0.46834,0.46834 1.40502,-1.40502 0.66234,-0.66233 -0.66233,-2.14771 0,-2.81005 0.46692,-0.46692 2.34313,0.46693 2.81005,0 1.87336,-1.87336 -2.34171,-1.40502 1.40502,-1.40502 2.91757,0 0.0537,-1.43188 2.81005,-2.81004 0.83779,-0.4189 2.14771,0.66233 2.81004,0 0.33117,-0.33117 -0.33117,-1.07386 0,-1.40503 0.66234,-0.66233 2.14771,0.66234 2.81005,0 0.33116,-0.33116 -0.33117,-1.07385 0,-1.40502 0.66233,-0.66233 3.74673,0 2.81004,0 -0.93668,0 -3.74672,0 -2.81004,0 0.68468,0 6.65016,0.37495 7.02511,0 0.33117,-0.33117 -0.33116,-1.07386 0,-1.40502 0.93804,-0.93804 11.86075,1.09474 14.05023,0 0.4189,-0.20945 -0.33117,-1.07386 0,-1.40503 0.66234,-0.66233 1.87337,0 2.81005,0 2.7211,0 8.85904,-1.19057 11.24018,0 0.59241,0.29621 0.81261,1.10882 1.40502,1.40503 1.16981,0.5849 4.72887,-0.89123 5.6201,0 0.33116,0.33116 -0.33117,1.07385 0,1.40502 1.47491,1.47491 8.29341,-2.87841 11.24018,-1.40502 0.59241,0.2962 0.81261,1.10881 1.40502,1.40502 2.072,1.036 8.26002,-1.57515 9.83516,0 0.33117,0.33117 -0.33116,1.07386 0,1.40502 1.12144,1.12144 5.55105,-0.73703 7.02512,0 0.59241,0.29621 0.81261,1.10882 1.40502,1.40503 1.87336,0.93668 5.15175,-0.93669 7.02512,0 0.5924,0.2962 0.81261,1.10881 1.40502,1.40502 2.1658,1.0829 5.61672,0 9.83516,0 1.10014,0 6.32404,-0.70107 7.02511,0 0.33117,0.33117 -0.33116,1.07385 0,1.40502 0.66234,0.66234 2.14772,-0.66233 2.81005,0 0.33117,0.33117 -0.33117,1.07386 0,1.40502 0.2238,0.22381 19.02314,0 21.07534,0"
       id="path6020"
       transform="matrix(0.9940635,0,0,1.525885,2.8984716,-312.45192)" />
    <rect
       style="fill:#ffffff;fill-opacity:1;stroke:none"
       id="rect6046"
       width="293.64978"
       height="26.695436"
       x="71.656174"
       y="491.75803"
       rx="0.29936859"
       ry="0.24935445" />
    <rect
       style="fill:#ffffff;fill-opacity:1;stroke:none"
       id="rect6046-8"
       width="64.631035"
       height="26.695436"
       x="252.20163"
       y="239.55641"
       rx="0.065889724"
       ry="0.24935445" />
    <rect
       style="fill:#ffffff;fill-opacity:1;stroke:none"
       id="rect6046-8-3"
       width="98.351585"
       height="26.695436"
       x="321.75027"
       y="240.96143"
       rx="0.10026698"
       ry="0.24935445" />
    <path
       style="fill:none;stroke:#000000;stroke-width:2;stroke-linecap:butt;stroke-linejoin:miter;stroke-miterlimit:4;stroke-opacity:1;stroke-dasharray:none;marker-end:url(#Arrow2Lend)"
       d="m 580.27448,122.237 c 46.93913,8.00524 51.1688,64.19947 23.88539,94.13653 -79.8733,51.77641 -152.06227,21.85196 -203.32933,14.19037 -8.17654,-1.22194 -15.8209,-1.87758 -22.87937,-1.54516 -33.21917,8.75338 -28.46168,32.97569 -39.34064,56.20092"
       id="path5380"
       sodipodi:nodetypes="ccscc" />
    <rect
       style="fill:#ffffff;fill-opacity:1;stroke:none"
       id="rect6046-8-4"
       width="332.99042"
       height="35.125576"
       x="226.20871"
       y="354.76831"
       rx="0.33947539"
       ry="0.32809797" />
    <path
       style="fill:none;stroke:#000000;stroke-width:1.54700851;stroke-linecap:butt;stroke-linejoin:miter;stroke-miterlimit:4;stroke-opacity:1;stroke-dasharray:6.18803373, 1.54700843;stroke-dashoffset:0"
       d="m 319.31367,217.40509 -0.74692,273.32137"
       id="path2902" />
    <path
       style="fill:#ffffff;stroke:#04ff00;stroke-width:5;stroke-linecap:butt;stroke-linejoin:miter;stroke-miterlimit:4;stroke-opacity:1;stroke-dasharray:none;filter:url(#filter6042-9)"
       d="m 264.84682,435.48135 c 1.16913,-0.57198 4.73408,0.88601 5.62009,0 0.33117,-0.33117 -0.33116,-1.07386 0,-1.40502 0.33117,-0.33117 1.07386,0.33116 1.40503,0 0.33116,-0.33117 -0.33117,-1.07386 0,-1.40503 0.66233,-0.66233 1.97225,0.4189 2.81004,0 0.59241,-0.2962 0.93668,-1.87336 1.40503,-1.40502 0.46834,0.46834 -1.40503,2.06736 -1.40503,1.40502 0,-4.6707 2.76993,-1.32479 4.21507,-4.21506 0.20945,-0.4189 -0.33117,-1.07386 0,-1.40503 0.66234,-0.66233 2.14771,0.66234 2.81005,0 0.33116,-0.33116 -0.33117,-1.07385 0,-1.40502 0.33116,-0.33117 0.93668,0 1.40502,0 0.46834,0 1.40502,-0.46834 1.40502,0 0,0.46834 -1.40502,0.46834 -1.40502,0 0,-0.66233 0.81261,-1.10882 1.40502,-1.40502 0.8378,-0.4189 2.14771,0.66233 2.81005,0 0.33117,-0.33117 -0.33117,-1.07386 0,-1.40503 0.64949,-0.64949 3.36675,0.42416 4.21507,0 1.18482,-0.59241 1.62522,-2.21763 2.81004,-2.81004 0.8378,-0.4189 3.74673,0 2.81005,0 -0.93668,0 -2.81005,0.93668 -2.81005,0 0,-1.61447 3.20683,-1.40502 4.21507,-1.40502 0.46834,0 1.07386,0.33116 1.40503,0 0.66233,-0.66234 -0.4189,-1.97226 0,-2.81005 2.92368,-5.84737 -0.097,1.50202 2.81004,-1.40502 0.46834,-0.46834 0.93668,-3.74673 1.40502,-4.21507 0.33117,-0.33117 1.07386,0.33116 1.40503,0 0.70251,-0.70251 -0.70251,-3.51256 0,-4.21507 0.33116,-0.33117 1.07385,0.33117 1.40502,0 0.33117,-0.33117 -0.33117,-1.07386 0,-1.40502 0.1405,-0.14051 4.07457,-0.14051 4.21507,0 0.33117,0.33116 -0.33117,1.07385 0,1.40502 2.90704,2.90704 -0.11364,-4.44235 2.81004,1.40502 0.28257,0.56514 1.10441,3.91445 1.40503,4.21507 0.33116,0.33117 1.07385,-0.33117 1.40502,0 1.39668,1.39668 -1.77876,6.27763 0,9.83516 0.29621,0.59241 1.10882,0.81261 1.40502,1.40502 0.20945,0.4189 -0.33116,1.07386 0,1.40503 0.33117,0.33116 1.07386,-0.33117 1.40503,0 0.66233,0.66233 -0.4189,1.97225 0,2.81004 0.2962,0.59241 1.10881,0.81262 1.40502,1.40503 0.4189,0.83779 -0.66233,2.14771 0,2.81004 0.33117,0.33117 1.07386,-0.33117 1.40502,0 0.33117,0.33117 -0.33116,1.07386 0,1.40502 0.33117,0.33117 1.07386,-0.33116 1.40503,0 1.19942,1.19943 -1.02479,7.7856 0,9.83517 0.20944,0.41889 1.07385,-0.33117 1.40502,0 0.66233,0.66233 -0.66234,2.14771 0,2.81004 0.33117,0.33117 1.07385,-0.33117 1.40502,0 0.66234,0.66234 -0.66233,2.14771 0,2.81005 0.33117,0.33116 1.07386,-0.33117 1.40502,0 0.70252,0.70251 -0.70251,3.51255 0,4.21507 0.66234,0.66233 2.14772,-0.66234 2.81005,0 0.70251,0.70251 -0.70251,3.51255 0,4.21506 1.34858,1.34859 1.40502,-1.25501 1.40502,2.81005 0,0.93668 -0.66233,2.14771 0,2.81005 0.64949,0.64949 3.36676,-0.42416 4.21507,0 0.59241,0.2962 0.81261,1.10881 1.40502,1.40502 1.47738,0.73869 5.3375,0 7.02512,0 3.67025,0 16.77655,-0.0837 16.86027,0 0.33117,0.33117 -0.33116,1.07386 0,1.40502 0.37192,0.37192 3.63653,0 4.21507,0 1.10015,0 6.32404,-0.70107 7.02512,0 0.33117,0.33117 -0.33117,1.07386 0,1.40503 0.39355,0.39355 6.4503,0.2874 7.02511,0 0.59241,-0.29621 0.93668,-0.93669 1.40503,-1.40503"
       id="path6018-3"
       transform="matrix(0.9820099,0,0,1.3380882,5.1110846,-161.30698)" />
    <path
       style="fill:none;stroke:#ff0000;stroke-width:5;stroke-linecap:butt;stroke-linejoin:miter;stroke-miterlimit:4;stroke-opacity:1;stroke-dasharray:none;filter:url(#filter6038-5)"
       d="m 380.05871,460.28793 c 4.00403,0 0.38065,0 5.62009,0 8.92027,0 23.67418,0 36.5306,0 0.8574,0 5.07264,0.54745 5.62009,0 0.33117,-0.33117 -0.33117,-1.07386 0,-1.40502 0.70251,-0.70252 3.51256,0.70251 4.21507,0 0.33117,-0.33117 -0.33117,-1.07386 0,-1.40503 0.33117,-0.33116 0.93668,0 1.40502,0 0.46834,0 1.40503,-0.46834 1.40503,0 0,0.46834 -1.40503,0.46834 -1.40503,0 0,-0.66233 0.81262,-1.10882 1.40503,-1.40502 0.41889,-0.20945 1.07385,0.33117 1.40502,0 0.66233,-0.66233 0,-1.87336 0,-2.81005 0,-3.74672 -0.46834,0.46834 1.40502,-1.40502 0.66234,-0.66233 -0.66233,-2.14771 0,-2.81005 0.46692,-0.46692 2.34313,0.46693 2.81005,0 1.87336,-1.87336 -2.34171,-1.40502 1.40502,-1.40502 2.91757,0 0.0537,-1.43188 2.81005,-2.81004 0.83779,-0.4189 2.14771,0.66233 2.81004,0 0.33117,-0.33117 -0.33117,-1.07386 0,-1.40503 0.66234,-0.66233 2.14771,0.66234 2.81005,0 0.33116,-0.33116 -0.33117,-1.07385 0,-1.40502 0.66233,-0.66233 3.74673,0 2.81004,0 -0.93668,0 -3.74672,0 -2.81004,0 0.68468,0 6.65016,0.37495 7.02511,0 0.33117,-0.33117 -0.33116,-1.07386 0,-1.40502 0.93804,-0.93804 11.86075,1.09474 14.05023,0 0.4189,-0.20945 -0.33117,-1.07386 0,-1.40503 0.66234,-0.66233 1.87337,0 2.81005,0 2.7211,0 8.85904,-1.19057 11.24018,0 0.59241,0.29621 0.81261,1.10882 1.40502,1.40503 1.16981,0.5849 4.72887,-0.89123 5.6201,0 0.33116,0.33116 -0.33117,1.07385 0,1.40502 1.47491,1.47491 8.29341,-2.87841 11.24018,-1.40502 0.59241,0.2962 0.81261,1.10881 1.40502,1.40502 2.072,1.036 8.26002,-1.57515 9.83516,0 0.33117,0.33117 -0.33116,1.07386 0,1.40502 1.12144,1.12144 5.55105,-0.73703 7.02512,0 0.59241,0.29621 0.81261,1.10882 1.40502,1.40503 1.87336,0.93668 5.15175,-0.93669 7.02512,0 0.5924,0.2962 0.81261,1.10881 1.40502,1.40502 2.1658,1.0829 5.61672,0 9.83516,0 1.10014,0 6.32404,-0.70107 7.02511,0 0.33117,0.33117 -0.33116,1.07385 0,1.40502 0.66234,0.66234 2.14772,-0.66233 2.81005,0 0.33117,0.33117 -0.33117,1.07386 0,1.40502 0.2238,0.22381 19.02314,0 21.07534,0"
       id="path6020-8"
       transform="matrix(0.99350706,0,0,1.5810334,3.0926049,-264.74942)" />
  </g>
</svg>
