<?xml version="1.0" encoding="UTF-8" standalone="no"?>
<svg
   xmlns:dc="http://purl.org/dc/elements/1.1/"
   xmlns:cc="http://creativecommons.org/ns#"
   xmlns:rdf="http://www.w3.org/1999/02/22-rdf-syntax-ns#"
   xmlns:svg="http://www.w3.org/2000/svg"
   xmlns="http://www.w3.org/2000/svg"
   xmlns:sodipodi="http://sodipodi.sourceforge.net/DTD/sodipodi-0.dtd"
   xmlns:inkscape="http://www.inkscape.org/namespaces/inkscape"
   version="1.1"
   width="484.19904"
   height="359.9007"
   viewBox="10.64 -100 136.65174 101.57197"
   stroke-miterlimit="10"
   style="font-weight:normal;fill-rule:nonzero;stroke-miterlimit:10;font-family:Times New Roman"
   id="svg2"
   inkscape:version="0.48.3.1 r9886"
   sodipodi:docname="CNcircuit-detailed.svg">
  <metadata
     id="metadata200">
    <rdf:RDF>
      <cc:Work
         rdf:about="">
        <dc:format>image/svg+xml</dc:format>
        <dc:type
           rdf:resource="http://purl.org/dc/dcmitype/StillImage" />
        <dc:title />
      </cc:Work>
    </rdf:RDF>
  </metadata>
  <sodipodi:namedview
     pagecolor="#ffffff"
     bordercolor="#666666"
     borderopacity="1"
     objecttolerance="10"
     gridtolerance="10"
     guidetolerance="10"
     inkscape:pageopacity="0"
     inkscape:pageshadow="2"
     inkscape:window-width="1024"
     inkscape:window-height="550"
     id="namedview198"
     showgrid="false"
     inkscape:zoom="2.4349766"
     inkscape:cx="402.9585"
     inkscape:cy="320.90171"
     inkscape:window-x="0"
     inkscape:window-y="25"
     inkscape:window-maximized="1"
     inkscape:current-layer="svg2"
     inkscape:snap-global="true"
     fit-margin-top="0"
     fit-margin-left="0"
     fit-margin-right="0"
     fit-margin-bottom="0" />
  <!--Created by TpX drawing tool-->
  <defs
     id="defs4">
    <marker
       inkscape:stockid="TriangleInL"
       orient="auto"
       refY="0"
       refX="0"
       id="TriangleInL"
       style="overflow:visible">
      <path
         id="path4481"
         d="m 5.77,0 -8.65,5 0,-10 8.65,5 z"
         style="fill-rule:evenodd;stroke:#000000;stroke-width:1pt;marker-start:none"
         transform="scale(-0.8,-0.8)"
         inkscape:connector-curvature="0" />
    </marker>
    <marker
       inkscape:stockid="Arrow2Lstart"
       orient="auto"
       refY="0"
       refX="0"
       id="Arrow2Lstart"
       style="overflow:visible">
      <path
         id="path4365"
         style="font-size:12px;fill-rule:evenodd;stroke-width:0.625;stroke-linejoin:round"
         d="M 8.7185878,4.0337352 -2.2072895,0.01601326 8.7185884,-4.0017078 c -1.7454984,2.3720609 -1.7354408,5.6174519 -6e-7,8.035443 z"
         transform="matrix(1.1,0,0,1.1,1.1,0)"
         inkscape:connector-curvature="0" />
    </marker>
    <inkscape:path-effect
       effect="spiro"
       id="path-effect4342"
       is_visible="true" />
    <marker
       inkscape:stockid="Arrow1Lend"
       orient="auto"
       refY="0"
       refX="0"
       id="Arrow1Lend"
       style="overflow:visible">
      <path
         id="path3968"
         d="M 0,0 5,-5 -12.5,0 5,5 0,0 z"
         style="fill-rule:evenodd;stroke:#000000;stroke-width:1pt;marker-start:none"
         transform="matrix(-0.8,0,0,-0.8,-10,0)"
         inkscape:connector-curvature="0" />
    </marker>
    <marker
       inkscape:stockid="Arrow1Lstart"
       orient="auto"
       refY="0"
       refX="0"
       id="Arrow1Lstart"
       style="overflow:visible">
      <path
         id="path3965"
         d="M 0,0 5,-5 -12.5,0 5,5 0,0 z"
         style="fill-rule:evenodd;stroke:#000000;stroke-width:1pt;marker-start:none"
         transform="matrix(0.8,0,0,0.8,10,0)"
         inkscape:connector-curvature="0" />
    </marker>
    <marker
       inkscape:stockid="DotL"
       orient="auto"
       refY="0"
       refX="0"
       id="DotL"
       style="overflow:visible">
      <path
         id="path4027"
         d="m -2.5,-1 c 0,2.76 -2.24,5 -5,5 -2.76,0 -5,-2.24 -5,-5 0,-2.76 2.24,-5 5,-5 2.76,0 5,2.24 5,5 z"
         style="fill-rule:evenodd;stroke:#000000;stroke-width:1pt;marker-start:none;marker-end:none"
         transform="matrix(0.8,0,0,0.8,5.92,0.8)"
         inkscape:connector-curvature="0" />
    </marker>
    <inkscape:perspective
       sodipodi:type="inkscape:persp3d"
       inkscape:vp_x="0 : 163.94882 : 1"
       inkscape:vp_y="0 : 1000 : 0"
       inkscape:vp_z="464.77557 : 163.94882 : 1"
       inkscape:persp3d-origin="232.38779 : 109.29921 : 1"
       id="perspective202" />
    <inkscape:perspective
       id="perspective3826"
       inkscape:persp3d-origin="0.5 : 0.33333333 : 1"
       inkscape:vp_z="1 : 0.5 : 1"
       inkscape:vp_y="0 : 1000 : 0"
       inkscape:vp_x="0 : 0.5 : 1"
       sodipodi:type="inkscape:persp3d" />
    <inkscape:perspective
       id="perspective3826-3"
       inkscape:persp3d-origin="0.5 : 0.33333333 : 1"
       inkscape:vp_z="1 : 0.5 : 1"
       inkscape:vp_y="0 : 1000 : 0"
       inkscape:vp_x="0 : 0.5 : 1"
       sodipodi:type="inkscape:persp3d" />
    <inkscape:perspective
       id="perspective3826-7"
       inkscape:persp3d-origin="0.5 : 0.33333333 : 1"
       inkscape:vp_z="1 : 0.5 : 1"
       inkscape:vp_y="0 : 1000 : 0"
       inkscape:vp_x="0 : 0.5 : 1"
       sodipodi:type="inkscape:persp3d" />
    <inkscape:perspective
       id="perspective3878"
       inkscape:persp3d-origin="0.5 : 0.33333333 : 1"
       inkscape:vp_z="1 : 0.5 : 1"
       inkscape:vp_y="0 : 1000 : 0"
       inkscape:vp_x="0 : 0.5 : 1"
       sodipodi:type="inkscape:persp3d" />
    <inkscape:perspective
       id="perspective3878-6"
       inkscape:persp3d-origin="0.5 : 0.33333333 : 1"
       inkscape:vp_z="1 : 0.5 : 1"
       inkscape:vp_y="0 : 1000 : 0"
       inkscape:vp_x="0 : 0.5 : 1"
       sodipodi:type="inkscape:persp3d" />
    <inkscape:perspective
       id="perspective3924"
       inkscape:persp3d-origin="0.5 : 0.33333333 : 1"
       inkscape:vp_z="1 : 0.5 : 1"
       inkscape:vp_y="0 : 1000 : 0"
       inkscape:vp_x="0 : 0.5 : 1"
       sodipodi:type="inkscape:persp3d" />
    <inkscape:perspective
       id="perspective3948"
       inkscape:persp3d-origin="0.5 : 0.33333333 : 1"
       inkscape:vp_z="1 : 0.5 : 1"
       inkscape:vp_y="0 : 1000 : 0"
       inkscape:vp_x="0 : 0.5 : 1"
       sodipodi:type="inkscape:persp3d" />
    <marker
       inkscape:stockid="DotL"
       orient="auto"
       refY="0"
       refX="0"
       id="DotL-0"
       style="overflow:visible">
      <path
         id="path4027-5"
         d="m -2.5,-1 c 0,2.76 -2.24,5 -5,5 -2.76,0 -5,-2.24 -5,-5 0,-2.76 2.24,-5 5,-5 2.76,0 5,2.24 5,5 z"
         style="fill-rule:evenodd;stroke:#000000;stroke-width:1pt;marker-start:none;marker-end:none"
         transform="matrix(0.8,0,0,0.8,5.92,0.8)"
         inkscape:connector-curvature="0" />
    </marker>
  </defs>
  <polyline
     points="19.79,-20.07 139.81,-20.21"
     id="polyline6"
     style="fill:none;stroke:#000000;stroke-width:0.30000001"
     transform="translate(5.120473,-1.8998705)" />
  <circle
     cx="74.910004"
     cy="-76.160004"
     r="7.02"
     id="circle8"
     sodipodi:cx="74.910004"
     sodipodi:cy="-76.160004"
     sodipodi:rx="7.02"
     sodipodi:ry="7.02"
     style="fill:none;stroke:#000000;stroke-width:0.30000001"
     transform="translate(5.120473,-1.8998705)" />
  <circle
     cx="107.92"
     cy="-57.279999"
     r="7.02"
     id="circle10"
     sodipodi:cx="107.92"
     sodipodi:cy="-57.279999"
     sodipodi:rx="7.02"
     sodipodi:ry="7.02"
     style="fill:none;stroke:#000000;stroke-width:0.30000001"
     transform="translate(5.120473,-1.8998705)" />
  <circle
     cx="54.900002"
     cy="-56.16"
     r="7.02"
     id="circle12"
     sodipodi:cx="54.900002"
     sodipodi:cy="-56.16"
     sodipodi:rx="7.02"
     sodipodi:ry="7.02"
     style="fill:none;stroke:#000000;stroke-width:0.30000001"
     transform="translate(5.120473,-1.8998705)" />
  <circle
     cx="45.389999"
     cy="-38.259998"
     r="4.1500001"
     id="circle14"
     sodipodi:cx="45.389999"
     sodipodi:cy="-38.259998"
     sodipodi:rx="4.1500001"
     sodipodi:ry="4.1500001"
     style="fill:none;stroke:#000000;stroke-width:0.30000001"
     transform="matrix(1.4672534,0,0,1,-14.149054,-1.8998705)" />
  <path
     d="m 81.140474,-21.969871 a 0,0 0 0 0 0,0"
     id="path16"
     inkscape:connector-curvature="0"
     style="fill:none;stroke:#000000;stroke-width:0.30000001" />
  <path
     d="m 80.170474,-21.969871 c 1.41,-8.19 1.44,-15.38 1.53,-23.36 0.09,-8.53 -0.24,-15.99 -1.39,-24.62"
     id="path18"
     inkscape:connector-curvature="0"
     style="fill:#ffffff;stroke:#000000;stroke-width:0.30000001" />
  <text
     x="77.090477"
     y="-76.949875"
     font-size="5.00"
     xml:space="preserve"
     id="text26"
     style="font-size:5px;text-anchor:start;fill:#000000;font-family:'Comic Sans MS, sans-serif'"><tspan
       style="font-style:normal;font-variant:normal;font-weight:normal;font-stretch:normal;font-family:Arial;-inkscape-font-specification:Arial"
       id="tspan3016">TS</tspan></text>
  <text
     x="57.090477"
     y="-57.359867"
     font-size="5.00"
     xml:space="preserve"
     id="text28"
     style="font-size:5px;text-anchor:start;fill:#000000;font-family:'Comic Sans MS, sans-serif'"><tspan
       style="font-style:normal;font-variant:normal;font-weight:normal;font-stretch:normal;font-family:Arial;-inkscape-font-specification:Arial"
       id="tspan3018">DS</tspan></text>
  <text
     x="109.96048"
     y="-58.199871"
     font-size="5.00"
     xml:space="preserve"
     id="text30"
     style="font-size:5px;text-anchor:start;fill:#000000;font-family:'Comic Sans MS, sans-serif'"><tspan
       style="font-style:normal;font-variant:normal;font-weight:normal;font-stretch:normal;font-family:Arial;-inkscape-font-specification:Arial"
       id="tspan3020">TV</tspan></text>
  <text
     x="46.852699"
     y="-38.897648"
     font-size="5.00"
     xml:space="preserve"
     id="text32"
     style="font-size:5px;text-anchor:start;fill:#000000;font-family:'Comic Sans MS, sans-serif'"><tspan
       style="font-style:normal;font-variant:normal;font-weight:normal;font-stretch:normal;font-family:Arial;-inkscape-font-specification:Arial"
       id="tspan3022">GLG</tspan></text>
  <path
     d="m 109.68048,-65.479871 c -1.88,-3.19 -4.46001,-5.92 -7.55001,-7.97 -4.269996,-2.82 -9.299996,-4.24 -14.409996,-4.06"
     id="path34"
     inkscape:connector-curvature="0"
     style="fill:#ffffff;stroke:#000000;stroke-width:0.30000001" />
  <circle
     cx="83.300003"
     cy="-75.610001"
     r="0.69999999"
     id="circle36"
     sodipodi:cx="83.300003"
     sodipodi:cy="-75.610001"
     sodipodi:rx="0.69999999"
     sodipodi:ry="0.69999999"
     style="fill:#ffffff;stroke:#000000;stroke-width:0.30000001"
     transform="translate(5.120473,-1.8998705)" />
  <path
     d="m 109.68048,-65.479871 c -1.88,-3.19 -4.46001,-5.92 -7.55001,-7.97 -4.269996,-2.82 -9.299996,-4.24 -14.409996,-4.06"
     id="path38"
     style="fill:none;stroke:#000000;stroke-width:0.8644467;stroke-miterlimit:10;stroke-dasharray:none"
     inkscape:connector-curvature="0" />
  <circle
     cx="84"
     cy="-75.550003"
     r="1.4"
     id="circle40"
     sodipodi:cx="84"
     sodipodi:cy="-75.550003"
     sodipodi:rx="1.4"
     sodipodi:ry="1.4"
     style="fill:#000000;stroke:#000000;stroke-width:0.30000001"
     transform="translate(5.120473,-1.8998705)" />
  <path
     d="m 60.702698,-65.064315 c 0.57351,-2.418573 2.172694,-4.483263 3.16997,-5.408176 1.87085,-1.7351 5.19941,-2.802274 6.76003,-4.101824"
     id="path42"
     style="fill:none;stroke:#000000;stroke-width:0.8644467;stroke-miterlimit:10;stroke-dasharray:none"
     inkscape:connector-curvature="0"
     sodipodi:nodetypes="csc" />
  <circle
     cx="66.75"
     cy="-71.150002"
     r="1.4"
     id="circle44"
     sodipodi:cx="66.75"
     sodipodi:cy="-71.150002"
     sodipodi:rx="1.4"
     sodipodi:ry="1.4"
     style="fill:#000000;stroke:#000000;stroke-width:0.30000001"
     transform="translate(4.5560284,-3.593204)" />
  <path
     d="m 67.141431,-58.447496 c 6.118448,-2.288506 12.45444,-3.750327 18.89014,-4.375382 5.483942,-0.524239 11.013205,-0.433505 16.479019,0.282283"
     id="path46"
     style="fill:none;stroke:#000000;stroke-width:0.82636142;stroke-miterlimit:10;stroke-dasharray:none"
     inkscape:connector-curvature="0" />
  <circle
     cx="99.669998"
     cy="-62.450001"
     r="1.4"
     id="circle48"
     sodipodi:cx="99.669998"
     sodipodi:cy="-62.450001"
     sodipodi:rx="1.4"
     sodipodi:ry="1.4"
     transform="translate(4.2691819,0.08647537)"
     style="fill:#000000;stroke:#000000;stroke-width:0.30000001" />
  <path
     d="m 50.230474,-44.489871 c -3.59,-5.45 -4.61,-12.2 -2.8,-18.47 3.11,-10.72 13.36,-17.75 24.48,-16.78"
     id="path50"
     style="fill:none;stroke:#000000;stroke-width:0.8644467;stroke-miterlimit:10;stroke-dasharray:none"
     inkscape:connector-curvature="0" />
  <polygon
     points="65.32,-76.52 66.72,-76.45 66.87,-79.24 66.87,-79.24 65.47,-79.32 "
     id="polygon52"
     style="fill:#000000;stroke:#000000;stroke-width:0.30000001"
     transform="translate(5.120473,-1.8998705)" />
  <path
     d="m 48.130474,-48.403416 c -1.08,-2.101658 -0.92,-4.676189 0.42,-6.609714 0.73,-1.050829 1.76,-1.828443 2.94,-2.206741"
     id="path54"
     style="fill:none;stroke:#000000;stroke-width:0.6257686;stroke-miterlimit:10;stroke-dasharray:none"
     inkscape:connector-curvature="0" />
  <polygon
     points="45.7,-53.46 46.96,-54.06 45.78,-56.59 45.78,-56.59 44.51,-56 "
     id="polygon56"
     style="fill:#000000;stroke:#000000;stroke-width:0.30000001"
     transform="translate(5.120473,-1.8998705)" />
  <path
     d="m 64.920474,-22.249871 c 1.32,-3.12 3.81,-6.71 4.16,-10.08 0.56,-5.47 0.39,-7.76 -1.64,-12.86"
     id="path58"
     style="fill:none;stroke:#000000;stroke-width:0.8926689;stroke-miterlimit:10;stroke-dasharray:none"
     inkscape:connector-curvature="0" />
  <text
     x="78.050476"
     y="-17.779871"
     font-size="5.00"
     xml:space="preserve"
     id="text60"
     style="font-size:5px;text-anchor:start;fill:#000000;font-family:'Comic Sans MS, sans-serif'"><tspan
       style="font-style:normal;font-variant:normal;font-weight:normal;font-stretch:normal;font-family:Arial;-inkscape-font-specification:Arial"
       id="tspan3024">CF</tspan></text>
  <path
     d="m 68.395491,-22.184854 c -1.041832,-2.045022 -2.168465,-3.988216 -3.392012,-5.821099 -1.241719,-1.858339 -3.222412,-4.34461 -4.633732,-5.956868"
     id="path62"
     style="fill:none;stroke:#000000;stroke-width:0.68247414;stroke-miterlimit:10;stroke-dasharray:none"
     inkscape:connector-curvature="0" />
  <polygon
     points="49.45,-33.75 49.45,-33.75 52.04,-32.47 50.36,-34.82 "
     id="polygon64"
     style="fill:#ffffff;fill-opacity:1;stroke:#000000;stroke-width:0.30000222;stroke-linecap:butt;stroke-miterlimit:10;stroke-dasharray:none"
     transform="matrix(1.7876087,0,0,1.7472949,-31.819124,23.688195)" />
  <path
     d="m 91.820938,-22.259407 c -6.379595,-2.921387 -12.920699,-5.46493 -19.58742,-7.60298 -3.562165,-1.151967 -7.537075,-2.359228 -11.171021,-3.280801"
     id="path66"
     style="fill:none;stroke:#000000;stroke-width:0.81174034;stroke-miterlimit:10;stroke-dasharray:none"
     inkscape:connector-curvature="0" />
  <path
     d="m 99.750474,-22.299871 c -5.89,-2.37 -13.09,-7.52 -18.18,-10.86 -7.88,-5.18 -12.77,-8.81 -17.49,-16.98"
     id="path68"
     style="fill:#ffffff;stroke:#000000;stroke-width:0.8644467;stroke-miterlimit:10;stroke-dasharray:none"
     inkscape:connector-curvature="0" />
  <text
     x="28.609049"
     y="-7.8289289"
     font-size="5.00"
     xml:space="preserve"
     id="text72"
     style="font-size:5px;text-anchor:start;fill:#000000;font-family:'Comic Sans MS, sans-serif'"><tspan
       style="font-style:normal;font-variant:normal;font-weight:normal;font-stretch:normal;font-family:Arial;-inkscape-font-specification:Arial"
       id="tspan3042">Auditory Nerve Fibres </tspan></text>
  <path
     d="m 79.890474,-85.289871 c -0.132532,-1.871067 0.259602,-4.334268 1.449602,-5.924266 1.174666,-1.53253 4.030398,-1.89573 6.260398,-2.56573"
     id="path74"
     sodipodi:nodetypes="ccc"
     style="fill:none;stroke:#000000;stroke-width:0.30000225;stroke-miterlimit:10;stroke-dasharray:none;marker-start:none;marker-end:url(#Arrow1Lend)"
     inkscape:connector-curvature="0" />
  <text
     x="60.550476"
     y="-96.359871"
     font-size="5.00"
     xml:space="preserve"
     id="text78"
     style="font-size:5px;text-anchor:start;fill:#000000;font-family:'Comic Sans MS, sans-serif'"><tspan
       style="font-style:normal;font-variant:normal;font-weight:normal;font-stretch:normal;font-family:Arial;-inkscape-font-specification:Arial"
       id="tspan3014">To Inferior Colliculus</tspan></text>
  <text
     x="18.437672"
     y="-92.567627"
     font-size="5.00"
     xml:space="preserve"
     id="text84"
     style="font-size:5px;text-anchor:start;fill:#000000;font-family:'Comic Sans MS, sans-serif'"><tspan
       style="font-style:normal;font-variant:normal;font-weight:normal;font-stretch:normal;font-family:Arial;-inkscape-font-specification:Arial"
       id="tspan3012">To contra. CN</tspan></text>
  <polyline
     points="16.96,-72.52 16.96,-58.49"
     id="polyline86"
     transform="matrix(0.91630304,0,0,0.88428202,-2.2722966,-14.854376)"
     style="fill:none;stroke:#000000;stroke-width:0.30000001" />
  <polygon
     points="16.96,-72.52 16.26,-71.12 17.66,-71.12 16.96,-72.52 "
     id="polygon88"
     transform="matrix(0.91630304,0,0,0.88428202,-2.2722966,-14.854376)"
     style="fill:#000000;stroke:#000000;stroke-width:0.30000001" />
  <polyline
     points="31.23,-58.73 16.99,-58.72"
     id="polyline90"
     transform="matrix(0.91630304,0,0,0.88428202,-2.2722966,-14.854376)"
     style="fill:none;stroke:#000000;stroke-width:0.30000001" />
  <polygon
     points="31.23,-58.73 29.83,-59.42 29.83,-58.02 31.23,-58.73 "
     id="polygon92"
     transform="matrix(0.91630304,0,0,0.88428202,-2.2722966,-14.854376)"
     style="fill:#000000;stroke:#000000;stroke-width:0.30000001" />
  <path
     d="m 14.575588,-76.649299 c 1.642752,1.692161 1.876468,1.563996 3.168455,2.651663 0.329869,0.274127 1.910798,1.45494 2.671329,1.331141 1.997541,-0.327185 2.070845,-2.6993 2.171638,-4.556292"
     id="path94"
     sodipodi:nodetypes="cccc"
     style="fill:none;stroke:#000000;stroke-width:0.27004507"
     inkscape:connector-curvature="0" />
  <text
     x="10.254647"
     y="-78.851555"
     font-size="3.00"
     xml:space="preserve"
     id="text96"
     style="font-size:2.70045042px;text-anchor:start;fill:#000000;font-family:'Comic Sans MS, sans-serif'"
     transform="scale(1.0179447,0.98237164)"><tspan
       style="font-style:normal;font-variant:normal;font-weight:normal;font-stretch:normal;font-family:Arial;-inkscape-font-specification:Arial"
       id="tspan3026">L</tspan></text>
  <text
     x="24.459015"
     y="-64.332146"
     font-size="3.00"
     xml:space="preserve"
     id="text98"
     style="font-size:2.70045042px;text-anchor:start;fill:#000000;font-family:'Comic Sans MS, sans-serif'"
     transform="scale(1.0179447,0.98237164)"><tspan
       style="font-style:normal;font-variant:normal;font-weight:normal;font-stretch:normal;font-family:Arial;-inkscape-font-specification:Arial"
       id="tspan3028">F</tspan></text>
  <polyline
     points="25.85,-60.92 34.87,-60.92"
     id="polyline100"
     transform="matrix(1.3885584,0,0,1.2719192,-7.8887829,10.122505)"
     style="fill:none;stroke:#000000;stroke-width:0.15000001" />
  <polyline
     points="27.29,-65.63 27.27,-60.91"
     id="polyline102"
     transform="matrix(1.3885584,0,0,1.2719192,-7.8887829,10.122505)"
     style="fill:none;stroke:#000000;stroke-width:0.15000001" />
  <polyline
     points="27.85,-64.96 27.85,-60.95"
     id="polyline104"
     transform="matrix(1.3885584,0,0,1.2719192,-7.8887829,10.122505)"
     style="fill:none;stroke:#000000;stroke-width:0.15000001" />
  <polyline
     points="21.29,-43.04 21.29,-29.01"
     id="polyline106"
     transform="translate(-6.1684159,-1.335426)"
     style="fill:none;stroke:#000000;stroke-width:0.30000001" />
  <polygon
     points="20.59,-41.64 21.99,-41.64 21.29,-43.04 21.29,-43.04 "
     id="polygon108"
     transform="translate(-6.1684159,-1.335426)"
     style="fill:#000000;stroke:#000000;stroke-width:0.30000001" />
  <polyline
     points="35.56,-29.25 21.32,-29.24"
     id="polyline110"
     transform="translate(-6.1684159,-1.335426)"
     style="fill:none;stroke:#000000;stroke-width:0.30000001" />
  <polygon
     points="34.16,-29.95 34.16,-28.55 35.56,-29.25 35.56,-29.25 "
     id="polygon112"
     transform="translate(-6.1684159,-1.335426)"
     style="fill:#000000;stroke:#000000;stroke-width:0.30000001" />
  <path
     d="m 16.904326,-42.602695 c 1.907458,2.382002 3.065175,2.695501 4.041907,4.536068 1.251343,1.851767 1.208734,3.766626 2.045208,3.582414 1.530604,-2.374984 2.27763,-5.039512 2.388488,-7.80269"
     id="path114"
     style="fill:none;stroke:#000000;stroke-width:0.34546447"
     sodipodi:nodetypes="cccc"
     inkscape:connector-curvature="0" />
  <text
     x="10.801583"
     y="-42.655426"
     font-size="3.00"
     xml:space="preserve"
     id="text116"
     style="font-size:3px;text-anchor:start;fill:#000000;font-family:'Comic Sans MS, sans-serif'"><tspan
       style="font-style:normal;font-variant:normal;font-weight:normal;font-stretch:normal;font-family:Arial;-inkscape-font-specification:Arial"
       id="tspan3032">L</tspan></text>
  <text
     x="26.5816"
     y="-26.525427"
     font-size="3.00"
     xml:space="preserve"
     id="text118"
     style="font-size:3px;text-anchor:start;fill:#000000;font-family:'Comic Sans MS, sans-serif'"><tspan
       style="font-style:normal;font-variant:normal;font-weight:normal;font-stretch:normal;font-family:Arial;-inkscape-font-specification:Arial"
       id="tspan3030">F</tspan></text>
  <polyline
     points="30.18,-31.44 39.20,-31.44"
     id="polyline120"
     transform="matrix(1.393938,0,0,0.72525473,-10.154828,-9.409383)"
     style="fill:none;stroke:#000000;stroke-width:0.15000001" />
  <path
     style="font-size:medium;font-style:normal;font-variant:normal;font-weight:normal;font-stretch:normal;text-indent:0;text-align:start;text-decoration:none;line-height:normal;letter-spacing:normal;word-spacing:normal;text-transform:none;direction:ltr;block-progression:tb;writing-mode:lr-tb;text-anchor:start;baseline-shift:baseline;color:#000000;fill:#000000;fill-opacity:1;fill-rule:nonzero;stroke:none;stroke-width:0.15000001;marker:none;visibility:visible;display:inline;overflow:visible;enable-background:accumulate;font-family:Times New Roman;-inkscape-font-specification:Sans"
     d="m 35.453081,-33.433447 -0.392045,0.02266 -0.08712,0 0,0.02266 -0.35871,0.06747 -0.266683,-0.548575 -0.171582,-0.186263 -0.122703,0.742854 -0.212897,1.012404 0.217803,0.02266 0.537443,0.01454 c 0.417463,0.09038 0.404607,0.02666 0.756074,0.04723 l 0.332939,0.01824 0.266684,-0.04364 c 0.02904,0 0.242133,0 0.271173,0 l 1.407651,-0.008 0.725813,-0.0213 0.445416,0.03373 0.237839,-0.01823 0.380992,0.01823 1.294583,-0.0031 0.8072,-0.008 0.421893,0.03068 0.283646,-0.05914 c 0.145516,0.01156 0.292216,0.002 0.437852,-0.0079 l 0.06135,0.05197 0.217803,0 0.130681,0 -0.04356,-0.06799 -0.174242,-0.43062 0,-0.06799 -0.217803,-0.43062 0,-0.02266 -0.08712,-0.04533 0,-0.02266 -0.08712,-0.02266 -0.871211,0 -2.526512,0.135986 -0.261364,-0.135986 -0.04356,-0.02266 -0.08712,0.02266 -1.045454,0.113321 -0.04356,0 -1.655301,-0.02266 -0.392045,-0.181314 -0.08712,0 z"
     id="polyline122"
     inkscape:connector-curvature="0"
     sodipodi:nodetypes="ccccccccccccccccccccccccccccccccccccccccccccccc" />
  <text
     x="29.124443"
     y="-38.778023"
     font-size="3.00"
     xml:space="preserve"
     id="text124"
     style="font-size:3px;text-anchor:start;fill:#000000;font-family:'Times New Roman, serif'"><tspan
       style="font-size:2.5400002px;font-style:normal;font-variant:normal;font-weight:normal;font-stretch:normal;font-family:Arial;-inkscape-font-specification:Arial"
       id="tspan3860">Chopper/</tspan></text>
  <text
     x="25.986795"
     y="-36.298893"
     font-size="3.00"
     xml:space="preserve"
     style="font-size:3px;text-anchor:start;fill:#000000;font-family:'Times New Roman, serif'"
     id="text4116"><tspan
       style="font-size:2.5400002px;font-style:normal;font-variant:normal;font-weight:normal;font-stretch:normal;font-family:Arial;-inkscape-font-specification:Arial"
       id="tspan4118">Pause-Build/</tspan></text>
  <text
     x="32.145885"
     y="-34.129654"
     font-size="3.00"
     xml:space="preserve"
     style="font-size:3px;text-anchor:start;fill:#000000;font-family:'Times New Roman, serif'"
     id="text4120"><tspan
       style="font-size:2.5400002px;font-style:normal;font-variant:normal;font-weight:normal;font-stretch:normal;font-family:Arial;-inkscape-font-specification:Arial"
       id="tspan4122">Unusual</tspan></text>
  <polyline
     points="104.40,-47.21 104.38,-33.41"
     id="polyline126"
     transform="translate(11.893807,2.051241)"
     style="fill:none;stroke:#000000;stroke-width:0.30000001" />
  <polygon
     points="105.1,-45.8 104.4,-47.21 104.4,-47.21 103.7,-45.81 "
     id="polygon128"
     transform="translate(11.893807,2.051241)"
     style="fill:#000000;stroke:#000000;stroke-width:0.30000001" />
  <polyline
     points="118.66,-33.41 104.43,-33.40"
     id="polyline130"
     transform="translate(11.893807,2.051241)"
     style="fill:none;stroke:#000000;stroke-width:0.30000001" />
  <polygon
     points="117.26,-32.71 118.66,-33.41 118.66,-33.41 117.26,-34.11 "
     id="polygon132"
     transform="translate(11.893807,2.051241)"
     style="fill:#000000;stroke:#000000;stroke-width:0.30000001" />
  <path
     d="m 118.26379,-42.938763 c 1.3,2.54 2.83,2.34 3.6,4.05 0.24,0.53 1.25,6.39 1.59,5.61 0.63,-1.42 0.93,-7.99 1.05,-10.1"
     id="path134"
     style="fill:none;stroke:#000000;stroke-width:0.30000001"
     inkscape:connector-curvature="0" />
  <polyline
     points="114.50,-35.77 123.53,-35.77"
     id="polyline136"
     transform="matrix(1.3653486,0,0,1.2079896,-22.591743,11.797117)"
     style="fill:none;stroke:#000000;stroke-width:0.15000001" />
  <path
     d="m 116.96379,-43.288763 c 0.22,1.12 0.83,3.64 1.55,4.52 0.99,1.23 2.36,2.08 3.9,2.44"
     id="path138"
     style="fill:none;stroke:#000000;stroke-width:0.30000001"
     inkscape:connector-curvature="0" />
  <polygon
     points="106.53,-40.94 108.38,-39.31 109.43,-38.72 110.52,-38.47 110.31,-39.68 110.01,-40.86 109.83,-43 109.6,-45.22 108.21,-45.2 106.28,-45.2 105.03,-45.22 105.74,-43.08 "
     id="polygon140"
     transform="translate(11.893807,2.051241)"
     style="fill:#000000;stroke:#000000;stroke-width:0.30000001" />
  <polygon
     points="115.21,-41.3 115.59,-44.15 115.67,-45.24 112.65,-45.28 112.19,-38.45 113.37,-38.7 "
     id="polygon142"
     transform="translate(11.893807,2.051241)"
     style="fill:#000000;stroke:#000000;stroke-width:0.30000001" />
  <path
     d="m 135.14642,-31.494005 a 6.3194511,4.3549361 0 0 0 0.60184,0 l -0.30092,-4.345061 -0.30092,4.345061 z"
     id="path144"
     style="fill:#000000;stroke:#000000;stroke-width:0.35687262"
     inkscape:connector-curvature="0" />
  <path
     d="m 136.58522,-31.509311 a 4.3008482,3.8051673 0 0 0 0.57345,0 l -0.21845,-3.805167 -0.355,3.805167 z"
     id="path146"
     style="fill:#000000;stroke:#000000;stroke-width:0.38527837"
     inkscape:connector-curvature="0" />
  <path
     d="m 138.06445,-31.666349 a 3.9048971,3.4548503 0 0 0 0.57344,0.01208 l -0.21845,-3.454851 -0.35499,3.442771 z"
     id="path148"
     style="fill:#000000;stroke:#000000;stroke-width:0.38527837"
     inkscape:connector-curvature="0" />
  <polygon
     points="118.52,-37.78 120.7,-37.82 121.79,-37.7 122.25,-35.9 117.22,-35.9 117.22,-37.03 117.72,-37.99 "
     id="polygon150"
     transform="matrix(0.98866802,0,0,0.88599567,23.509705,0.28978731)"
     style="fill:#000000;stroke:#000000;stroke-width:0.30000001" />
  <rect
     x="118.72382"
     y="-40.598755"
     width="1.8"
     height="0.5"
     id="rect152"
     style="fill:#ffffff;stroke:#000000;stroke-width:0.30000001" />
  <rect
     x="124.9638"
     y="-40.598755"
     width="1.8"
     height="0.5"
     id="rect154"
     style="fill:#ffffff;stroke:#000000;stroke-width:0.30000001" />
  <polyline
     points="91.74,-91.51 91.74,-77.48"
     id="polyline156"
     transform="translate(23.18269,-3.0287594)"
     style="fill:none;stroke:#000000;stroke-width:0.30000001" />
  <polygon
     points="92.44,-90.11 91.74,-91.51 91.74,-91.51 91.04,-90.11 "
     id="polygon158"
     transform="translate(23.18269,-3.0287594)"
     style="fill:#000000;stroke:#000000;stroke-width:0.30000001" />
  <polyline
     points="106.00,-77.71 91.77,-77.71"
     id="polyline160"
     transform="translate(23.18269,-3.0287594)"
     style="fill:none;stroke:#000000;stroke-width:0.30000001" />
  <polygon
     points="104.61,-77.01 106,-77.71 106,-77.71 104.6,-78.41 "
     id="polygon162"
     transform="translate(23.18269,-3.0287594)"
     style="fill:#000000;stroke:#000000;stroke-width:0.30000001" />
  <path
     d="m 116.89262,-92.318759 c 1.3,2.54 2.19,2.82 3.60001,4.05 0.36,0.31 1.25,6.39 1.6,5.61 0.61999,-1.42 0.92999,-7.99 1.03999,-10.1"
     id="path164"
     style="fill:none;stroke:#000000;stroke-width:0.30000001"
     inkscape:connector-curvature="0" />
  <polyline
     points="101.85,-80.08 110.87,-80.08"
     id="polyline166"
     transform="matrix(1.388342,0,0,1.3121319,-10.124552,23.939179)"
     style="fill:none;stroke:#000000;stroke-width:0.15000001" />
  <path
     d="m 115.59262,-92.668759 c 0.22,1.12 0.83,3.64 1.55,4.52 0.99,1.23 2.36,2.08 3.90001,2.43"
     id="path168"
     style="fill:none;stroke:#000000;stroke-width:0.30000001"
     inkscape:connector-curvature="0" />
  <polygon
     points="97.65,-83.99 97.36,-85.16 95.93,-86.13 94.68,-87.67 93.82,-89.18 93.61,-89.59 92.37,-89.52 93.08,-87.38 93.88,-85.24 95.72,-83.61 96.77,-83.02 97.86,-82.77 "
     id="polygon170"
     transform="translate(23.18269,-3.0287594)"
     style="fill:#000000;stroke:#000000;stroke-width:0.30000001" />
  <polygon
     points="99.53,-82.75 101.16,-83.73 102.02,-85.85 102.55,-88.55 102.62,-89.61 100,-89.58 "
     id="polygon172"
     transform="translate(23.18269,-3.0287594)"
     style="fill:#000000;stroke:#000000;stroke-width:0.30000001" />
  <path
     d="m 132.70801,-81.241317 a 6.5668577,6.206384 0 0 0 0.51369,0 l -0.23602,-6.206384 -0.27767,6.206384 z"
     id="path174"
     style="fill:#000000;stroke:#000000;stroke-width:0.20245488"
     inkscape:connector-curvature="0" />
  <path
     d="m 133.58267,-81.228195 a 5.914337,5.589682 0 0 0 0.59698,0 l -0.26378,-5.589682 -0.3332,5.589682 z"
     id="path176"
     style="fill:#000000;stroke:#000000;stroke-width:0.20245488"
     inkscape:connector-curvature="0" />
  <path
     d="m 134.52674,-81.188831 a 4.1927929,3.9626384 0 0 0 0.62475,0 l -0.27766,-3.949517 -0.34709,3.949517 z"
     id="path178"
     style="fill:#000000;stroke:#000000;stroke-width:0.20245488"
     inkscape:connector-curvature="0" />
  <polygon
     points="104.56,-81.33 105.07,-82.29 105.86,-82.08 108.04,-82.12 109.13,-82 109.59,-80.2 104.56,-80.2 "
     id="polygon180"
     transform="matrix(1.388342,0,0,1.3121319,-10.124552,23.939179)"
     style="fill:#000000;stroke:#000000;stroke-width:0.30000001" />
  <rect
     x="118.1927"
     y="-88.08876"
     width="1.8"
     height="0.5"
     id="rect182"
     style="fill:#ffffff;stroke:#000000;stroke-width:0.30000001" />
  <rect
     x="122.8527"
     y="-88.038765"
     width="1.8"
     height="0.5"
     id="rect184"
     style="fill:#ffffff;stroke:#000000;stroke-width:0.30000001" />
  <rect
     id="rect3816"
     width="9.9960203"
     height="1.2217358"
     x="28.210829"
     y="-66.410072"
     rx="0.29936859"
     ry="0.24935445" />
  <rect
     style="font-weight:normal;font-family:Times New Roman"
     id="rect3816-6"
     width="9.9960203"
     height="1.2217358"
     x="32.218349"
     y="-30.953264"
     rx="0.29936859"
     ry="0.24935445" />
  <rect
     style="font-weight:normal;font-family:Times New Roman"
     id="rect3816-0"
     width="9.9960203"
     height="1.2217358"
     x="134.05409"
     y="-30.583632"
     rx="0.29936859"
     ry="0.24935445" />
  <rect
     style="font-weight:normal;font-family:Times New Roman"
     id="rect3816-1"
     width="9.9960203"
     height="1.2217358"
     x="131.56157"
     y="-80.081276"
     rx="0.29936859"
     ry="0.24935445" />
  <flowRoot
     xml:space="preserve"
     id="flowRoot3862"
     style="font-size:10px;font-style:normal;font-weight:normal;fill:#000000;fill-opacity:1;stroke:none;font-family:Bitstream Vera Sans"
     transform="matrix(0.28222223,0,0,0.28222223,7.9966474,-106.74859)"><flowRegion
       id="flowRegion3864"><rect
         id="rect3866"
         width="24.793278"
         height="16.922388"
         x="84.218437"
         y="113.02257" /></flowRegion><flowPara
       id="flowPara3868">OnC</flowPara></flowRoot>  <flowRoot
     xml:space="preserve"
     id="flowRoot3862-9"
     style="font-size:10px;font-style:normal;font-weight:normal;fill:#000000;fill-opacity:1;stroke:none;font-family:Bitstream Vera Sans"
     transform="matrix(0.28222223,0,0,0.28222223,109.60536,-123.5399)"><flowRegion
       id="flowRegion3864-3"><rect
         id="rect3866-8"
         width="46.438202"
         height="18.10302"
         x="84.218437"
         y="113.02257" /></flowRegion><flowPara
       id="flowPara3868-8">ChS/ChT</flowPara></flowRoot>  <flowRoot
     xml:space="preserve"
     id="flowRoot3862-98"
     style="font-size:10px;font-style:normal;font-weight:normal;fill:#000000;fill-opacity:1;stroke:none;font-family:Bitstream Vera Sans"
     transform="matrix(0.28222223,0,0,0.28222223,112.05796,-71.394907)"><flowRegion
       id="flowRegion3864-0"><rect
         id="rect3866-9"
         width="40.928585"
         height="14.954668"
         x="84.218437"
         y="113.02257" /></flowRegion><flowPara
       id="flowPara3868-2">Ch/Un</flowPara></flowRoot>  <path
     style="font-weight:normal;fill:#fefffd;fill-opacity:0.99074072999999996;stroke:#000000;stroke-width:0.30056669;stroke-miterlimit:10;stroke-dasharray:1.80340016,1.80340016;marker-end:url(#DotL);font-family:Times New Roman;stroke-dashoffset:0"
     d="m 106.79495,-55.037839 c -6.811382,1.295907 -17.786108,1.762437 -19.280501,1.945137 -0.674252,-0.0295 -13.124024,0.100511 -19.341215,-0.729174"
     id="path46-3"
     sodipodi:nodetypes="ccc"
     inkscape:connector-curvature="0" />
  <flowRoot
     xml:space="preserve"
     id="flowRoot4410"
     style="font-size:10px;font-style:normal;font-weight:normal;fill:#000000;fill-opacity:1;stroke:none;font-family:Bitstream Vera Sans"
     transform="matrix(0.28222223,0,0,0.28222223,21.969357,-106.97983)"><flowRegion
       id="flowRegion4412"><rect
         id="rect4414"
         width="73.98629"
         height="17.709476"
         x="336.48019"
         y="26.836412" /></flowRegion><flowPara
       id="flowPara4416">T stellate Cell</flowPara></flowRoot>  <flowRoot
     xml:space="preserve"
     id="flowRoot4418"
     style="font-size:10px;font-style:normal;font-weight:normal;fill:#000000;fill-opacity:1;stroke:none;font-family:Bitstream Vera Sans"
     transform="matrix(0.28222223,0,0,0.28222223,22.533804,-103.59319)"><flowRegion
       id="flowRegion4420"><rect
         id="rect4422"
         width="109.45993"
         height="23.752035"
         x="337.66083"
         y="192.51848" /></flowRegion><flowPara
       id="flowPara4424">Tuberculoventral Cell</flowPara></flowRoot>  <flowRoot
     xml:space="preserve"
     id="flowRoot4426"
     style="font-size:10px;font-style:normal;font-weight:normal;fill:#000000;fill-opacity:1;stroke:none;font-family:Bitstream Vera Sans"
     transform="matrix(0.28222223,0,0,0.28222223,10.116028,-101.33543)"><flowRegion
       id="flowRegion4428"><rect
         id="rect4430"
         width="83.037804"
         height="19.677204"
         x="19.283661"
         y="188.18948" /></flowRegion><flowPara
       id="flowPara4432">Golgi Cell</flowPara></flowRoot>  <flowRoot
     xml:space="preserve"
     id="flowRoot4434"
     style="font-size:10px;font-style:normal;font-weight:normal;fill:#000000;fill-opacity:1;stroke:none;font-family:Bitstream Vera Sans"
     transform="matrix(0.28222223,0,0,0.28222223,9.5515834,-106.41539)"><flowRegion
       id="flowRegion4436"><rect
         id="rect4438"
         width="101.14083"
         height="20.070749"
         x="16.528852"
         y="79.17778" /></flowRegion><flowPara
       id="flowPara4440">D stellate Cell</flowPara></flowRoot>  <path
     style="fill:none;stroke:#000000;stroke-width:0.28222224;stroke-linecap:butt;stroke-linejoin:miter;stroke-miterlimit:10;stroke-opacity:1;stroke-dasharray:none;marker-start:url(#Arrow1Lstart);marker-end:none"
     d="m 47.858804,-90.32763 c 2.961784,3.109873 6.1457,7.855883 7.88575,11.217756 1.700524,3.590449 2.295381,10.6254 2.443471,14.216562"
     id="path4463"
     sodipodi:nodetypes="ccc"
     inkscape:connector-curvature="0" />
  <path
     d="m 80.170474,-21.969871 c 1.41,-8.19 1.44,-15.38 1.53,-23.36 0.09,-8.53 -0.24,-15.99 -1.39,-24.62"
     id="path194"
     style="fill:#ffffff;stroke:#000000;stroke-width:0.8644467;stroke-miterlimit:10;stroke-dasharray:none"
     inkscape:connector-curvature="0" />
  <path
     d="m 103.46052,-49.832441 c -1.04905,0.764173 -8.12093,3.809511 -9.971078,4.357505 -1.488262,0.587163 -8.274866,2.205464 -12.092782,2.883788"
     id="path22"
     sodipodi:nodetypes="ccc"
     style="fill:#ffffff;stroke:#000000;stroke-width:0.55611628;stroke-linecap:butt;stroke-miterlimit:10;stroke-dasharray:none"
     inkscape:connector-curvature="0" />
  <polyline
     points="91.74,-91.51 91.74,-77.48"
     id="polyline156-0"
     transform="translate(-4.6513319,76.193457)"
     style="font-weight:normal;fill:none;stroke:#000000;stroke-width:0.30000001;font-family:Times New Roman" />
  <polygon
     points="91.74,-91.51 91.04,-90.11 92.44,-90.11 91.74,-91.51 "
     id="polygon158-4"
     transform="translate(-4.6513319,76.193457)"
     style="font-weight:normal;fill:#000000;stroke:#000000;stroke-width:0.30000001;font-family:Times New Roman" />
  <polyline
     points="106.00,-77.71 91.77,-77.71"
     id="polyline160-8"
     transform="translate(-4.6513319,76.193457)"
     style="font-weight:normal;fill:none;stroke:#000000;stroke-width:0.30000001;font-family:Times New Roman" />
  <polygon
     points="106,-77.71 104.6,-78.41 104.61,-77.01 106,-77.71 "
     id="polygon162-7"
     transform="translate(-4.6513319,76.193457)"
     style="font-weight:normal;fill:#000000;stroke:#000000;stroke-width:0.30000001;font-family:Times New Roman" />
  <path
     inkscape:connector-curvature="0"
     d="m 89.058636,-13.09655 c 1.3,2.54 2.19,2.82 3.60001,4.0500032 0.36,0.3100005 1.25,6.3899998 1.6,5.6100008 0.61999,-1.42 0.92999,-7.990004 1.03999,-10.100004"
     id="path164-1"
     style="font-weight:normal;fill:none;stroke:#000000;stroke-width:0.30000001;font-family:Times New Roman" />
  <polyline
     points="101.85,-80.08 110.87,-80.08"
     id="polyline166-7"
     transform="matrix(1.388342,0,0,1.3121319,-37.958572,103.16137)"
     style="font-weight:normal;fill:none;stroke:#000000;stroke-width:0.15000001;font-family:Times New Roman" />
  <path
     inkscape:connector-curvature="0"
     d="m 104.57068,-2.03526 a 18.497606,6.0940901 0 0 0 1.44697,0 l -0.66482,-6.0940908 -0.78215,6.0940908 z"
     id="path174-2"
     style="font-weight:normal;fill:#000000;stroke:#000000;stroke-width:0.33669937;font-family:Times New Roman" />
  <path
     style="font-size:medium;font-style:normal;font-variant:normal;font-weight:normal;font-stretch:normal;text-indent:0;text-align:start;text-decoration:none;line-height:normal;letter-spacing:normal;word-spacing:normal;text-transform:none;direction:ltr;block-progression:tb;writing-mode:lr-tb;text-anchor:start;baseline-shift:baseline;color:#000000;fill:#000000;fill-opacity:1;fill-rule:nonzero;stroke:none;stroke-width:0.30000225;marker:none;visibility:visible;display:inline;overflow:visible;enable-background:accumulate;font-family:Times New Roman;-inkscape-font-specification:Sans"
     d="m 105.82817,-5.544634 -0.11307,0.141121 -0.90455,1.458253 -0.0565,0.04704 0,0.04704 0,1.740496 0,0.188161 0.28267,0 8.89367,-0.01097 0.19666,0.04386 -0.15519,-0.380932 -0.36553,-1.968546 -0.25388,-0.261742 -0.4547,-0.101867 -1.45236,-0.166231 -0.24291,-0.02193 -3.73468,-0.377436 -0.11306,0 -1.35682,-0.329283 -0.16961,-0.04704 z m 1.37751,3.41234 0.76127,-0.04672 0.33067,0.05483 0.38549,0.02193 2.46439,-0.134764 1.76523,0.133334 -0.72517,-1.272955 -6.86821,1.030758 0,-1.458253 0,-0.04704 0.78978,1.685988 z"
     id="polygon180-0"
     inkscape:connector-curvature="0"
     sodipodi:nodetypes="ccccccccccccccccccccccccccccccccc" />
  <rect
     style="font-weight:normal;font-family:Times New Roman"
     id="rect3816-1-5"
     width="9.9960203"
     height="1.2217358"
     x="103.72755"
     y="-0.85904771"
     rx="0.29936859"
     ry="0.24935445" />
  <text
     x="111.33173"
     y="-92.127274"
     font-size="3.00"
     xml:space="preserve"
     id="text116-0"
     style="font-size:3px;font-weight:normal;text-anchor:start;fill:#000000;font-family:'Comic Sans MS, sans-serif'"><tspan
       style="font-style:normal;font-variant:normal;font-weight:normal;font-stretch:normal;font-family:Arial;-inkscape-font-specification:Arial"
       id="tspan3032-4">L</tspan></text>
  <text
     x="112.45673"
     y="-41.932384"
     font-size="3.00"
     xml:space="preserve"
     id="text116-8"
     style="font-size:3px;font-weight:normal;text-anchor:start;fill:#000000;font-family:'Comic Sans MS, sans-serif'"><tspan
       style="font-style:normal;font-variant:normal;font-weight:normal;font-stretch:normal;font-family:Arial;-inkscape-font-specification:Arial"
       id="tspan3032-8">L</tspan></text>
  <text
     x="83.692337"
     y="-11.630266"
     font-size="3.00"
     xml:space="preserve"
     id="text116-89"
     style="font-size:3px;font-weight:normal;text-anchor:start;fill:#000000;font-family:'Comic Sans MS, sans-serif'"><tspan
       style="font-style:normal;font-variant:normal;font-weight:normal;font-stretch:normal;font-family:Arial;-inkscape-font-specification:Arial"
       id="tspan3032-7">L</tspan></text>
  <text
     x="126.80441"
     y="-27.420542"
     font-size="3.00"
     xml:space="preserve"
     id="text118-7"
     style="font-size:3px;font-weight:normal;text-anchor:start;fill:#000000;font-family:'Comic Sans MS, sans-serif'"><tspan
       style="font-style:normal;font-variant:normal;font-weight:normal;font-stretch:normal;font-family:Arial;-inkscape-font-specification:Arial"
       id="tspan3030-6">F</tspan></text>
  <text
     x="97.544716"
     y="1.5719738"
     font-size="3.00"
     xml:space="preserve"
     id="text118-4"
     style="font-size:3px;font-weight:normal;text-anchor:start;fill:#000000;font-family:'Comic Sans MS, sans-serif'"><tspan
       style="font-style:normal;font-variant:normal;font-weight:normal;font-stretch:normal;font-family:Arial;-inkscape-font-specification:Arial"
       id="tspan3030-3">F</tspan></text>
  <text
     x="125.44717"
     y="-77.779213"
     font-size="3.00"
     xml:space="preserve"
     id="text118-0"
     style="font-size:3px;font-weight:normal;text-anchor:start;fill:#000000;font-family:'Comic Sans MS, sans-serif'"><tspan
       style="font-style:normal;font-variant:normal;font-weight:normal;font-stretch:normal;font-family:Arial;-inkscape-font-specification:Arial"
       id="tspan3030-30">F</tspan></text>
  <path
     style="fill:none;stroke:#000000;stroke-width:0.33866668;stroke-linecap:round;stroke-linejoin:round;stroke-miterlimit:10;stroke-opacity:1;stroke-dasharray:1.35466676, 1.35466676;stroke-dashoffset:0;marker-end:url(#DotL)"
     d="m 61.796174,-66.955424 c 2.253626,-2.072042 5.227537,-4.122371 7.308067,-1.875314 0.98205,0.89697 1.286267,2.511573 0.940834,3.726703 -0.714395,1.518146 -1.418033,1.317782 -2.634608,2.4953"
     id="path4124"
     inkscape:connector-curvature="0"
     sodipodi:nodetypes="cccc" />
  <path
     style="fill:none;stroke:#000000;stroke-width:0.33866668;stroke-linecap:round;stroke-linejoin:round;stroke-miterlimit:10;stroke-opacity:1;stroke-dasharray:2.03200014, 2.03200014;stroke-dashoffset:0;marker-end:url(#TriangleInL)"
     d="m 80.11106,-85.942651 c 0.562047,-1.244179 1.418613,-2.354149 2.479666,-3.213244 0.948326,-0.767824 2.096328,-1.345177 3.315285,-1.400099 0.609479,-0.02746 1.228309,0.07851 1.781033,0.336799 0.552724,0.258293 1.036778,0.671842 1.351428,1.194541 0.270742,0.449758 0.412291,0.971616 0.439985,1.495845 0.02769,0.524229 -0.05597,1.050979 -0.212013,1.552211 -0.335361,1.077227 -1.012705,2.045176 -1.909867,2.729271"
     id="path4340"
     inkscape:path-effect="#path-effect4342"
     inkscape:original-d="m 80.11106,-85.942651 c 0.428263,-0.864536 1.259434,-2.628914 2.479666,-3.213244 1.938855,-0.928455 4.886978,-1.346996 6.447746,0.131241 0.739733,0.700616 0.497729,2.065559 0.227972,3.048056 -0.29399,1.070755 -1.071844,2.333507 -1.909867,2.729271"
     inkscape:connector-curvature="0"
     sodipodi:nodetypes="caaac" />
  <path
     style="font-weight:normal;fill:none;stroke:#000000;stroke-width:0.35616446;stroke-linecap:round;stroke-linejoin:round;stroke-miterlimit:10;stroke-opacity:1;stroke-dasharray:1.42465788, 1.42465788;stroke-dashoffset:0;marker-end:url(#DotL);font-family:Times New Roman"
     d="m 116.97943,-65.329692 c 1.1957,-1.018966 2.32283,-2.458823 3.60232,-3.170572 1.48206,-0.465232 3.3212,-0.473383 4.78523,-0.356715 1.23355,0.202474 2.02252,0.886382 2.64841,2.086653 0.49009,1.618043 0.12453,2.772965 -0.26455,4.065672 -0.36868,0.987031 -0.70825,1.23612 -1.68571,1.58763 -1.11764,0.462531 -2.44683,0.449046 -3.67503,0.662813"
     id="path4124-6"
     inkscape:connector-curvature="0"
     sodipodi:nodetypes="ccccccc" />
  <polygon
     points="50.36,-34.82 49.45,-33.75 49.45,-33.75 52.04,-32.47 "
     id="polygon64-6"
     style="font-weight:normal;fill:#ffffff;fill-opacity:1;fill-rule:nonzero;stroke:#000000;stroke-width:0.30000222;stroke-linecap:butt;stroke-miterlimit:10;stroke-dasharray:none;font-family:Times New Roman"
     transform="matrix(1.6982348,0.55816087,-0.54557333,1.6599364,-39.505378,-21.492748)" />
  <polygon
     points="49.45,-33.75 49.45,-33.75 52.04,-32.47 50.36,-34.82 "
     id="polygon64-6-0"
     style="font-weight:normal;fill:#ffffff;fill-opacity:1;fill-rule:nonzero;stroke:#000000;stroke-width:0.30000222;stroke-linecap:butt;stroke-miterlimit:10;stroke-dasharray:none;font-family:Times New Roman"
     transform="matrix(-0.57655543,1.6920783,-1.6539186,-0.56355307,79.702873,-156.10366)" />
  <polygon
     points="52.04,-32.47 50.36,-34.82 49.45,-33.75 49.45,-33.75 "
     id="polygon64-6-5"
     style="font-weight:normal;fill:#ffffff;fill-opacity:1;fill-rule:nonzero;stroke:#000000;stroke-width:0.30000222;stroke-linecap:butt;stroke-miterlimit:10;stroke-dasharray:none;font-family:Times New Roman"
     transform="matrix(1.3234829,1.3352342,-1.2866483,1.187374,-29.710187,-95.736888)" />
</svg>
