<?xml version="1.0" encoding="UTF-8" standalone="no"?>
<svg
   xmlns:dc="http://purl.org/dc/elements/1.1/"
   xmlns:cc="http://creativecommons.org/ns#"
   xmlns:rdf="http://www.w3.org/1999/02/22-rdf-syntax-ns#"
   xmlns:svg="http://www.w3.org/2000/svg"
   xmlns="http://www.w3.org/2000/svg"
   xmlns:sodipodi="http://sodipodi.sourceforge.net/DTD/sodipodi-0.dtd"
   xmlns:inkscape="http://www.inkscape.org/namespaces/inkscape"
   version="1.1"
   width="500.19901"
   height="371.9007"
   viewBox="10.64 -100 141.16729 104.95864"
   stroke-miterlimit="10"
   style="font-weight:normal;fill-rule:nonzero;stroke-miterlimit:10;font-family:Times New Roman"
   id="svg2"
   inkscape:version="0.48.3.1 r9886"
   sodipodi:docname="CNcircuit-detailed.svg">
  <metadata
     id="metadata200">
    <rdf:RDF>
      <cc:Work
         rdf:about="">
        <dc:format>image/svg+xml</dc:format>
        <dc:type
           rdf:resource="http://purl.org/dc/dcmitype/StillImage" />
        <dc:title />
      </cc:Work>
    </rdf:RDF>
  </metadata>
  <sodipodi:namedview
     pagecolor="#ffffff"
     bordercolor="#666666"
     borderopacity="1"
     objecttolerance="10"
     gridtolerance="10"
     guidetolerance="10"
     inkscape:pageopacity="0"
     inkscape:pageshadow="2"
     inkscape:window-width="1440"
     inkscape:window-height="850"
     id="namedview198"
     showgrid="false"
     inkscape:zoom="1.8671818"
     inkscape:cx="248.85625"
     inkscape:cy="179.95033"
     inkscape:window-x="0"
     inkscape:window-y="25"
     inkscape:window-maximized="1"
     inkscape:current-layer="svg2"
     inkscape:snap-global="true"
     fit-margin-top="0"
     fit-margin-left="0"
     fit-margin-right="0"
     fit-margin-bottom="0" />
  <!--Created by TpX drawing tool-->
  <defs
     id="defs4">
    <marker
       inkscape:stockid="TriangleInL"
       orient="auto"
       refY="0"
       refX="0"
       id="TriangleInL"
       style="overflow:visible">
      <path
         id="path4481"
         d="m 5.77,0 -8.65,5 0,-10 8.65,5 z"
         style="fill-rule:evenodd;stroke:#000000;stroke-width:1pt;marker-start:none"
         transform="scale(-0.8,-0.8)"
         inkscape:connector-curvature="0" />
    </marker>
    <marker
       inkscape:stockid="Arrow2Lstart"
       orient="auto"
       refY="0"
       refX="0"
       id="Arrow2Lstart"
       style="overflow:visible">
      <path
         id="path4365"
         style="font-size:12px;fill-rule:evenodd;stroke-width:0.625;stroke-linejoin:round"
         d="M 8.7185878,4.0337352 -2.2072895,0.01601326 8.7185884,-4.0017078 c -1.7454984,2.3720609 -1.7354408,5.6174519 -6e-7,8.035443 z"
         transform="matrix(1.1,0,0,1.1,1.1,0)"
         inkscape:connector-curvature="0" />
    </marker>
    <inkscape:path-effect
       effect="spiro"
       id="path-effect4342"
       is_visible="true" />
    <marker
       inkscape:stockid="Arrow1Lend"
       orient="auto"
       refY="0"
       refX="0"
       id="Arrow1Lend"
       style="overflow:visible">
      <path
         id="path3968"
         d="M 0,0 5,-5 -12.5,0 5,5 0,0 z"
         style="fill-rule:evenodd;stroke:#000000;stroke-width:1pt;marker-start:none"
         transform="matrix(-0.8,0,0,-0.8,-10,0)"
         inkscape:connector-curvature="0" />
    </marker>
    <marker
       inkscape:stockid="Arrow1Lstart"
       orient="auto"
       refY="0"
       refX="0"
       id="Arrow1Lstart"
       style="overflow:visible">
      <path
         id="path3965"
         d="M 0,0 5,-5 -12.5,0 5,5 0,0 z"
         style="fill-rule:evenodd;stroke:#000000;stroke-width:1pt;marker-start:none"
         transform="matrix(0.8,0,0,0.8,10,0)"
         inkscape:connector-curvature="0" />
    </marker>
    <marker
       inkscape:stockid="DotL"
       orient="auto"
       refY="0"
       refX="0"
       id="DotL"
       style="overflow:visible">
      <path
         id="path4027"
         d="m -2.5,-1 c 0,2.76 -2.24,5 -5,5 -2.76,0 -5,-2.24 -5,-5 0,-2.76 2.24,-5 5,-5 2.76,0 5,2.24 5,5 z"
         style="fill-rule:evenodd;stroke:#000000;stroke-width:1pt;marker-start:none;marker-end:none"
         transform="matrix(0.8,0,0,0.8,5.92,0.8)"
         inkscape:connector-curvature="0" />
    </marker>
    <inkscape:perspective
       sodipodi:type="inkscape:persp3d"
       inkscape:vp_x="0 : 163.94882 : 1"
       inkscape:vp_y="0 : 1000 : 0"
       inkscape:vp_z="464.77557 : 163.94882 : 1"
       inkscape:persp3d-origin="232.38779 : 109.29921 : 1"
       id="perspective202" />
    <inkscape:perspective
       id="perspective3826"
       inkscape:persp3d-origin="0.5 : 0.33333333 : 1"
       inkscape:vp_z="1 : 0.5 : 1"
       inkscape:vp_y="0 : 1000 : 0"
       inkscape:vp_x="0 : 0.5 : 1"
       sodipodi:type="inkscape:persp3d" />
    <inkscape:perspective
       id="perspective3826-3"
       inkscape:persp3d-origin="0.5 : 0.33333333 : 1"
       inkscape:vp_z="1 : 0.5 : 1"
       inkscape:vp_y="0 : 1000 : 0"
       inkscape:vp_x="0 : 0.5 : 1"
       sodipodi:type="inkscape:persp3d" />
    <inkscape:perspective
       id="perspective3826-7"
       inkscape:persp3d-origin="0.5 : 0.33333333 : 1"
       inkscape:vp_z="1 : 0.5 : 1"
       inkscape:vp_y="0 : 1000 : 0"
       inkscape:vp_x="0 : 0.5 : 1"
       sodipodi:type="inkscape:persp3d" />
    <inkscape:perspective
       id="perspective3878"
       inkscape:persp3d-origin="0.5 : 0.33333333 : 1"
       inkscape:vp_z="1 : 0.5 : 1"
       inkscape:vp_y="0 : 1000 : 0"
       inkscape:vp_x="0 : 0.5 : 1"
       sodipodi:type="inkscape:persp3d" />
    <inkscape:perspective
       id="perspective3878-6"
       inkscape:persp3d-origin="0.5 : 0.33333333 : 1"
       inkscape:vp_z="1 : 0.5 : 1"
       inkscape:vp_y="0 : 1000 : 0"
       inkscape:vp_x="0 : 0.5 : 1"
       sodipodi:type="inkscape:persp3d" />
    <inkscape:perspective
       id="perspective3924"
       inkscape:persp3d-origin="0.5 : 0.33333333 : 1"
       inkscape:vp_z="1 : 0.5 : 1"
       inkscape:vp_y="0 : 1000 : 0"
       inkscape:vp_x="0 : 0.5 : 1"
       sodipodi:type="inkscape:persp3d" />
    <inkscape:perspective
       id="perspective3948"
       inkscape:persp3d-origin="0.5 : 0.33333333 : 1"
       inkscape:vp_z="1 : 0.5 : 1"
       inkscape:vp_y="0 : 1000 : 0"
       inkscape:vp_x="0 : 0.5 : 1"
       sodipodi:type="inkscape:persp3d" />
    <marker
       inkscape:stockid="DotL"
       orient="auto"
       refY="0"
       refX="0"
       id="DotL-0"
       style="overflow:visible">
      <path
         id="path4027-5"
         d="m -2.5,-1 c 0,2.76 -2.24,5 -5,5 -2.76,0 -5,-2.24 -5,-5 0,-2.76 2.24,-5 5,-5 2.76,0 5,2.24 5,5 z"
         style="fill-rule:evenodd;stroke:#000000;stroke-width:1pt;marker-start:none;marker-end:none"
         transform="matrix(0.8,0,0,0.8,5.92,0.8)"
         inkscape:connector-curvature="0" />
    </marker>
  </defs>
  <polyline
     points="19.79,-20.07 139.81,-20.21"
     id="polyline6"
     style="fill:none;stroke:#000000;stroke-width:0.30000001"
     transform="translate(5.1204732,1.4868104)" />
  <circle
     cx="74.910004"
     cy="-76.160004"
     r="7.02"
     id="circle8"
     sodipodi:cx="74.910004"
     sodipodi:cy="-76.160004"
     sodipodi:rx="7.02"
     sodipodi:ry="7.02"
     style="fill:none;stroke:#000000;stroke-width:0.30000001"
     transform="translate(5.1204732,1.4868104)" />
  <circle
     cx="107.92"
     cy="-57.279999"
     r="7.02"
     id="circle10"
     sodipodi:cx="107.92"
     sodipodi:cy="-57.279999"
     sodipodi:rx="7.02"
     sodipodi:ry="7.02"
     style="fill:none;stroke:#000000;stroke-width:0.30000001"
     transform="translate(8.5071402,1.4868104)" />
  <circle
     cx="54.900002"
     cy="-56.16"
     r="7.02"
     id="circle12"
     sodipodi:cx="54.900002"
     sodipodi:cy="-56.16"
     sodipodi:rx="7.02"
     sodipodi:ry="7.02"
     style="fill:none;stroke:#000000;stroke-width:0.30000001"
     transform="translate(5.1204732,1.4868104)" />
  <circle
     cx="45.389999"
     cy="-38.259998"
     r="4.1500001"
     id="circle14"
     sodipodi:cx="45.389999"
     sodipodi:cy="-38.259998"
     sodipodi:rx="4.1500001"
     sodipodi:ry="4.1500001"
     style="fill:none;stroke:#000000;stroke-width:0.30000001"
     transform="matrix(1.4672534,0,0,1.0749263,-14.149054,4.0425464)" />
  <path
     d="m 81.140474,-18.583191 a 0,0 0 0 0 0,0"
     id="path16"
     inkscape:connector-curvature="0"
     style="fill:none;stroke:#000000;stroke-width:0.30000001" />
  <path
     d="m 80.170474,-18.583191 c 1.41,-8.190003 1.44,-15.380003 1.53,-23.360003 0.09,-8.53 -0.24,-15.99 -1.39,-24.62"
     id="path18"
     inkscape:connector-curvature="0"
     style="fill:#ffffff;stroke:#000000;stroke-width:0.30000001" />
  <text
     x="76.974571"
     y="-73.215485"
     font-size="5.00"
     xml:space="preserve"
     id="text26"
     style="font-size:5px;text-anchor:start;fill:#000000;font-family:'Comic Sans MS, sans-serif'"><tspan
       style="font-style:normal;font-variant:normal;font-weight:normal;font-stretch:normal;font-family:Arial;-inkscape-font-specification:Arial"
       id="tspan3016">TS</tspan></text>
  <text
     x="56.51096"
     y="-53.277771"
     font-size="5.00"
     xml:space="preserve"
     id="text28"
     style="font-size:5px;text-anchor:start;fill:#000000;font-family:'Comic Sans MS, sans-serif'"><tspan
       style="font-style:normal;font-variant:normal;font-weight:normal;font-stretch:normal;font-family:Arial;-inkscape-font-specification:Arial"
       id="tspan3018">DS</tspan></text>
  <text
     x="112.99944"
     y="-54.233673"
     font-size="5.00"
     xml:space="preserve"
     id="text30"
     style="font-size:5px;text-anchor:start;fill:#000000;font-family:'Comic Sans MS, sans-serif'"><tspan
       style="font-style:normal;font-variant:normal;font-weight:normal;font-stretch:normal;font-family:Arial;-inkscape-font-specification:Arial"
       id="tspan3020">TV</tspan></text>
  <text
     x="46.852699"
     y="-35.510971"
     font-size="5.00"
     xml:space="preserve"
     id="text32"
     style="font-size:5px;text-anchor:start;fill:#000000;font-family:'Comic Sans MS, sans-serif'"><tspan
       style="font-style:normal;font-variant:normal;font-weight:normal;font-stretch:normal;font-family:Arial;-inkscape-font-specification:Arial"
       id="tspan3022">GLG</tspan></text>
  <circle
     cx="83.300003"
     cy="-75.610001"
     r="0.69999999"
     id="circle36"
     sodipodi:cx="83.300003"
     sodipodi:cy="-75.610001"
     sodipodi:rx="0.69999999"
     sodipodi:ry="0.69999999"
     style="fill:#ffffff;stroke:#000000;stroke-width:0.30000001"
     transform="translate(5.1204732,1.4868104)" />
  <path
     d="m 112.8924,-61.894764 c -2.15212,-3.23371 -5.10556,-6.00112 -8.64282,-8.07921 -4.888041,-2.85864 -10.646093,-4.29809 -16.495725,-4.11563"
     id="path38"
     style="fill:none;stroke:#000000;stroke-width:0.93120909;stroke-miterlimit:10;stroke-dasharray:none"
     inkscape:connector-curvature="0" />
  <circle
     cx="84"
     cy="-75.550003"
     r="1.4"
     id="circle40"
     sodipodi:cx="84"
     sodipodi:cy="-75.550003"
     sodipodi:rx="1.4"
     sodipodi:ry="1.4"
     style="fill:#000000;stroke:#000000;stroke-width:0.30000001"
     transform="translate(5.1204732,1.4868104)" />
  <path
     d="m 60.702698,-61.677634 c 0.57351,-2.41857 2.172694,-4.48326 3.16997,-5.40818 1.87085,-1.7351 5.19941,-2.80227 6.76003,-4.10182"
     id="path42"
     style="fill:none;stroke:#000000;stroke-width:0.8644467;stroke-miterlimit:10;stroke-dasharray:none"
     inkscape:connector-curvature="0"
     sodipodi:nodetypes="csc" />
  <circle
     cx="66.75"
     cy="-71.150002"
     r="1.4"
     id="circle44"
     sodipodi:cx="66.75"
     sodipodi:cy="-71.150002"
     sodipodi:rx="1.4"
     sodipodi:ry="1.4"
     style="fill:#000000;stroke:#000000;stroke-width:0.30000001"
     transform="translate(4.5560286,-0.20652362)" />
  <path
     d="m 67.144546,-55.063934 c 6.899318,-2.0602 14.043944,-3.37619 21.301003,-3.93889 6.183833,-0.47194 12.418771,-0.39026 18.582161,0.25412"
     id="path46"
     style="fill:none;stroke:#000000;stroke-width:0.83259118;stroke-miterlimit:10;stroke-dasharray:none"
     inkscape:connector-curvature="0" />
  <circle
     cx="99.669998"
     cy="-62.450001"
     r="1.4"
     id="circle48"
     sodipodi:cx="99.669998"
     sodipodi:cy="-62.450001"
     sodipodi:rx="1.4"
     sodipodi:ry="1.4"
     transform="translate(7.0914046,3.4731564)"
     style="fill:#000000;stroke:#000000;stroke-width:0.30000001" />
  <path
     d="m 50.230474,-41.103194 c -3.59,-5.45 -4.61,-12.2 -2.8,-18.47 3.11,-10.72 13.36,-17.75 24.48,-16.78"
     id="path50"
     style="fill:none;stroke:#000000;stroke-width:0.8644467;stroke-miterlimit:10;stroke-dasharray:none"
     inkscape:connector-curvature="0" />
  <polygon
     points="65.47,-79.32 65.32,-76.52 66.72,-76.45 66.87,-79.24 66.87,-79.24 "
     id="polygon52"
     style="fill:#000000;stroke:#000000;stroke-width:0.30000001"
     transform="translate(5.1204732,1.4868104)" />
  <path
     d="m 48.130474,-45.016734 c -1.08,-2.10166 -0.92,-4.67619 0.42,-6.60972 0.73,-1.05082 1.76,-1.82844 2.94,-2.20674"
     id="path54"
     style="fill:none;stroke:#000000;stroke-width:0.6257686;stroke-miterlimit:10;stroke-dasharray:none"
     inkscape:connector-curvature="0" />
  <polygon
     points="44.51,-56 45.7,-53.46 46.96,-54.06 45.78,-56.59 45.78,-56.59 "
     id="polygon56"
     style="fill:#000000;stroke:#000000;stroke-width:0.30000001"
     transform="translate(5.1204732,1.4868104)" />
  <path
     d="m 64.920474,-18.863191 c 1.32,-3.120003 3.81,-6.710003 4.16,-10.080003 0.56,-5.47 0.39,-7.76 -1.64,-12.86"
     id="path58"
     style="fill:none;stroke:#000000;stroke-width:0.8926689;stroke-miterlimit:10;stroke-dasharray:none"
     inkscape:connector-curvature="0" />
  <text
     x="78.050476"
     y="-14.393188"
     font-size="5.00"
     xml:space="preserve"
     id="text60"
     style="font-size:5px;text-anchor:start;fill:#000000;font-family:'Comic Sans MS, sans-serif'"><tspan
       style="font-style:normal;font-variant:normal;font-weight:normal;font-stretch:normal;font-family:Arial;-inkscape-font-specification:Arial"
       id="tspan3024">CF</tspan></text>
  <path
     d="m 68.395491,-18.798174 c -1.041832,-2.04502 -2.168465,-3.98822 -3.392012,-5.8211 -1.241719,-1.85834 -3.222412,-4.34461 -4.633732,-5.95687"
     id="path62"
     style="fill:none;stroke:#000000;stroke-width:0.68247414;stroke-miterlimit:10;stroke-dasharray:none"
     inkscape:connector-curvature="0" />
  <polygon
     points="49.45,-33.75 52.04,-32.47 50.36,-34.82 49.45,-33.75 "
     id="polygon64"
     style="fill:#ffffff;fill-opacity:1;stroke:#000000;stroke-width:0.30000222;stroke-linecap:butt;stroke-miterlimit:10;stroke-dasharray:none"
     transform="matrix(1.7876087,0,0,1.7472949,-31.819124,27.074875)" />
  <path
     d="m 91.820938,-18.872727 c -6.379595,-2.921387 -12.920699,-5.464927 -19.58742,-7.602977 -3.562165,-1.15197 -7.537075,-2.35923 -11.171021,-3.2808"
     id="path66"
     style="fill:none;stroke:#000000;stroke-width:0.81174034;stroke-miterlimit:10;stroke-dasharray:none"
     inkscape:connector-curvature="0" />
  <path
     d="m 99.750474,-18.913194 c -5.89,-2.37 -13.09,-7.52 -18.18,-10.86 -7.88,-5.18 -12.77,-8.81 -17.49,-16.98"
     id="path68"
     style="fill:#ffffff;stroke:#000000;stroke-width:0.8644467;stroke-miterlimit:10;stroke-dasharray:none"
     inkscape:connector-curvature="0" />
  <text
     x="28.609049"
     y="-4.4422455"
     font-size="5.00"
     xml:space="preserve"
     id="text72"
     style="font-size:5px;text-anchor:start;fill:#000000;font-family:'Comic Sans MS, sans-serif'"><tspan
       style="font-style:normal;font-variant:normal;font-weight:normal;font-stretch:normal;font-family:Arial;-inkscape-font-specification:Arial"
       id="tspan3042">Auditory Nerve Fibres </tspan></text>
  <path
     d="m 79.892352,-81.904594 c -0.135074,-1.87045 1.62492,-6.44892 2.837742,-8.03839 1.197194,-1.53202 7.432967,-3.70889 9.705734,-4.37866"
     id="path74"
     sodipodi:nodetypes="ccc"
     style="fill:none;stroke:#000000;stroke-width:0.30281517;stroke-miterlimit:10;stroke-dasharray:none;marker-start:none;marker-end:url(#Arrow1Lend)"
     inkscape:connector-curvature="0" />
  <text
     x="60.550476"
     y="-96.359863"
     font-size="5.00"
     xml:space="preserve"
     id="text78"
     style="font-size:5px;text-anchor:start;fill:#000000;font-family:'Comic Sans MS, sans-serif'"><tspan
       style="font-style:normal;font-variant:normal;font-weight:normal;font-stretch:normal;font-family:Arial;-inkscape-font-specification:Arial"
       id="tspan3014">To Inferior Colliculus</tspan></text>
  <text
     x="18.437672"
     y="-89.180954"
     font-size="5.00"
     xml:space="preserve"
     id="text84"
     style="font-size:5px;text-anchor:start;fill:#000000;font-family:'Comic Sans MS, sans-serif'"><tspan
       style="font-style:normal;font-variant:normal;font-weight:normal;font-stretch:normal;font-family:Arial;-inkscape-font-specification:Arial"
       id="tspan3012">To contra. CN</tspan></text>
  <polyline
     points="16.96,-72.52 16.96,-58.49"
     id="polyline86"
     transform="matrix(0.91630304,0,0,0.88428202,-2.2722968,-11.467696)"
     style="fill:none;stroke:#000000;stroke-width:0.30000001" />
  <polygon
     points="16.26,-71.12 17.66,-71.12 16.96,-72.52 16.96,-72.52 "
     id="polygon88"
     transform="matrix(0.91630304,0,0,0.88428202,-2.2722968,-11.467696)"
     style="fill:#000000;stroke:#000000;stroke-width:0.30000001" />
  <polyline
     points="31.23,-58.73 16.99,-58.72"
     id="polyline90"
     transform="matrix(0.91630304,0,0,0.88428202,-2.2722968,-11.467696)"
     style="fill:none;stroke:#000000;stroke-width:0.30000001" />
  <polygon
     points="29.83,-59.42 29.83,-58.02 31.23,-58.73 31.23,-58.73 "
     id="polygon92"
     transform="matrix(0.91630304,0,0,0.88428202,-2.2722968,-11.467696)"
     style="fill:#000000;stroke:#000000;stroke-width:0.30000001" />
  <path
     d="m 14.575588,-73.262614 c 1.642752,1.69216 1.876468,1.56399 3.168455,2.65166 0.329869,0.27413 1.910798,1.45494 2.671329,1.33114 1.997541,-0.32719 2.070845,-2.6993 2.171638,-4.55629"
     id="path94"
     sodipodi:nodetypes="cccc"
     style="fill:none;stroke:#000000;stroke-width:0.27004507"
     inkscape:connector-curvature="0" />
  <text
     x="10.254647"
     y="-75.404091"
     font-size="3.00"
     xml:space="preserve"
     id="text96"
     style="font-size:2.70045042px;text-anchor:start;fill:#000000;font-family:'Comic Sans MS, sans-serif'"
     transform="scale(1.0179447,0.98237164)"><tspan
       style="font-style:normal;font-variant:normal;font-weight:normal;font-stretch:normal;font-family:Arial;-inkscape-font-specification:Arial"
       id="tspan3026">L</tspan></text>
  <text
     x="24.459015"
     y="-60.884697"
     font-size="3.00"
     xml:space="preserve"
     id="text98"
     style="font-size:2.70045042px;text-anchor:start;fill:#000000;font-family:'Comic Sans MS, sans-serif'"
     transform="scale(1.0179447,0.98237164)"><tspan
       style="font-style:normal;font-variant:normal;font-weight:normal;font-stretch:normal;font-family:Arial;-inkscape-font-specification:Arial"
       id="tspan3028">F</tspan></text>
  <polyline
     points="25.85,-60.92 34.87,-60.92"
     id="polyline100"
     transform="matrix(1.3885584,0,0,1.2719192,-7.8887828,13.509185)"
     style="fill:none;stroke:#000000;stroke-width:0.15000001" />
  <polyline
     points="27.29,-65.63 27.27,-60.91"
     id="polyline102"
     transform="matrix(1.3885584,0,0,1.2719192,-7.8887828,13.509185)"
     style="fill:none;stroke:#000000;stroke-width:0.15000001" />
  <polyline
     points="27.85,-64.96 27.85,-60.95"
     id="polyline104"
     transform="matrix(1.3885584,0,0,1.2719192,-7.8887828,13.509185)"
     style="fill:none;stroke:#000000;stroke-width:0.15000001" />
  <polyline
     points="21.29,-43.04 21.29,-29.01"
     id="polyline106"
     transform="translate(-6.1684158,2.0512544)"
     style="fill:none;stroke:#000000;stroke-width:0.30000001" />
  <polygon
     points="21.99,-41.64 21.29,-43.04 21.29,-43.04 20.59,-41.64 "
     id="polygon108"
     transform="translate(-6.1684158,2.0512544)"
     style="fill:#000000;stroke:#000000;stroke-width:0.30000001" />
  <polyline
     points="35.56,-29.25 21.32,-29.24"
     id="polyline110"
     transform="translate(-6.1684158,2.0512544)"
     style="fill:none;stroke:#000000;stroke-width:0.30000001" />
  <polygon
     points="34.16,-28.55 35.56,-29.25 35.56,-29.25 34.16,-29.95 "
     id="polygon112"
     transform="translate(-6.1684158,2.0512544)"
     style="fill:#000000;stroke:#000000;stroke-width:0.30000001" />
  <path
     d="m 16.904326,-39.216014 c 1.907458,2.382 3.065175,2.6955 4.041907,4.53607 1.251343,1.85176 1.208734,3.76662 2.045208,3.58241 1.530604,-2.37498 2.27763,-5.03951 2.388488,-7.80269"
     id="path114"
     style="fill:none;stroke:#000000;stroke-width:0.34546447"
     sodipodi:nodetypes="cccc"
     inkscape:connector-curvature="0" />
  <text
     x="10.801583"
     y="-39.268745"
     font-size="3.00"
     xml:space="preserve"
     id="text116"
     style="font-size:3px;text-anchor:start;fill:#000000;font-family:'Comic Sans MS, sans-serif'"><tspan
       style="font-style:normal;font-variant:normal;font-weight:normal;font-stretch:normal;font-family:Arial;-inkscape-font-specification:Arial"
       id="tspan3032">L</tspan></text>
  <text
     x="26.5816"
     y="-23.138741"
     font-size="3.00"
     xml:space="preserve"
     id="text118"
     style="font-size:3px;text-anchor:start;fill:#000000;font-family:'Comic Sans MS, sans-serif'"><tspan
       style="font-style:normal;font-variant:normal;font-weight:normal;font-stretch:normal;font-family:Arial;-inkscape-font-specification:Arial"
       id="tspan3030">F</tspan></text>
  <polyline
     points="30.18,-31.44 39.20,-31.44"
     id="polyline120"
     transform="matrix(1.393938,0,0,0.72525473,-10.154828,-6.0227026)"
     style="fill:none;stroke:#000000;stroke-width:0.15000001" />
  <path
     style="font-size:medium;font-style:normal;font-variant:normal;font-weight:normal;font-stretch:normal;text-indent:0;text-align:start;text-decoration:none;line-height:normal;letter-spacing:normal;word-spacing:normal;text-transform:none;direction:ltr;block-progression:tb;writing-mode:lr-tb;text-anchor:start;baseline-shift:baseline;color:#000000;fill:#000000;fill-opacity:1;fill-rule:nonzero;stroke:none;stroke-width:0.15000001;marker:none;visibility:visible;display:inline;overflow:visible;enable-background:accumulate;font-family:Times New Roman;-inkscape-font-specification:Sans"
     d="m 35.453081,-30.046764 -0.392045,0.0227 -0.08712,0 0,0.0227 -0.35871,0.0675 -0.266683,-0.54858 -0.171582,-0.18626 -0.122703,0.74285 -0.212897,1.01241 0.217803,0.0227 0.537443,0.0145 c 0.417463,0.0904 0.404607,0.0267 0.756074,0.0472 l 0.332939,0.0182 0.266684,-0.0436 c 0.02904,0 0.242133,0 0.271173,0 l 1.407651,-0.008 0.725813,-0.0213 0.445416,0.0337 0.237839,-0.0182 0.380992,0.0182 1.294583,-0.003 0.8072,-0.008 0.421893,0.0307 0.283646,-0.0591 c 0.145516,0.0116 0.292216,0.002 0.437852,-0.008 l 0.06135,0.052 0.217803,0 0.130681,0 -0.04356,-0.068 -0.174242,-0.43062 0,-0.068 -0.217803,-0.43062 0,-0.0227 -0.08712,-0.0453 0,-0.0227 -0.08712,-0.0227 -0.871211,0 -2.526512,0.13598 -0.261364,-0.13598 -0.04356,-0.0227 -0.08712,0.0227 -1.045454,0.11332 -0.04356,0 -1.655301,-0.0227 -0.392045,-0.18132 -0.08712,0 z"
     id="polyline122"
     inkscape:connector-curvature="0"
     sodipodi:nodetypes="ccccccccccccccccccccccccccccccccccccccccccccccc" />
  <text
     x="29.124443"
     y="-35.391342"
     font-size="3.00"
     xml:space="preserve"
     id="text124"
     style="font-size:3px;text-anchor:start;fill:#000000;font-family:'Times New Roman, serif'"><tspan
       style="font-size:2.5400002px;font-style:normal;font-variant:normal;font-weight:normal;font-stretch:normal;font-family:Arial;-inkscape-font-specification:Arial"
       id="tspan3860">Chopper/</tspan></text>
  <text
     x="25.986795"
     y="-32.912216"
     font-size="3.00"
     xml:space="preserve"
     style="font-size:3px;text-anchor:start;fill:#000000;font-family:'Times New Roman, serif'"
     id="text4116"><tspan
       style="font-size:2.5400002px;font-style:normal;font-variant:normal;font-weight:normal;font-stretch:normal;font-family:Arial;-inkscape-font-specification:Arial"
       id="tspan4118">Pause-Build/</tspan></text>
  <text
     x="32.145885"
     y="-30.742973"
     font-size="3.00"
     xml:space="preserve"
     style="font-size:3px;text-anchor:start;fill:#000000;font-family:'Times New Roman, serif'"
     id="text4120"><tspan
       style="font-size:2.5400002px;font-style:normal;font-variant:normal;font-weight:normal;font-stretch:normal;font-family:Arial;-inkscape-font-specification:Arial"
       id="tspan4122">Unusual</tspan></text>
  <polyline
     points="104.40,-47.21 104.38,-33.41"
     id="polyline126"
     transform="translate(16.409359,5.4379214)"
     style="fill:none;stroke:#000000;stroke-width:0.30000001" />
  <polygon
     points="104.4,-47.21 104.4,-47.21 103.7,-45.81 105.1,-45.8 "
     id="polygon128"
     transform="translate(16.409359,5.4379214)"
     style="fill:#000000;stroke:#000000;stroke-width:0.30000001" />
  <polyline
     points="118.66,-33.41 104.43,-33.40"
     id="polyline130"
     transform="translate(16.409359,5.4379214)"
     style="fill:none;stroke:#000000;stroke-width:0.30000001" />
  <polygon
     points="118.66,-33.41 118.66,-33.41 117.26,-34.11 117.26,-32.71 "
     id="polygon132"
     transform="translate(16.409359,5.4379214)"
     style="fill:#000000;stroke:#000000;stroke-width:0.30000001" />
  <path
     d="m 122.77931,-39.552084 c 1.3,2.54 2.83,2.34 3.6,4.05 0.24,0.53 1.25,6.39 1.59,5.61 0.63,-1.42 0.93,-7.99 1.05,-10.1"
     id="path134"
     style="fill:none;stroke:#000000;stroke-width:0.30000001"
     inkscape:connector-curvature="0" />
  <polyline
     points="114.50,-35.77 123.53,-35.77"
     id="polyline136"
     transform="matrix(1.3653486,0,0,1.2079896,-18.076191,15.183797)"
     style="fill:none;stroke:#000000;stroke-width:0.15000001" />
  <path
     d="m 121.47931,-39.902084 c 0.22,1.12 0.83,3.64 1.55,4.52 0.99,1.23 2.36,2.08 3.9,2.44"
     id="path138"
     style="fill:none;stroke:#000000;stroke-width:0.30000001"
     inkscape:connector-curvature="0" />
  <polygon
     points="110.01,-40.86 109.83,-43 109.6,-45.22 108.21,-45.2 106.28,-45.2 105.03,-45.22 105.74,-43.08 106.53,-40.94 108.38,-39.31 109.43,-38.72 110.52,-38.47 110.31,-39.68 "
     id="polygon140"
     transform="translate(16.409359,5.4379214)"
     style="fill:#000000;stroke:#000000;stroke-width:0.30000001" />
  <polygon
     points="113.37,-38.7 115.21,-41.3 115.59,-44.15 115.67,-45.24 112.65,-45.28 112.19,-38.45 "
     id="polygon142"
     transform="translate(16.409359,5.4379214)"
     style="fill:#000000;stroke:#000000;stroke-width:0.30000001" />
  <path
     d="m 139.66194,-28.107324 a 6.3194511,4.3549361 0 0 0 0.60184,0 l -0.30092,-4.34506 -0.30092,4.34506 z"
     id="path144"
     style="fill:#000000;stroke:#000000;stroke-width:0.35687262"
     inkscape:connector-curvature="0" />
  <path
     d="m 141.10074,-28.122634 a 4.3008482,3.8051673 0 0 0 0.57345,0 l -0.21845,-3.80516 -0.355,3.80516 z"
     id="path146"
     style="fill:#000000;stroke:#000000;stroke-width:0.38527837"
     inkscape:connector-curvature="0" />
  <path
     d="m 142.57997,-28.279664 a 3.9048971,3.4548503 0 0 0 0.57344,0.0121 l -0.21845,-3.45486 -0.35499,3.44278 z"
     id="path148"
     style="fill:#000000;stroke:#000000;stroke-width:0.38527837"
     inkscape:connector-curvature="0" />
  <polygon
     points="122.25,-35.9 117.22,-35.9 117.22,-37.03 117.72,-37.99 118.52,-37.78 120.7,-37.82 121.79,-37.7 "
     id="polygon150"
     transform="matrix(0.98866802,0,0,0.88599567,28.025257,3.6764684)"
     style="fill:#000000;stroke:#000000;stroke-width:0.30000001" />
  <rect
     x="123.23938"
     y="-37.212074"
     width="1.8"
     height="0.5"
     id="rect152"
     style="fill:#ffffff;stroke:#000000;stroke-width:0.30000001" />
  <rect
     x="129.47934"
     y="-37.212074"
     width="1.8"
     height="0.5"
     id="rect154"
     style="fill:#ffffff;stroke:#000000;stroke-width:0.30000001" />
  <polyline
     points="91.74,-91.51 91.74,-77.48"
     id="polyline156"
     transform="translate(27.133798,-0.20652262)"
     style="fill:none;stroke:#000000;stroke-width:0.30000001" />
  <polygon
     points="91.04,-90.11 92.44,-90.11 91.74,-91.51 91.74,-91.51 "
     id="polygon158"
     transform="translate(27.133798,-0.20652262)"
     style="fill:#000000;stroke:#000000;stroke-width:0.30000001" />
  <polyline
     points="106.00,-77.71 91.77,-77.71"
     id="polyline160"
     transform="translate(27.133798,-0.20652262)"
     style="fill:none;stroke:#000000;stroke-width:0.30000001" />
  <polygon
     points="104.6,-78.41 104.61,-77.01 106,-77.71 106,-77.71 "
     id="polygon162"
     transform="translate(27.133798,-0.20652262)"
     style="fill:#000000;stroke:#000000;stroke-width:0.30000001" />
  <path
     d="m 120.8437,-89.496524 c 1.3,2.54 2.19,2.82 3.60001,4.05 0.36,0.31 1.25,6.39 1.6,5.61 0.61999,-1.42 0.92999,-7.99 1.03999,-10.1"
     id="path164"
     style="fill:none;stroke:#000000;stroke-width:0.30000001"
     inkscape:connector-curvature="0" />
  <polyline
     points="101.85,-80.08 110.87,-80.08"
     id="polyline166"
     transform="matrix(1.388342,0,0,1.3121319,-6.1734408,26.761415)"
     style="fill:none;stroke:#000000;stroke-width:0.15000001" />
  <path
     d="m 119.5437,-89.846524 c 0.22,1.12 0.83,3.64 1.55,4.52 0.99,1.23 2.36,2.08 3.90001,2.43"
     id="path168"
     style="fill:none;stroke:#000000;stroke-width:0.30000001"
     inkscape:connector-curvature="0" />
  <polygon
     points="93.08,-87.38 93.88,-85.24 95.72,-83.61 96.77,-83.02 97.86,-82.77 97.65,-83.99 97.36,-85.16 95.93,-86.13 94.68,-87.67 93.82,-89.18 93.61,-89.59 92.37,-89.52 "
     id="polygon170"
     transform="translate(27.133798,-0.20652262)"
     style="fill:#000000;stroke:#000000;stroke-width:0.30000001" />
  <polygon
     points="101.16,-83.73 102.02,-85.85 102.55,-88.55 102.62,-89.61 100,-89.58 99.53,-82.75 "
     id="polygon172"
     transform="translate(27.133798,-0.20652262)"
     style="fill:#000000;stroke:#000000;stroke-width:0.30000001" />
  <path
     d="m 136.65909,-78.419084 a 6.5668577,6.206384 0 0 0 0.51369,0 l -0.23602,-6.20638 -0.27767,6.20638 z"
     id="path174"
     style="fill:#000000;stroke:#000000;stroke-width:0.20245488"
     inkscape:connector-curvature="0" />
  <path
     d="m 137.53375,-78.405954 a 5.914337,5.589682 0 0 0 0.59698,0 l -0.26378,-5.58969 -0.3332,5.58969 z"
     id="path176"
     style="fill:#000000;stroke:#000000;stroke-width:0.20245488"
     inkscape:connector-curvature="0" />
  <path
     d="m 138.47782,-78.366594 a 4.1927929,3.9626384 0 0 0 0.62475,0 l -0.27766,-3.94952 -0.34709,3.94952 z"
     id="path178"
     style="fill:#000000;stroke:#000000;stroke-width:0.20245488"
     inkscape:connector-curvature="0" />
  <polygon
     points="109.59,-80.2 104.56,-80.2 104.56,-81.33 105.07,-82.29 105.86,-82.08 108.04,-82.12 109.13,-82 "
     id="polygon180"
     transform="matrix(1.388342,0,0,1.3121319,-6.1734408,26.761415)"
     style="fill:#000000;stroke:#000000;stroke-width:0.30000001" />
  <rect
     x="122.14381"
     y="-85.266525"
     width="1.8"
     height="0.5"
     id="rect182"
     style="fill:#ffffff;stroke:#000000;stroke-width:0.30000001" />
  <rect
     x="126.80381"
     y="-85.216537"
     width="1.8"
     height="0.5"
     id="rect184"
     style="fill:#ffffff;stroke:#000000;stroke-width:0.30000001" />
  <rect
     id="rect3816"
     width="9.9960203"
     height="1.2217358"
     x="28.210829"
     y="-63.023392"
     rx="0.29936859"
     ry="0.24935445" />
  <rect
     style="font-weight:normal;font-family:Times New Roman"
     id="rect3816-6"
     width="9.9960203"
     height="1.2217358"
     x="32.218349"
     y="-27.566582"
     rx="0.29936859"
     ry="0.24935445" />
  <rect
     style="font-weight:normal;font-family:Times New Roman"
     id="rect3816-0"
     width="9.9960203"
     height="1.2217358"
     x="138.5696"
     y="-27.196953"
     rx="0.29936859"
     ry="0.24935445" />
  <rect
     style="font-weight:normal;font-family:Times New Roman"
     id="rect3816-1"
     width="9.9960203"
     height="1.2217358"
     x="135.51263"
     y="-77.259048"
     rx="0.29936859"
     ry="0.24935445" />
  <flowRoot
     xml:space="preserve"
     id="flowRoot3862"
     style="font-size:10px;font-style:normal;font-weight:normal;fill:#000000;fill-opacity:1;stroke:none;font-family:Bitstream Vera Sans"
     transform="matrix(0.28222223,0,0,0.28222223,7.9966476,-103.36191)"><flowRegion
       id="flowRegion3864"><rect
         id="rect3866"
         width="24.793278"
         height="16.922388"
         x="84.218437"
         y="113.02257" /></flowRegion><flowPara
       id="flowPara3868">OnC</flowPara></flowRoot>  <flowRoot
     xml:space="preserve"
     id="flowRoot3862-9"
     style="font-size:10px;font-style:normal;font-weight:normal;fill:#000000;fill-opacity:1;stroke:none;font-family:Bitstream Vera Sans"
     transform="matrix(0.28222223,0,0,0.28222223,113.55644,-120.71766)"><flowRegion
       id="flowRegion3864-3"><rect
         id="rect3866-8"
         width="46.438202"
         height="18.10302"
         x="84.218437"
         y="113.02257" /></flowRegion><flowPara
       id="flowPara3868-8">ChS/ChT</flowPara></flowRoot>  <flowRoot
     xml:space="preserve"
     id="flowRoot3862-98"
     style="font-size:10px;font-style:normal;font-weight:normal;fill:#000000;fill-opacity:1;stroke:none;font-family:Bitstream Vera Sans"
     transform="matrix(0.28222223,0,0,0.28222223,116.57348,-68.008224)"><flowRegion
       id="flowRegion3864-0"><rect
         id="rect3866-9"
         width="40.928585"
         height="14.954668"
         x="84.218437"
         y="113.02257" /></flowRegion><flowPara
       id="flowPara3868-2">Ch/Un</flowPara></flowRoot>  <path
     style="font-weight:normal;fill:#fefffd;fill-opacity:0.99074073;stroke:#000000;stroke-width:0.31633225;stroke-miterlimit:10;stroke-dasharray:1.89799344, 1.89799344;stroke-dashoffset:0;marker-end:url(#DotL);font-family:Times New Roman"
     d="m 109.33694,-52.323624 c -7.24506,1.3495 -18.918558,1.83532 -20.5081,2.02558 -0.717182,-0.0307 -13.95964,0.10466 -20.572684,-0.75933"
     id="path46-3"
     sodipodi:nodetypes="ccc"
     inkscape:connector-curvature="0" />
  <flowRoot
     xml:space="preserve"
     id="flowRoot4410"
     style="font-size:10px;font-style:normal;font-weight:normal;fill:#000000;fill-opacity:1;stroke:none;font-family:Bitstream Vera Sans"
     transform="matrix(0.28222223,0,0,0.28222223,25.920465,-104.15759)"><flowRegion
       id="flowRegion4412"><rect
         id="rect4414"
         width="73.98629"
         height="17.709476"
         x="336.48019"
         y="26.836412" /></flowRegion><flowPara
       id="flowPara4416">T stellate Cell</flowPara></flowRoot>  <flowRoot
     xml:space="preserve"
     id="flowRoot4418"
     style="font-size:10px;font-style:normal;font-weight:normal;fill:#000000;fill-opacity:1;stroke:none;font-family:Bitstream Vera Sans"
     transform="matrix(0.28222223,0,0,0.28222223,27.049356,-100.20651)"><flowRegion
       id="flowRegion4420"><rect
         id="rect4422"
         width="109.45993"
         height="23.752035"
         x="337.66083"
         y="192.51848" /></flowRegion><flowPara
       id="flowPara4424">Tuberculoventral Cell</flowPara></flowRoot>  <flowRoot
     xml:space="preserve"
     id="flowRoot4426"
     style="font-size:10px;font-style:normal;font-weight:normal;fill:#000000;fill-opacity:1;stroke:none;font-family:Bitstream Vera Sans"
     transform="matrix(0.28222223,0,0,0.28222223,10.116028,-97.948754)"><flowRegion
       id="flowRegion4428"><rect
         id="rect4430"
         width="83.037804"
         height="19.677204"
         x="19.283661"
         y="188.18948" /></flowRegion><flowPara
       id="flowPara4432">Golgi Cell</flowPara></flowRoot>  <flowRoot
     xml:space="preserve"
     id="flowRoot4434"
     style="font-size:10px;font-style:normal;font-weight:normal;fill:#000000;fill-opacity:1;stroke:none;font-family:Bitstream Vera Sans"
     transform="matrix(0.28222223,0,0,0.28222223,9.5515836,-103.02871)"><flowRegion
       id="flowRegion4436"><rect
         id="rect4438"
         width="101.14083"
         height="20.070749"
         x="16.528852"
         y="79.17778" /></flowRegion><flowPara
       id="flowPara4440">D stellate Cell</flowPara></flowRoot>  <path
     style="fill:none;stroke:#000000;stroke-width:0.28222224;stroke-linecap:butt;stroke-linejoin:miter;stroke-miterlimit:10;stroke-opacity:1;stroke-dasharray:none;marker-start:url(#Arrow1Lstart);marker-end:none"
     d="m 47.858804,-86.940954 c 2.961784,3.10988 6.1457,7.85589 7.88575,11.21776 1.700524,3.59045 2.295381,10.6254 2.443471,14.21656"
     id="path4463"
     sodipodi:nodetypes="ccc"
     inkscape:connector-curvature="0" />
  <path
     d="m 80.170474,-18.583191 c 1.41,-8.190003 1.44,-15.380003 1.53,-23.360003 0.09,-8.53 -0.24,-15.99 -1.39,-24.62"
     id="path194"
     style="fill:#ffffff;stroke:#000000;stroke-width:0.8644467;stroke-miterlimit:10;stroke-dasharray:none"
     inkscape:connector-curvature="0" />
  <path
     d="m 106.57866,-44.852694 c -1.08967,1.16591 -9.342842,4.14305 -11.440534,4.73902 -1.687387,0.63857 -9.382017,2.39856 -13.710759,3.13628"
     id="path22"
     sodipodi:nodetypes="ccc"
     style="fill:#ffffff;stroke:#000000;stroke-width:0.61753094;stroke-linecap:butt;stroke-miterlimit:10;stroke-dasharray:none"
     inkscape:connector-curvature="0" />
  <polyline
     points="91.74,-91.51 91.74,-77.48"
     id="polyline156-0"
     transform="translate(-4.6513318,79.580138)"
     style="font-weight:normal;fill:none;stroke:#000000;stroke-width:0.30000001;font-family:Times New Roman" />
  <polygon
     points="91.04,-90.11 92.44,-90.11 91.74,-91.51 91.74,-91.51 "
     id="polygon158-4"
     transform="translate(-4.6513318,79.580138)"
     style="font-weight:normal;fill:#000000;stroke:#000000;stroke-width:0.30000001;font-family:Times New Roman" />
  <polyline
     points="106.00,-77.71 91.77,-77.71"
     id="polyline160-8"
     transform="translate(-4.6513318,79.580138)"
     style="font-weight:normal;fill:none;stroke:#000000;stroke-width:0.30000001;font-family:Times New Roman" />
  <polygon
     points="104.6,-78.41 104.61,-77.01 106,-77.71 106,-77.71 "
     id="polygon162-7"
     transform="translate(-4.6513318,79.580138)"
     style="font-weight:normal;fill:#000000;stroke:#000000;stroke-width:0.30000001;font-family:Times New Roman" />
  <path
     inkscape:connector-curvature="0"
     d="m 89.058636,-9.7098696 c 1.3,2.54 2.19,2.82 3.60001,4.050004 0.36,0.31 1.25,6.38999898 1.6,5.60999998 0.61999,-1.41999998 0.92999,-7.99000398 1.03999,-10.10000438"
     id="path164-1"
     style="font-weight:normal;fill:none;stroke:#000000;stroke-width:0.30000001;font-family:Times New Roman" />
  <polyline
     points="101.85,-80.08 110.87,-80.08"
     id="polyline166-7"
     transform="matrix(1.388342,0,0,1.3121319,-37.958572,106.54805)"
     style="font-weight:normal;fill:none;stroke:#000000;stroke-width:0.15000001;font-family:Times New Roman" />
  <path
     inkscape:connector-curvature="0"
     d="m 104.57068,1.3514204 a 18.497606,6.0940901 0 0 0 1.44697,0 l -0.66482,-6.09409 -0.78215,6.09409 z"
     id="path174-2"
     style="font-weight:normal;fill:#000000;stroke:#000000;stroke-width:0.33669937;font-family:Times New Roman" />
  <path
     style="font-size:medium;font-style:normal;font-variant:normal;font-weight:normal;font-stretch:normal;text-indent:0;text-align:start;text-decoration:none;line-height:normal;letter-spacing:normal;word-spacing:normal;text-transform:none;direction:ltr;block-progression:tb;writing-mode:lr-tb;text-anchor:start;baseline-shift:baseline;color:#000000;fill:#000000;fill-opacity:1;fill-rule:nonzero;stroke:none;stroke-width:0.30000225;marker:none;visibility:visible;display:inline;overflow:visible;enable-background:accumulate;font-family:Times New Roman;-inkscape-font-specification:Sans"
     d="m 105.82817,-2.1579536 -0.11307,0.141121 -0.90455,1.45825298 -0.0565,0.04704 0,0.04704 0,1.74049602 0,0.188161 0.28267,0 8.89367,-0.01097 0.19666,0.04386 -0.15519,-0.380932 -0.36553,-1.96854602 -0.25388,-0.26174198 -0.4547,-0.101867 -1.45236,-0.166231 -0.24291,-0.02193 -3.73468,-0.377436 -0.11306,0 -1.35682,-0.329283 -0.16961,-0.04704 z m 1.37751,3.41234 0.76127,-0.04672 0.33067,0.05483 0.38549,0.02193 2.46439,-0.134764 1.76523,0.133334 -0.72517,-1.27295502 -6.86821,1.03075802 0,-1.45825302 0,-0.04704 0.78978,1.68598802 z"
     id="polygon180-0"
     inkscape:connector-curvature="0"
     sodipodi:nodetypes="ccccccccccccccccccccccccccccccccc" />
  <rect
     style="font-weight:normal;font-family:Times New Roman"
     id="rect3816-1-5"
     width="9.9960203"
     height="1.2217358"
     x="103.72755"
     y="2.5276337"
     rx="0.29936859"
     ry="0.24935445" />
  <text
     x="115.28284"
     y="-89.305038"
     font-size="3.00"
     xml:space="preserve"
     id="text116-0"
     style="font-size:3px;font-weight:normal;text-anchor:start;fill:#000000;font-family:'Comic Sans MS, sans-serif'"><tspan
       style="font-style:normal;font-variant:normal;font-weight:normal;font-stretch:normal;font-family:Arial;-inkscape-font-specification:Arial"
       id="tspan3032-4">L</tspan></text>
  <text
     x="116.97229"
     y="-38.5457"
     font-size="3.00"
     xml:space="preserve"
     id="text116-8"
     style="font-size:3px;font-weight:normal;text-anchor:start;fill:#000000;font-family:'Comic Sans MS, sans-serif'"><tspan
       style="font-style:normal;font-variant:normal;font-weight:normal;font-stretch:normal;font-family:Arial;-inkscape-font-specification:Arial"
       id="tspan3032-8">L</tspan></text>
  <text
     x="83.692337"
     y="-8.2435837"
     font-size="3.00"
     xml:space="preserve"
     id="text116-89"
     style="font-size:3px;font-weight:normal;text-anchor:start;fill:#000000;font-family:'Comic Sans MS, sans-serif'"><tspan
       style="font-style:normal;font-variant:normal;font-weight:normal;font-stretch:normal;font-family:Arial;-inkscape-font-specification:Arial"
       id="tspan3032-7">L</tspan></text>
  <text
     x="131.31992"
     y="-24.033867"
     font-size="3.00"
     xml:space="preserve"
     id="text118-7"
     style="font-size:3px;font-weight:normal;text-anchor:start;fill:#000000;font-family:'Comic Sans MS, sans-serif'"><tspan
       style="font-style:normal;font-variant:normal;font-weight:normal;font-stretch:normal;font-family:Arial;-inkscape-font-specification:Arial"
       id="tspan3030-6">F</tspan></text>
  <text
     x="97.544716"
     y="4.9586563"
     font-size="3.00"
     xml:space="preserve"
     id="text118-4"
     style="font-size:3px;font-weight:normal;text-anchor:start;fill:#000000;font-family:'Comic Sans MS, sans-serif'"><tspan
       style="font-style:normal;font-variant:normal;font-weight:normal;font-stretch:normal;font-family:Arial;-inkscape-font-specification:Arial"
       id="tspan3030-3">F</tspan></text>
  <text
     x="129.39827"
     y="-74.956985"
     font-size="3.00"
     xml:space="preserve"
     id="text118-0"
     style="font-size:3px;font-weight:normal;text-anchor:start;fill:#000000;font-family:'Comic Sans MS, sans-serif'"><tspan
       style="font-style:normal;font-variant:normal;font-weight:normal;font-stretch:normal;font-family:Arial;-inkscape-font-specification:Arial"
       id="tspan3030-30">F</tspan></text>
  <path
     style="fill:none;stroke:#000000;stroke-width:0.33866668;stroke-linecap:round;stroke-linejoin:round;stroke-miterlimit:10;stroke-opacity:1;stroke-dasharray:1.35466676, 1.35466676;stroke-dashoffset:0;marker-end:url(#DotL)"
     d="m 61.796174,-63.568744 c 2.253626,-2.07204 5.227537,-4.12237 7.308067,-1.87531 0.98205,0.89697 1.286267,2.51157 0.940834,3.7267 -0.714395,1.51815 -1.418033,1.31778 -2.634608,2.4953"
     id="path4124"
     inkscape:connector-curvature="0"
     sodipodi:nodetypes="cccc" />
  <path
     style="fill:none;stroke:#000000;stroke-width:0.33866668;stroke-linecap:round;stroke-linejoin:round;stroke-miterlimit:10;stroke-opacity:1;stroke-dasharray:2.03200014, 2.03200014;stroke-dashoffset:0;marker-end:url(#TriangleInL)"
     d="m 80.11106,-82.555974 c 0.562048,-1.244178 1.418613,-2.354145 2.479666,-3.21324 0.948326,-0.767824 2.096327,-1.345177 3.315285,-1.400098 0.609479,-0.02746 1.228309,0.07851 1.781032,0.336798 0.552724,0.258292 1.036778,0.671842 1.351429,1.19454 0.270743,0.449758 0.412292,0.971617 0.439985,1.495847 0.02769,0.52423 -0.05597,1.05098 -0.212013,1.552213 -0.335362,1.077227 -1.012705,2.045175 -1.909867,2.72927"
     id="path4340"
     inkscape:path-effect="#path-effect4342"
     inkscape:original-d="m 80.11106,-82.555974 c 0.428263,-0.86453 1.259434,-2.62891 2.479666,-3.21324 1.938855,-0.92846 4.886978,-1.347 6.447746,0.13124 0.739733,0.70062 0.497729,2.06556 0.227972,3.04806 -0.29399,1.07075 -1.071844,2.3335 -1.909867,2.72927"
     inkscape:connector-curvature="0"
     sodipodi:nodetypes="caaac" />
  <path
     style="font-weight:normal;fill:none;stroke:#000000;stroke-width:0.35616446;stroke-linecap:round;stroke-linejoin:round;stroke-miterlimit:10;stroke-opacity:1;stroke-dasharray:1.42465788, 1.42465788;stroke-dashoffset:0;marker-end:url(#DotL);font-family:Times New Roman"
     d="m 120.36607,-61.943014 c 1.1957,-1.01896 2.32283,-2.45882 3.60232,-3.17057 1.48206,-0.46523 3.3212,-0.47338 4.78523,-0.35671 1.23355,0.20247 2.02252,0.88638 2.64841,2.08665 0.49009,1.61804 0.12453,2.77296 -0.26455,4.06567 -0.36868,0.98703 -0.70825,1.23612 -1.68571,1.58763 -1.11764,0.46253 -2.44683,0.44905 -3.67503,0.66281"
     id="path4124-6"
     inkscape:connector-curvature="0"
     sodipodi:nodetypes="ccccccc" />
  <polygon
     points="49.45,-33.75 49.45,-33.75 52.04,-32.47 50.36,-34.82 "
     id="polygon64-6"
     style="font-weight:normal;fill:#ffffff;fill-opacity:1;fill-rule:nonzero;stroke:#000000;stroke-width:0.30000222;stroke-linecap:butt;stroke-miterlimit:10;stroke-dasharray:none;font-family:Times New Roman"
     transform="matrix(1.6982348,0.55816087,-0.54557333,1.6599364,-39.505378,-18.106068)" />
  <polygon
     points="49.45,-33.75 49.45,-33.75 52.04,-32.47 50.36,-34.82 "
     id="polygon64-6-0"
     style="font-weight:normal;fill:#ffffff;fill-opacity:1;fill-rule:nonzero;stroke:#000000;stroke-width:0.30000222;stroke-linecap:butt;stroke-miterlimit:10;stroke-dasharray:none;font-family:Times New Roman"
     transform="matrix(-0.1644314,1.7800302,-1.739887,-0.16072325,58.397773,-142.49314)" />
  <polygon
     points="50.36,-34.82 49.45,-33.75 49.45,-33.75 52.04,-32.47 "
     id="polygon64-6-5"
     style="font-weight:normal;fill:#ffffff;fill-opacity:1;fill-rule:nonzero;stroke:#000000;stroke-width:0.30000222;stroke-linecap:butt;stroke-miterlimit:10;stroke-dasharray:none;font-family:Times New Roman"
     transform="matrix(1.3234829,1.3352342,-1.2866483,1.187374,-29.710187,-92.350204)" />
  <path
     style="fill:none;stroke:#000000;stroke-width:0.33093616;stroke-linecap:butt;stroke-linejoin:miter;stroke-miterlimit:10;stroke-opacity:1;stroke-dasharray:0.66187232, 1.98561697;stroke-dashoffset:0"
     d="m 107.04857,-79.962604 c -6.98242,9.87967 -7.952193,25.58996 -7.952193,25.58996 -0.387911,8.58397 1.749943,18.87156 5.236803,25.75191"
     id="path3801"
     inkscape:connector-curvature="0"
     sodipodi:nodetypes="ccc" />
  <text
     xml:space="preserve"
     style="font-size:3.95111156px;font-style:normal;font-weight:bold;line-height:125%;letter-spacing:0px;word-spacing:0px;fill:#000000;fill-opacity:1;stroke:none;font-family:Sans;-inkscape-font-specification:Sans Bold"
     x="104.35224"
     y="-31.165901"
     id="text4607"
     sodipodi:linespacing="125%"><tspan
       sodipodi:role="line"
       id="tspan4609"
       x="104.35224"
       y="-31.165901">DCN</tspan></text>
  <text
     xml:space="preserve"
     style="font-size:3.95111156px;font-style:normal;font-weight:bold;line-height:125%;letter-spacing:0px;word-spacing:0px;fill:#000000;fill-opacity:1;fill-rule:nonzero;stroke:none;font-family:Sans;-inkscape-font-specification:Sans Bold"
     x="93.41111"
     y="-26.855812"
     id="text4607-2"
     sodipodi:linespacing="125%"><tspan
       sodipodi:role="line"
       id="tspan4609-2"
       x="93.41111"
       y="-26.855812">VCN</tspan></text>
</svg>
