<?xml version="1.0" encoding="UTF-8" standalone="no"?>
<!DOCTYPE svg PUBLIC "-//W3C//DTD SVG 1.0//EN" "http://www.w3.org/TR/2001/PR-SVG-20010719/DTD/svg10.dtd">
<svg width="44cm" height="24cm" viewBox="-61 27 862 466" xmlns="http://www.w3.org/2000/svg" xmlns:xlink="http://www.w3.org/1999/xlink">
  <g>
    <rect style="fill: #ffffff" x="60" y="60" width="40" height="40"/>
    <rect style="fill: none; fill-opacity:0; stroke-width: 2; stroke: #000000" x="60" y="60" width="40" height="40"/>
    <text style="fill: #000000;text-anchor:middle;font-size:12.8;font-family:sanserif;font-style:normal;font-weight:normal" x="80" y="83.9">
      <tspan x="80" y="83.9"></tspan>
    </text>
  </g>
  <g>
    <rect style="fill: #ffffff" x="100" y="60" width="40" height="40"/>
    <rect style="fill: none; fill-opacity:0; stroke-width: 2; stroke: #000000" x="100" y="60" width="40" height="40"/>
    <text style="fill: #000000;text-anchor:middle;font-size:12.8;font-family:sanserif;font-style:normal;font-weight:normal" x="120" y="83.9">
      <tspan x="120" y="83.9"></tspan>
    </text>
  </g>
  <g>
    <rect style="fill: #ffffff" x="140" y="60" width="40" height="40"/>
    <rect style="fill: none; fill-opacity:0; stroke-width: 2; stroke: #000000" x="140" y="60" width="40" height="40"/>
    <text style="fill: #000000;text-anchor:middle;font-size:12.8;font-family:sanserif;font-style:normal;font-weight:normal" x="160" y="83.9">
      <tspan x="160" y="83.9"></tspan>
    </text>
  </g>
  <g>
    <rect style="fill: #ffffff" x="180" y="60" width="40" height="40"/>
    <rect style="fill: none; fill-opacity:0; stroke-width: 2; stroke: #000000" x="180" y="60" width="40" height="40"/>
    <text style="fill: #000000;text-anchor:middle;font-size:12.8;font-family:sanserif;font-style:normal;font-weight:normal" x="200" y="83.9">
      <tspan x="200" y="83.9"></tspan>
    </text>
  </g>
  <g>
    <rect style="fill: #ffffff" x="220" y="60" width="40" height="40"/>
    <rect style="fill: none; fill-opacity:0; stroke-width: 2; stroke: #000000" x="220" y="60" width="40" height="40"/>
    <text style="fill: #000000;text-anchor:middle;font-size:12.8;font-family:sanserif;font-style:normal;font-weight:normal" x="240" y="83.9">
      <tspan x="240" y="83.9"></tspan>
    </text>
  </g>
  <g>
    <rect style="fill: #ffffff" x="260" y="60" width="40" height="40"/>
    <rect style="fill: none; fill-opacity:0; stroke-width: 2; stroke: #000000" x="260" y="60" width="40" height="40"/>
    <text style="fill: #000000;text-anchor:middle;font-size:12.8;font-family:sanserif;font-style:normal;font-weight:normal" x="280" y="83.9">
      <tspan x="280" y="83.9"></tspan>
    </text>
  </g>
  <g>
    <rect style="fill: #ffffff" x="300" y="60" width="40" height="40"/>
    <rect style="fill: none; fill-opacity:0; stroke-width: 2; stroke: #000000" x="300" y="60" width="40" height="40"/>
    <text style="fill: #000000;text-anchor:middle;font-size:12.8;font-family:sanserif;font-style:normal;font-weight:normal" x="320" y="83.9">
      <tspan x="320" y="83.9"></tspan>
    </text>
  </g>
  <g>
    <rect style="fill: none; fill-opacity:0; stroke-width: 2; stroke: #000000" x="340" y="60" width="40" height="40"/>
    <text style="fill: #000000;text-anchor:middle;font-size:12.8;font-family:sanserif;font-style:normal;font-weight:normal" x="360" y="83.9">
      <tspan x="360" y="83.9"></tspan>
    </text>
  </g>
  <g>
    <rect style="fill: #ffffff" x="380" y="60" width="40" height="40"/>
    <rect style="fill: none; fill-opacity:0; stroke-width: 2; stroke: #000000" x="380" y="60" width="40" height="40"/>
    <text style="fill: #000000;text-anchor:middle;font-size:12.8;font-family:sanserif;font-style:normal;font-weight:normal" x="400" y="83.9">
      <tspan x="400" y="83.9"></tspan>
    </text>
  </g>
  <g>
    <rect style="fill: #ffffff" x="420" y="60" width="40" height="40"/>
    <rect style="fill: none; fill-opacity:0; stroke-width: 2; stroke: #000000" x="420" y="60" width="40" height="40"/>
    <text style="fill: #000000;text-anchor:middle;font-size:12.8;font-family:sanserif;font-style:normal;font-weight:normal" x="440" y="83.9">
      <tspan x="440" y="83.9"></tspan>
    </text>
  </g>
  <g>
    <rect style="fill: #ffffff" x="460" y="60" width="40" height="40"/>
    <rect style="fill: none; fill-opacity:0; stroke-width: 2; stroke: #000000" x="460" y="60" width="40" height="40"/>
    <text style="fill: #000000;text-anchor:middle;font-size:12.8;font-family:sanserif;font-style:normal;font-weight:normal" x="480" y="83.9">
      <tspan x="480" y="83.9"></tspan>
    </text>
  </g>
  <g>
    <rect style="fill: #ffffff" x="500" y="60" width="40" height="40"/>
    <rect style="fill: none; fill-opacity:0; stroke-width: 2; stroke: #000000" x="500" y="60" width="40" height="40"/>
    <text style="fill: #000000;text-anchor:middle;font-size:12.8;font-family:sanserif;font-style:normal;font-weight:normal" x="520" y="83.9">
      <tspan x="520" y="83.9"></tspan>
    </text>
  </g>
  <g>
    <rect style="fill: #ffffff" x="540" y="60" width="40" height="40"/>
    <rect style="fill: none; fill-opacity:0; stroke-width: 2; stroke: #000000" x="540" y="60" width="40" height="40"/>
    <text style="fill: #000000;text-anchor:middle;font-size:12.8;font-family:sanserif;font-style:normal;font-weight:normal" x="560" y="83.9">
      <tspan x="560" y="83.9"></tspan>
    </text>
  </g>
  <g>
    <rect style="fill: #ffffff" x="580" y="60" width="40" height="40"/>
    <rect style="fill: none; fill-opacity:0; stroke-width: 2; stroke: #000000" x="580" y="60" width="40" height="40"/>
    <text style="fill: #000000;text-anchor:middle;font-size:12.8;font-family:sanserif;font-style:normal;font-weight:normal" x="600" y="83.9">
      <tspan x="600" y="83.9"></tspan>
    </text>
  </g>
  <g>
    <rect style="fill: #ffffff" x="620" y="60" width="40" height="40"/>
    <rect style="fill: none; fill-opacity:0; stroke-width: 2; stroke: #000000" x="620" y="60" width="40" height="40"/>
    <text style="fill: #000000;text-anchor:middle;font-size:12.8;font-family:sanserif;font-style:normal;font-weight:normal" x="640" y="83.9">
      <tspan x="640" y="83.9"></tspan>
    </text>
  </g>
  <line style="fill: none; fill-opacity:0; stroke-width: 2; stroke-dasharray: 20; stroke: #000000" x1="680" y1="80" x2="800" y2="80"/>
  <line style="fill: none; fill-opacity:0; stroke-width: 2; stroke-dasharray: 20; stroke: #000000" x1="-60" y1="80" x2="40" y2="80"/>
  <g>
    <rect style="fill: #ffffff" x="60" y="240" width="40" height="40"/>
    <rect style="fill: none; fill-opacity:0; stroke-width: 2; stroke: #000000" x="60" y="240" width="40" height="40"/>
    <text style="fill: #000000;text-anchor:middle;font-size:12.8;font-family:sanserif;font-style:normal;font-weight:normal" x="80" y="263.9">
      <tspan x="80" y="263.9"></tspan>
    </text>
  </g>
  <g>
    <rect style="fill: #ffffff" x="100" y="240" width="40" height="40"/>
    <rect style="fill: none; fill-opacity:0; stroke-width: 2; stroke: #000000" x="100" y="240" width="40" height="40"/>
    <text style="fill: #000000;text-anchor:middle;font-size:12.8;font-family:sanserif;font-style:normal;font-weight:normal" x="120" y="263.9">
      <tspan x="120" y="263.9"></tspan>
    </text>
  </g>
  <g>
    <rect style="fill: #ffffff" x="140" y="240" width="40" height="40"/>
    <rect style="fill: none; fill-opacity:0; stroke-width: 2; stroke: #000000" x="140" y="240" width="40" height="40"/>
    <text style="fill: #000000;text-anchor:middle;font-size:12.8;font-family:sanserif;font-style:normal;font-weight:normal" x="160" y="263.9">
      <tspan x="160" y="263.9"></tspan>
    </text>
  </g>
  <g>
    <rect style="fill: #ffffff" x="180" y="240" width="40" height="40"/>
    <rect style="fill: none; fill-opacity:0; stroke-width: 2; stroke: #000000" x="180" y="240" width="40" height="40"/>
    <text style="fill: #000000;text-anchor:middle;font-size:12.8;font-family:sanserif;font-style:normal;font-weight:normal" x="200" y="263.9">
      <tspan x="200" y="263.9"></tspan>
    </text>
  </g>
  <g>
    <rect style="fill: #ffffff" x="220" y="240" width="40" height="40"/>
    <rect style="fill: none; fill-opacity:0; stroke-width: 2; stroke: #000000" x="220" y="240" width="40" height="40"/>
    <text style="fill: #000000;text-anchor:middle;font-size:12.8;font-family:sanserif;font-style:normal;font-weight:normal" x="240" y="263.9">
      <tspan x="240" y="263.9"></tspan>
    </text>
  </g>
  <g>
    <rect style="fill: #ffffff" x="260" y="240" width="40" height="40"/>
    <rect style="fill: none; fill-opacity:0; stroke-width: 2; stroke: #000000" x="260" y="240" width="40" height="40"/>
    <text style="fill: #000000;text-anchor:middle;font-size:12.8;font-family:sanserif;font-style:normal;font-weight:normal" x="280" y="263.9">
      <tspan x="280" y="263.9"></tspan>
    </text>
  </g>
  <g>
    <rect style="fill: #ffffff" x="300" y="240" width="40" height="40"/>
    <rect style="fill: none; fill-opacity:0; stroke-width: 2; stroke: #000000" x="300" y="240" width="40" height="40"/>
    <text style="fill: #000000;text-anchor:middle;font-size:12.8;font-family:sanserif;font-style:normal;font-weight:normal" x="320" y="263.9">
      <tspan x="320" y="263.9"></tspan>
    </text>
  </g>
  <g>
    <rect style="fill: #ffffff" x="340" y="240" width="40" height="40"/>
    <rect style="fill: none; fill-opacity:0; stroke-width: 2; stroke: #000000" x="340" y="240" width="40" height="40"/>
    <text style="fill: #000000;text-anchor:middle;font-size:12.8;font-family:sanserif;font-style:normal;font-weight:normal" x="360" y="263.9">
      <tspan x="360" y="263.9"></tspan>
    </text>
  </g>
  <g>
    <rect style="fill: #ffffff" x="380" y="240" width="40" height="40"/>
    <rect style="fill: none; fill-opacity:0; stroke-width: 2; stroke: #000000" x="380" y="240" width="40" height="40"/>
    <text style="fill: #000000;text-anchor:middle;font-size:12.8;font-family:sanserif;font-style:normal;font-weight:normal" x="400" y="263.9">
      <tspan x="400" y="263.9"></tspan>
    </text>
  </g>
  <g>
    <rect style="fill: #ffffff" x="420" y="240" width="40" height="40"/>
    <rect style="fill: none; fill-opacity:0; stroke-width: 2; stroke: #000000" x="420" y="240" width="40" height="40"/>
    <text style="fill: #000000;text-anchor:middle;font-size:12.8;font-family:sanserif;font-style:normal;font-weight:normal" x="440" y="263.9">
      <tspan x="440" y="263.9"></tspan>
    </text>
  </g>
  <g>
    <rect style="fill: #ffffff" x="460" y="240" width="40" height="40"/>
    <rect style="fill: none; fill-opacity:0; stroke-width: 2; stroke: #000000" x="460" y="240" width="40" height="40"/>
    <text style="fill: #000000;text-anchor:middle;font-size:12.8;font-family:sanserif;font-style:normal;font-weight:normal" x="480" y="263.9">
      <tspan x="480" y="263.9"></tspan>
    </text>
  </g>
  <g>
    <rect style="fill: #ffffff" x="500" y="240" width="40" height="40"/>
    <rect style="fill: none; fill-opacity:0; stroke-width: 2; stroke: #000000" x="500" y="240" width="40" height="40"/>
    <text style="fill: #000000;text-anchor:middle;font-size:12.8;font-family:sanserif;font-style:normal;font-weight:normal" x="520" y="263.9">
      <tspan x="520" y="263.9"></tspan>
    </text>
  </g>
  <g>
    <rect style="fill: #ffffff" x="540" y="240" width="40" height="40"/>
    <rect style="fill: none; fill-opacity:0; stroke-width: 2; stroke: #000000" x="540" y="240" width="40" height="40"/>
    <text style="fill: #000000;text-anchor:middle;font-size:12.8;font-family:sanserif;font-style:normal;font-weight:normal" x="560" y="263.9">
      <tspan x="560" y="263.9"></tspan>
    </text>
  </g>
  <g>
    <rect style="fill: #ffffff" x="580" y="240" width="40" height="40"/>
    <rect style="fill: none; fill-opacity:0; stroke-width: 2; stroke: #000000" x="580" y="240" width="40" height="40"/>
    <text style="fill: #000000;text-anchor:middle;font-size:12.8;font-family:sanserif;font-style:normal;font-weight:normal" x="600" y="263.9">
      <tspan x="600" y="263.9"></tspan>
    </text>
  </g>
  <g>
    <rect style="fill: #ffffff" x="620" y="240" width="40" height="40"/>
    <rect style="fill: none; fill-opacity:0; stroke-width: 2; stroke: #000000" x="620" y="240" width="40" height="40"/>
    <text style="fill: #000000;text-anchor:middle;font-size:12.8;font-family:sanserif;font-style:normal;font-weight:normal" x="640" y="263.9">
      <tspan x="640" y="263.9"></tspan>
    </text>
  </g>
  <line style="fill: none; fill-opacity:0; stroke-width: 2; stroke-dasharray: 20; stroke: #000000" x1="680" y1="260" x2="800" y2="260"/>
  <line style="fill: none; fill-opacity:0; stroke-width: 2; stroke-dasharray: 20; stroke: #000000" x1="-60" y1="260" x2="40" y2="260"/>
  <g>
    <line style="fill: none; fill-opacity:0; stroke-width: 2; stroke-dasharray: 20; stroke: #000000" x1="360" y1="100" x2="200" y2="240"/>
    <path style="fill: #000000" d="M 360 100 C 361.646,101.881 361.411,105.409 359.53,107.055 C 357.648,108.702 354.12,108.466 352.474,106.585 C 350.828,104.704 351.063,101.176 352.945,99.5296 C 354.826,97.8834 358.354,98.1186 360,100z"/>
    <path style="fill: none; fill-opacity:0; stroke-width: 2; stroke: #000000" d="M 360 100 C 361.646,101.881 361.411,105.409 359.53,107.055 C 357.648,108.702 354.12,108.466 352.474,106.585 C 350.828,104.704 351.063,101.176 352.945,99.5296 C 354.826,97.8834 358.354,98.1186 360,100"/>
  </g>
  <g>
    <line style="fill: none; fill-opacity:0; stroke-width: 2; stroke-dasharray: 20; stroke: #000000" x1="360" y1="100" x2="240" y2="240"/>
    <path style="fill: #000000" d="M 360 100 C 361.898,101.627 362.169,105.152 360.542,107.05 C 358.915,108.948 355.39,109.22 353.492,107.593 C 351.594,105.966 351.323,102.44 352.95,100.542 C 354.577,98.6442 358.102,98.373 360,100z"/>
    <path style="fill: none; fill-opacity:0; stroke-width: 2; stroke: #000000" d="M 360 100 C 361.898,101.627 362.169,105.152 360.542,107.05 C 358.915,108.948 355.39,109.22 353.492,107.593 C 351.594,105.966 351.323,102.44 352.95,100.542 C 354.577,98.6442 358.102,98.373 360,100"/>
  </g>
  <g>
    <line style="fill: none; fill-opacity:0; stroke-width: 2; stroke-dasharray: 20; stroke: #000000" x1="360" y1="100" x2="280" y2="240"/>
    <path style="fill: #000000" d="M 360 100 C 362.171,101.24 363.101,104.651 361.861,106.822 C 360.62,108.993 357.209,109.923 355.039,108.682 C 352.868,107.442 351.938,104.031 353.178,101.861 C 354.418,99.6899 357.829,98.7597 360,100z"/>
    <path style="fill: none; fill-opacity:0; stroke-width: 2; stroke: #000000" d="M 360 100 C 362.171,101.24 363.101,104.651 361.861,106.822 C 360.62,108.993 357.209,109.923 355.039,108.682 C 352.868,107.442 351.938,104.031 353.178,101.861 C 354.418,99.6899 357.829,98.7597 360,100"/>
  </g>
  <g>
    <line style="fill: none; fill-opacity:0; stroke-width: 2; stroke-dasharray: 20; stroke: #000000" x1="360" y1="100" x2="320" y2="240"/>
    <path style="fill: #000000" d="M 360 100 C 362.404,100.687 364.121,103.777 363.434,106.181 C 362.747,108.585 359.657,110.302 357.253,109.615 C 354.849,108.928 353.132,105.838 353.819,103.434 C 354.506,101.03 357.596,99.3132 360,100z"/>
    <path style="fill: none; fill-opacity:0; stroke-width: 2; stroke: #000000" d="M 360 100 C 362.404,100.687 364.121,103.777 363.434,106.181 C 362.747,108.585 359.657,110.302 357.253,109.615 C 354.849,108.928 353.132,105.838 353.819,103.434 C 354.506,101.03 357.596,99.3132 360,100"/>
  </g>
  <g>
    <line style="fill: none; fill-opacity:0; stroke-width: 2; stroke-dasharray: 20; stroke: #000000" x1="360" y1="100" x2="360" y2="240"/>
    <path style="fill: #000000" d="M 360 100 C 362.5,100 365,102.5 365,105 C 365,107.5 362.5,110 360,110 C 357.5,110 355,107.5 355,105 C 355,102.5 357.5,100 360,100z"/>
    <path style="fill: none; fill-opacity:0; stroke-width: 2; stroke: #000000" d="M 360 100 C 362.5,100 365,102.5 365,105 C 365,107.5 362.5,110 360,110 C 357.5,110 355,107.5 355,105 C 355,102.5 357.5,100 360,100"/>
  </g>
  <g>
    <line style="fill: none; fill-opacity:0; stroke-width: 2; stroke-dasharray: 20; stroke: #000000" x1="360" y1="100" x2="400" y2="240"/>
    <path style="fill: #000000" d="M 360 100 C 362.404,99.3132 365.494,101.03 366.181,103.434 C 366.868,105.838 365.151,108.928 362.747,109.615 C 360.343,110.302 357.253,108.585 356.566,106.181 C 355.879,103.777 357.596,100.687 360,100z"/>
    <path style="fill: none; fill-opacity:0; stroke-width: 2; stroke: #000000" d="M 360 100 C 362.404,99.3132 365.494,101.03 366.181,103.434 C 366.868,105.838 365.151,108.928 362.747,109.615 C 360.343,110.302 357.253,108.585 356.566,106.181 C 355.879,103.777 357.596,100.687 360,100"/>
  </g>
  <g>
    <line style="fill: none; fill-opacity:0; stroke-width: 2; stroke-dasharray: 20; stroke: #000000" x1="360" y1="100" x2="440" y2="240"/>
    <path style="fill: #000000" d="M 360 100 C 362.171,98.7597 365.582,99.6899 366.822,101.861 C 368.062,104.031 367.132,107.442 364.961,108.682 C 362.791,109.923 359.38,108.993 358.139,106.822 C 356.899,104.651 357.829,101.24 360,100z"/>
    <path style="fill: none; fill-opacity:0; stroke-width: 2; stroke: #000000" d="M 360 100 C 362.171,98.7597 365.582,99.6899 366.822,101.861 C 368.062,104.031 367.132,107.442 364.961,108.682 C 362.791,109.923 359.38,108.993 358.139,106.822 C 356.899,104.651 357.829,101.24 360,100"/>
  </g>
  <g>
    <line style="fill: none; fill-opacity:0; stroke-width: 2; stroke-dasharray: 20; stroke: #000000" x1="360" y1="100" x2="480" y2="240"/>
    <path style="fill: #000000" d="M 360 100 C 361.898,98.373 365.423,98.6442 367.05,100.542 C 368.677,102.44 368.406,105.966 366.508,107.593 C 364.61,109.22 361.085,108.948 359.458,107.05 C 357.831,105.152 358.102,101.627 360,100z"/>
    <path style="fill: none; fill-opacity:0; stroke-width: 2; stroke: #000000" d="M 360 100 C 361.898,98.373 365.423,98.6442 367.05,100.542 C 368.677,102.44 368.406,105.966 366.508,107.593 C 364.61,109.22 361.085,108.948 359.458,107.05 C 357.831,105.152 358.102,101.627 360,100"/>
  </g>
  <g>
    <line style="fill: none; fill-opacity:0; stroke-width: 2; stroke-dasharray: 20; stroke: #000000" x1="360" y1="100" x2="520" y2="240"/>
    <path style="fill: #000000" d="M 360 100 C 361.646,98.1186 365.174,97.8834 367.055,99.5296 C 368.937,101.176 369.172,104.704 367.526,106.585 C 365.88,108.466 362.352,108.702 360.47,107.055 C 358.589,105.409 358.354,101.881 360,100z"/>
    <path style="fill: none; fill-opacity:0; stroke-width: 2; stroke: #000000" d="M 360 100 C 361.646,98.1186 365.174,97.8834 367.055,99.5296 C 368.937,101.176 369.172,104.704 367.526,106.585 C 365.88,108.466 362.352,108.702 360.47,107.055 C 358.589,105.409 358.354,101.881 360,100"/>
  </g>
  <path style="fill: none; fill-opacity:0; stroke-width: 2; stroke: #000000" d="M 60 300 C 272.48,300 240,400 360,400 C 480,400 447.52,300 660,300"/>
  <g>
    <rect style="fill: #ffffff" x="180" y="300" width="40" height="19.5"/>
    <rect style="fill: none; fill-opacity:0; stroke-width: 2; stroke: #000000" x="180" y="300" width="40" height="19.5"/>
    <text style="fill: #000000;text-anchor:middle;font-size:5.97182;font-family:sanserif;font-style:normal;font-weight:normal" x="200" y="311.568">
      <tspan x="200" y="311.568"></tspan>
    </text>
  </g>
  <g>
    <rect style="fill: #ffffff" x="220" y="300" width="40" height="38"/>
    <rect style="fill: none; fill-opacity:0; stroke-width: 2; stroke: #000000" x="220" y="300" width="40" height="38"/>
    <text style="fill: #000000;text-anchor:middle;font-size:12.8;font-family:sanserif;font-style:normal;font-weight:normal" x="240" y="322.9">
      <tspan x="240" y="322.9"></tspan>
    </text>
  </g>
  <g>
    <rect style="fill: #ffffff" x="260" y="300" width="40" height="60"/>
    <rect style="fill: none; fill-opacity:0; stroke-width: 2; stroke: #000000" x="260" y="300" width="40" height="60"/>
    <text style="fill: #000000;text-anchor:middle;font-size:12.8;font-family:sanserif;font-style:normal;font-weight:normal" x="280" y="333.9">
      <tspan x="280" y="333.9"></tspan>
    </text>
  </g>
  <g>
    <rect style="fill: #ffffff" x="300" y="300" width="40" height="80"/>
    <rect style="fill: none; fill-opacity:0; stroke-width: 2; stroke: #000000" x="300" y="300" width="40" height="80"/>
    <text style="fill: #000000;text-anchor:middle;font-size:12.8;font-family:sanserif;font-style:normal;font-weight:normal" x="320" y="343.9">
      <tspan x="320" y="343.9"></tspan>
    </text>
  </g>
  <g>
    <rect style="fill: #ffffff" x="340" y="300" width="40" height="120"/>
    <rect style="fill: none; fill-opacity:0; stroke-width: 2; stroke: #000000" x="340" y="300" width="40" height="120"/>
    <text style="fill: #000000;text-anchor:middle;font-size:12.8;font-family:sanserif;font-style:normal;font-weight:normal" x="360" y="363.9">
      <tspan x="360" y="363.9"></tspan>
    </text>
  </g>
  <g>
    <rect style="fill: #ffffff" x="380" y="300" width="40" height="80"/>
    <rect style="fill: none; fill-opacity:0; stroke-width: 2; stroke: #000000" x="380" y="300" width="40" height="80"/>
    <text style="fill: #000000;text-anchor:middle;font-size:12.8;font-family:sanserif;font-style:normal;font-weight:normal" x="400" y="343.9">
      <tspan x="400" y="343.9"></tspan>
    </text>
  </g>
  <g>
    <rect style="fill: #ffffff" x="420" y="300" width="40" height="60"/>
    <rect style="fill: none; fill-opacity:0; stroke-width: 2; stroke: #000000" x="420" y="300" width="40" height="60"/>
    <text style="fill: #000000;text-anchor:middle;font-size:12.8;font-family:sanserif;font-style:normal;font-weight:normal" x="440" y="333.9">
      <tspan x="440" y="333.9"></tspan>
    </text>
  </g>
  <g>
    <rect style="fill: #ffffff" x="460" y="300" width="40" height="38"/>
    <rect style="fill: none; fill-opacity:0; stroke-width: 2; stroke: #000000" x="460" y="300" width="40" height="38"/>
    <text style="fill: #000000;text-anchor:middle;font-size:12.8;font-family:sanserif;font-style:normal;font-weight:normal" x="480" y="322.9">
      <tspan x="480" y="322.9"></tspan>
    </text>
  </g>
  <g>
    <rect style="fill: #ffffff" x="500" y="300" width="40" height="20"/>
    <rect style="fill: none; fill-opacity:0; stroke-width: 2; stroke: #000000" x="500" y="300" width="40" height="20"/>
    <text style="fill: #000000;text-anchor:middle;font-size:6.08471;font-family:sanserif;font-style:normal;font-weight:normal" x="520" y="311.847">
      <tspan x="520" y="311.847"></tspan>
    </text>
  </g>
  <text style="fill: #000000;text-anchor:start;font-size:12.8;font-family:sanserif;font-style:normal;font-weight:normal" x="340" y="20">
    <tspan x="340" y="20"></tspan>
  </text>
  <text style="fill: #000000;text-anchor:start;font-size:14.1563;font-family:sanserif;font-style:normal;font-weight:700" x="344" y="41">
    <tspan x="344" y="41">CF</tspan>
  </text>
  <text style="fill: #000000;text-anchor:start;font-size:12.8;font-family:sanserif;font-style:normal;font-weight:normal" x="201.25" y="489.3">
    <tspan x="201.25" y="489.3">Mean  = channel position + offset</tspan>
  </text>
  <line style="fill: none; fill-opacity:0; stroke-width: 2; stroke-dasharray: 4; stroke: #000000" x1="360" y1="299" x2="360" y2="459"/>
  <text style="fill: #000000;text-anchor:start;font-size:12.8;font-family:sanserif;font-style:normal;font-weight:normal" x="60" y="40">
    <tspan x="60" y="40">Post Synaptic Cell Group</tspan>
  </text>
  <text style="fill: #000000;text-anchor:start;font-size:12.8;font-family:sanserif;font-style:normal;font-weight:normal" x="60" y="220">
    <tspan x="60" y="220">Pre Synaptic Cell Group</tspan>
  </text>
  <g>
    <line style="fill: none; fill-opacity:0; stroke-width: 2; stroke: #000000" x1="364.47" y1="440.147" x2="416.53" y2="441.853"/>
    <polyline style="fill: none; fill-opacity:0; stroke-width: 2; stroke: #000000" points="372.393,435.404 362.235,440.073 372.066,445.398 "/>
    <polyline style="fill: none; fill-opacity:0; stroke-width: 2; stroke: #000000" points="408.607,446.596 418.765,441.927 408.934,436.602 "/>
  </g>
  <line style="fill: none; fill-opacity:0; stroke-width: 2; stroke-dasharray: 4; stroke: #000000" x1="421" y1="422" x2="421" y2="462"/>
  <text style="fill: #000000;text-anchor:start;font-size:12.8;font-family:sanserif;font-style:normal;font-weight:normal" x="440" y="434">
    <tspan x="440" y="434">Standard deviation</tspan>
    <tspan x="440" y="450">of connection</tspan>
  </text>
  <text style="fill: #000000;text-anchor:start;font-size:12.8;font-family:sanserif;font-style:normal;font-weight:normal" x="60" y="380">
    <tspan x="60" y="380">Number of Connections </tspan>
    <tspan x="60" y="396">from Pre cell group to </tspan>
    <tspan x="60" y="412">Post  synaptic cell</tspan>
  </text>
</svg>
