<?xml version="1.0" encoding="UTF-8" standalone="no"?>
<svg
   xmlns:dc="http://purl.org/dc/elements/1.1/"
   xmlns:cc="http://creativecommons.org/ns#"
   xmlns:rdf="http://www.w3.org/1999/02/22-rdf-syntax-ns#"
   xmlns:svg="http://www.w3.org/2000/svg"
   xmlns="http://www.w3.org/2000/svg"
   xmlns:sodipodi="http://sodipodi.sourceforge.net/DTD/sodipodi-0.dtd"
   xmlns:inkscape="http://www.inkscape.org/namespaces/inkscape"
   width="44cm"
   height="24cm"
   viewBox="-61 27 862 466"
   id="svg3547"
   version="1.1"
   inkscape:version="0.48.1 r9760"
   sodipodi:docname="CNConn.png">
  <metadata
     id="metadata4069">
    <rdf:RDF>
      <cc:Work
         rdf:about="">
        <dc:format>image/svg+xml</dc:format>
        <dc:type
           rdf:resource="http://purl.org/dc/dcmitype/StillImage" />
        <dc:title></dc:title>
      </cc:Work>
    </rdf:RDF>
  </metadata>
  <defs
     id="defs4067" />
  <sodipodi:namedview
     pagecolor="#ffffff"
     bordercolor="#666666"
     borderopacity="1"
     objecttolerance="10"
     gridtolerance="10"
     guidetolerance="10"
     inkscape:pageopacity="0"
     inkscape:pageshadow="2"
     inkscape:window-width="1024"
     inkscape:window-height="547"
     id="namedview4065"
     showgrid="false"
     inkscape:zoom="0.77140743"
     inkscape:cx="702.77817"
     inkscape:cy="269.63702"
     inkscape:window-x="0"
     inkscape:window-y="26"
     inkscape:window-maximized="1"
     inkscape:current-layer="svg3547" />
  <g
     id="g3549">
    <rect
       style="fill: #ffffff"
       x="60"
       y="60"
       width="40"
       height="40"
       id="rect3551" />
    <rect
       style="fill: none; fill-opacity:0; stroke-width: 2; stroke: #000000"
       x="60"
       y="60"
       width="40"
       height="40"
       id="rect3553" />
    <text
       style="fill: #000000;text-anchor:middle;font-size:12.8;font-family:sanserif;font-style:normal;font-weight:normal"
       x="80"
       y="83.9"
       id="text3555">
      <tspan
         x="80"
         y="83.9"
         id="tspan3557" />
    </text>
  </g>
  <g
     id="g3559">
    <rect
       style="fill: #ffffff"
       x="100"
       y="60"
       width="40"
       height="40"
       id="rect3561" />
    <rect
       style="fill: none; fill-opacity:0; stroke-width: 2; stroke: #000000"
       x="100"
       y="60"
       width="40"
       height="40"
       id="rect3563" />
    <text
       style="fill: #000000;text-anchor:middle;font-size:12.8;font-family:sanserif;font-style:normal;font-weight:normal"
       x="120"
       y="83.9"
       id="text3565">
      <tspan
         x="120"
         y="83.9"
         id="tspan3567" />
    </text>
  </g>
  <g
     id="g3569">
    <rect
       style="fill: #ffffff"
       x="140"
       y="60"
       width="40"
       height="40"
       id="rect3571" />
    <rect
       style="fill: none; fill-opacity:0; stroke-width: 2; stroke: #000000"
       x="140"
       y="60"
       width="40"
       height="40"
       id="rect3573" />
    <text
       style="fill: #000000;text-anchor:middle;font-size:12.8;font-family:sanserif;font-style:normal;font-weight:normal"
       x="160"
       y="83.9"
       id="text3575">
      <tspan
         x="160"
         y="83.9"
         id="tspan3577" />
    </text>
  </g>
  <g
     id="g3579">
    <rect
       style="fill: #ffffff"
       x="180"
       y="60"
       width="40"
       height="40"
       id="rect3581" />
    <rect
       style="fill: none; fill-opacity:0; stroke-width: 2; stroke: #000000"
       x="180"
       y="60"
       width="40"
       height="40"
       id="rect3583" />
    <text
       style="fill: #000000;text-anchor:middle;font-size:12.8;font-family:sanserif;font-style:normal;font-weight:normal"
       x="200"
       y="83.9"
       id="text3585">
      <tspan
         x="200"
         y="83.9"
         id="tspan3587" />
    </text>
  </g>
  <g
     id="g3589">
    <rect
       style="fill: #ffffff"
       x="220"
       y="60"
       width="40"
       height="40"
       id="rect3591" />
    <rect
       style="fill: none; fill-opacity:0; stroke-width: 2; stroke: #000000"
       x="220"
       y="60"
       width="40"
       height="40"
       id="rect3593" />
    <text
       style="fill: #000000;text-anchor:middle;font-size:12.8;font-family:sanserif;font-style:normal;font-weight:normal"
       x="240"
       y="83.9"
       id="text3595">
      <tspan
         x="240"
         y="83.9"
         id="tspan3597" />
    </text>
  </g>
  <g
     id="g3599">
    <rect
       style="fill: #ffffff"
       x="260"
       y="60"
       width="40"
       height="40"
       id="rect3601" />
    <rect
       style="fill: none; fill-opacity:0; stroke-width: 2; stroke: #000000"
       x="260"
       y="60"
       width="40"
       height="40"
       id="rect3603" />
    <text
       style="fill: #000000;text-anchor:middle;font-size:12.8;font-family:sanserif;font-style:normal;font-weight:normal"
       x="280"
       y="83.9"
       id="text3605">
      <tspan
         x="280"
         y="83.9"
         id="tspan3607" />
    </text>
  </g>
  <g
     id="g3609">
    <rect
       style="fill: #ffffff"
       x="300"
       y="60"
       width="40"
       height="40"
       id="rect3611" />
    <rect
       style="fill: none; fill-opacity:0; stroke-width: 2; stroke: #000000"
       x="300"
       y="60"
       width="40"
       height="40"
       id="rect3613" />
    <text
       style="fill: #000000;text-anchor:middle;font-size:12.8;font-family:sanserif;font-style:normal;font-weight:normal"
       x="320"
       y="83.9"
       id="text3615">
      <tspan
         x="320"
         y="83.9"
         id="tspan3617" />
    </text>
  </g>
  <g
     id="g3619">
    <rect
       style="fill: none; fill-opacity:0; stroke-width: 2; stroke: #000000"
       x="340"
       y="60"
       width="40"
       height="40"
       id="rect3621" />
    <text
       style="fill: #000000;text-anchor:middle;font-size:12.8;font-family:sanserif;font-style:normal;font-weight:normal"
       x="360"
       y="83.9"
       id="text3623">
      <tspan
         x="360"
         y="83.9"
         id="tspan3625" />
    </text>
  </g>
  <g
     id="g3627">
    <rect
       style="fill: #ffffff"
       x="380"
       y="60"
       width="40"
       height="40"
       id="rect3629" />
    <rect
       style="fill: none; fill-opacity:0; stroke-width: 2; stroke: #000000"
       x="380"
       y="60"
       width="40"
       height="40"
       id="rect3631" />
    <text
       style="fill: #000000;text-anchor:middle;font-size:12.8;font-family:sanserif;font-style:normal;font-weight:normal"
       x="400"
       y="83.9"
       id="text3633">
      <tspan
         x="400"
         y="83.9"
         id="tspan3635" />
    </text>
  </g>
  <g
     id="g3637">
    <rect
       style="fill: #ffffff"
       x="420"
       y="60"
       width="40"
       height="40"
       id="rect3639" />
    <rect
       style="fill: none; fill-opacity:0; stroke-width: 2; stroke: #000000"
       x="420"
       y="60"
       width="40"
       height="40"
       id="rect3641" />
    <text
       style="fill: #000000;text-anchor:middle;font-size:12.8;font-family:sanserif;font-style:normal;font-weight:normal"
       x="440"
       y="83.9"
       id="text3643">
      <tspan
         x="440"
         y="83.9"
         id="tspan3645" />
    </text>
  </g>
  <g
     id="g3647">
    <rect
       style="fill: #ffffff"
       x="460"
       y="60"
       width="40"
       height="40"
       id="rect3649" />
    <rect
       style="fill: none; fill-opacity:0; stroke-width: 2; stroke: #000000"
       x="460"
       y="60"
       width="40"
       height="40"
       id="rect3651" />
    <text
       style="fill: #000000;text-anchor:middle;font-size:12.8;font-family:sanserif;font-style:normal;font-weight:normal"
       x="480"
       y="83.9"
       id="text3653">
      <tspan
         x="480"
         y="83.9"
         id="tspan3655" />
    </text>
  </g>
  <g
     id="g3657">
    <rect
       style="fill: #ffffff"
       x="500"
       y="60"
       width="40"
       height="40"
       id="rect3659" />
    <rect
       style="fill: none; fill-opacity:0; stroke-width: 2; stroke: #000000"
       x="500"
       y="60"
       width="40"
       height="40"
       id="rect3661" />
    <text
       style="fill: #000000;text-anchor:middle;font-size:12.8;font-family:sanserif;font-style:normal;font-weight:normal"
       x="520"
       y="83.9"
       id="text3663">
      <tspan
         x="520"
         y="83.9"
         id="tspan3665" />
    </text>
  </g>
  <g
     id="g3667">
    <rect
       style="fill: #ffffff"
       x="540"
       y="60"
       width="40"
       height="40"
       id="rect3669" />
    <rect
       style="fill: none; fill-opacity:0; stroke-width: 2; stroke: #000000"
       x="540"
       y="60"
       width="40"
       height="40"
       id="rect3671" />
    <text
       style="fill: #000000;text-anchor:middle;font-size:12.8;font-family:sanserif;font-style:normal;font-weight:normal"
       x="560"
       y="83.9"
       id="text3673">
      <tspan
         x="560"
         y="83.9"
         id="tspan3675" />
    </text>
  </g>
  <g
     id="g3677">
    <rect
       style="fill: #ffffff"
       x="580"
       y="60"
       width="40"
       height="40"
       id="rect3679" />
    <rect
       style="fill: none; fill-opacity:0; stroke-width: 2; stroke: #000000"
       x="580"
       y="60"
       width="40"
       height="40"
       id="rect3681" />
    <text
       style="fill: #000000;text-anchor:middle;font-size:12.8;font-family:sanserif;font-style:normal;font-weight:normal"
       x="600"
       y="83.9"
       id="text3683">
      <tspan
         x="600"
         y="83.9"
         id="tspan3685" />
    </text>
  </g>
  <g
     id="g3687">
    <rect
       style="fill: #ffffff"
       x="620"
       y="60"
       width="40"
       height="40"
       id="rect3689" />
    <rect
       style="fill: none; fill-opacity:0; stroke-width: 2; stroke: #000000"
       x="620"
       y="60"
       width="40"
       height="40"
       id="rect3691" />
    <text
       style="fill: #000000;text-anchor:middle;font-size:12.8;font-family:sanserif;font-style:normal;font-weight:normal"
       x="640"
       y="83.9"
       id="text3693">
      <tspan
         x="640"
         y="83.9"
         id="tspan3695" />
    </text>
  </g>
  <line
     style="fill: none; fill-opacity:0; stroke-width: 2; stroke-dasharray: 20; stroke: #000000"
     x1="680"
     y1="80"
     x2="800"
     y2="80"
     id="line3697" />
  <line
     style="fill: none; fill-opacity:0; stroke-width: 2; stroke-dasharray: 20; stroke: #000000"
     x1="-60"
     y1="80"
     x2="40"
     y2="80"
     id="line3699" />
  <g
     id="g3701">
    <rect
       style="fill: #ffffff"
       x="60"
       y="240"
       width="40"
       height="40"
       id="rect3703" />
    <rect
       style="fill: none; fill-opacity:0; stroke-width: 2; stroke: #000000"
       x="60"
       y="240"
       width="40"
       height="40"
       id="rect3705" />
    <text
       style="fill: #000000;text-anchor:middle;font-size:12.8;font-family:sanserif;font-style:normal;font-weight:normal"
       x="80"
       y="263.9"
       id="text3707">
      <tspan
         x="80"
         y="263.9"
         id="tspan3709" />
    </text>
  </g>
  <g
     id="g3711">
    <rect
       style="fill: #ffffff"
       x="100"
       y="240"
       width="40"
       height="40"
       id="rect3713" />
    <rect
       style="fill: none; fill-opacity:0; stroke-width: 2; stroke: #000000"
       x="100"
       y="240"
       width="40"
       height="40"
       id="rect3715" />
    <text
       style="fill: #000000;text-anchor:middle;font-size:12.8;font-family:sanserif;font-style:normal;font-weight:normal"
       x="120"
       y="263.9"
       id="text3717">
      <tspan
         x="120"
         y="263.9"
         id="tspan3719" />
    </text>
  </g>
  <g
     id="g3721">
    <rect
       style="fill: #ffffff"
       x="140"
       y="240"
       width="40"
       height="40"
       id="rect3723" />
    <rect
       style="fill: none; fill-opacity:0; stroke-width: 2; stroke: #000000"
       x="140"
       y="240"
       width="40"
       height="40"
       id="rect3725" />
    <text
       style="fill: #000000;text-anchor:middle;font-size:12.8;font-family:sanserif;font-style:normal;font-weight:normal"
       x="160"
       y="263.9"
       id="text3727">
      <tspan
         x="160"
         y="263.9"
         id="tspan3729" />
    </text>
  </g>
  <g
     id="g3731">
    <rect
       style="fill: #ffffff"
       x="180"
       y="240"
       width="40"
       height="40"
       id="rect3733" />
    <rect
       style="fill: none; fill-opacity:0; stroke-width: 2; stroke: #000000"
       x="180"
       y="240"
       width="40"
       height="40"
       id="rect3735" />
    <text
       style="fill: #000000;text-anchor:middle;font-size:12.8;font-family:sanserif;font-style:normal;font-weight:normal"
       x="200"
       y="263.9"
       id="text3737">
      <tspan
         x="200"
         y="263.9"
         id="tspan3739" />
    </text>
  </g>
  <g
     id="g3741">
    <rect
       style="fill: #ffffff"
       x="220"
       y="240"
       width="40"
       height="40"
       id="rect3743" />
    <rect
       style="fill: none; fill-opacity:0; stroke-width: 2; stroke: #000000"
       x="220"
       y="240"
       width="40"
       height="40"
       id="rect3745" />
    <text
       style="fill: #000000;text-anchor:middle;font-size:12.8;font-family:sanserif;font-style:normal;font-weight:normal"
       x="240"
       y="263.9"
       id="text3747">
      <tspan
         x="240"
         y="263.9"
         id="tspan3749" />
    </text>
  </g>
  <g
     id="g3751">
    <rect
       style="fill: #ffffff"
       x="260"
       y="240"
       width="40"
       height="40"
       id="rect3753" />
    <rect
       style="fill: none; fill-opacity:0; stroke-width: 2; stroke: #000000"
       x="260"
       y="240"
       width="40"
       height="40"
       id="rect3755" />
    <text
       style="fill: #000000;text-anchor:middle;font-size:12.8;font-family:sanserif;font-style:normal;font-weight:normal"
       x="280"
       y="263.9"
       id="text3757">
      <tspan
         x="280"
         y="263.9"
         id="tspan3759" />
    </text>
  </g>
  <g
     id="g3761">
    <rect
       style="fill: #ffffff"
       x="300"
       y="240"
       width="40"
       height="40"
       id="rect3763" />
    <rect
       style="fill: none; fill-opacity:0; stroke-width: 2; stroke: #000000"
       x="300"
       y="240"
       width="40"
       height="40"
       id="rect3765" />
    <text
       style="fill: #000000;text-anchor:middle;font-size:12.8;font-family:sanserif;font-style:normal;font-weight:normal"
       x="320"
       y="263.9"
       id="text3767">
      <tspan
         x="320"
         y="263.9"
         id="tspan3769" />
    </text>
  </g>
  <g
     id="g3771">
    <rect
       style="fill: #ffffff"
       x="340"
       y="240"
       width="40"
       height="40"
       id="rect3773" />
    <rect
       style="fill: none; fill-opacity:0; stroke-width: 2; stroke: #000000"
       x="340"
       y="240"
       width="40"
       height="40"
       id="rect3775" />
    <text
       style="fill: #000000;text-anchor:middle;font-size:12.8;font-family:sanserif;font-style:normal;font-weight:normal"
       x="360"
       y="263.9"
       id="text3777">
      <tspan
         x="360"
         y="263.9"
         id="tspan3779" />
    </text>
  </g>
  <g
     id="g3781">
    <rect
       style="fill: #ffffff"
       x="380"
       y="240"
       width="40"
       height="40"
       id="rect3783" />
    <rect
       style="fill: none; fill-opacity:0; stroke-width: 2; stroke: #000000"
       x="380"
       y="240"
       width="40"
       height="40"
       id="rect3785" />
    <text
       style="fill: #000000;text-anchor:middle;font-size:12.8;font-family:sanserif;font-style:normal;font-weight:normal"
       x="400"
       y="263.9"
       id="text3787">
      <tspan
         x="400"
         y="263.9"
         id="tspan3789" />
    </text>
  </g>
  <g
     id="g3791">
    <rect
       style="fill: #ffffff"
       x="420"
       y="240"
       width="40"
       height="40"
       id="rect3793" />
    <rect
       style="fill: none; fill-opacity:0; stroke-width: 2; stroke: #000000"
       x="420"
       y="240"
       width="40"
       height="40"
       id="rect3795" />
    <text
       style="fill: #000000;text-anchor:middle;font-size:12.8;font-family:sanserif;font-style:normal;font-weight:normal"
       x="440"
       y="263.9"
       id="text3797">
      <tspan
         x="440"
         y="263.9"
         id="tspan3799" />
    </text>
  </g>
  <g
     id="g3801">
    <rect
       style="fill: #ffffff"
       x="460"
       y="240"
       width="40"
       height="40"
       id="rect3803" />
    <rect
       style="fill: none; fill-opacity:0; stroke-width: 2; stroke: #000000"
       x="460"
       y="240"
       width="40"
       height="40"
       id="rect3805" />
    <text
       style="fill: #000000;text-anchor:middle;font-size:12.8;font-family:sanserif;font-style:normal;font-weight:normal"
       x="480"
       y="263.9"
       id="text3807">
      <tspan
         x="480"
         y="263.9"
         id="tspan3809" />
    </text>
  </g>
  <g
     id="g3811">
    <rect
       style="fill: #ffffff"
       x="500"
       y="240"
       width="40"
       height="40"
       id="rect3813" />
    <rect
       style="fill: none; fill-opacity:0; stroke-width: 2; stroke: #000000"
       x="500"
       y="240"
       width="40"
       height="40"
       id="rect3815" />
    <text
       style="fill: #000000;text-anchor:middle;font-size:12.8;font-family:sanserif;font-style:normal;font-weight:normal"
       x="520"
       y="263.9"
       id="text3817">
      <tspan
         x="520"
         y="263.9"
         id="tspan3819" />
    </text>
  </g>
  <g
     id="g3821">
    <rect
       style="fill: #ffffff"
       x="540"
       y="240"
       width="40"
       height="40"
       id="rect3823" />
    <rect
       style="fill: none; fill-opacity:0; stroke-width: 2; stroke: #000000"
       x="540"
       y="240"
       width="40"
       height="40"
       id="rect3825" />
    <text
       style="fill: #000000;text-anchor:middle;font-size:12.8;font-family:sanserif;font-style:normal;font-weight:normal"
       x="560"
       y="263.9"
       id="text3827">
      <tspan
         x="560"
         y="263.9"
         id="tspan3829" />
    </text>
  </g>
  <g
     id="g3831">
    <rect
       style="fill: #ffffff"
       x="580"
       y="240"
       width="40"
       height="40"
       id="rect3833" />
    <rect
       style="fill: none; fill-opacity:0; stroke-width: 2; stroke: #000000"
       x="580"
       y="240"
       width="40"
       height="40"
       id="rect3835" />
    <text
       style="fill: #000000;text-anchor:middle;font-size:12.8;font-family:sanserif;font-style:normal;font-weight:normal"
       x="600"
       y="263.9"
       id="text3837">
      <tspan
         x="600"
         y="263.9"
         id="tspan3839" />
    </text>
  </g>
  <g
     id="g3841">
    <rect
       style="fill: #ffffff"
       x="620"
       y="240"
       width="40"
       height="40"
       id="rect3843" />
    <rect
       style="fill: none; fill-opacity:0; stroke-width: 2; stroke: #000000"
       x="620"
       y="240"
       width="40"
       height="40"
       id="rect3845" />
    <text
       style="fill: #000000;text-anchor:middle;font-size:12.8;font-family:sanserif;font-style:normal;font-weight:normal"
       x="640"
       y="263.9"
       id="text3847">
      <tspan
         x="640"
         y="263.9"
         id="tspan3849" />
    </text>
  </g>
  <line
     style="fill: none; fill-opacity:0; stroke-width: 2; stroke-dasharray: 20; stroke: #000000"
     x1="680"
     y1="260"
     x2="800"
     y2="260"
     id="line3851" />
  <line
     style="fill: none; fill-opacity:0; stroke-width: 2; stroke-dasharray: 20; stroke: #000000"
     x1="-60"
     y1="260"
     x2="40"
     y2="260"
     id="line3853" />
  <g
     id="g3855">
    <line
       style="fill: none; fill-opacity:0; stroke-width: 2; stroke-dasharray: 20; stroke: #000000"
       x1="360"
       y1="100"
       x2="200"
       y2="240"
       id="line3857" />
    <path
       style="fill: #000000"
       d="M 360 100 C 361.646,101.881 361.411,105.409 359.53,107.055 C 357.648,108.702 354.12,108.466 352.474,106.585 C 350.828,104.704 351.063,101.176 352.945,99.5296 C 354.826,97.8834 358.354,98.1186 360,100z"
       id="path3859" />
    <path
       style="fill: none; fill-opacity:0; stroke-width: 2; stroke: #000000"
       d="M 360 100 C 361.646,101.881 361.411,105.409 359.53,107.055 C 357.648,108.702 354.12,108.466 352.474,106.585 C 350.828,104.704 351.063,101.176 352.945,99.5296 C 354.826,97.8834 358.354,98.1186 360,100"
       id="path3861" />
  </g>
  <g
     id="g3863">
    <line
       style="fill: none; fill-opacity:0; stroke-width: 2; stroke-dasharray: 20; stroke: #000000"
       x1="360"
       y1="100"
       x2="240"
       y2="240"
       id="line3865" />
    <path
       style="fill: #000000"
       d="M 360 100 C 361.898,101.627 362.169,105.152 360.542,107.05 C 358.915,108.948 355.39,109.22 353.492,107.593 C 351.594,105.966 351.323,102.44 352.95,100.542 C 354.577,98.6442 358.102,98.373 360,100z"
       id="path3867" />
    <path
       style="fill: none; fill-opacity:0; stroke-width: 2; stroke: #000000"
       d="M 360 100 C 361.898,101.627 362.169,105.152 360.542,107.05 C 358.915,108.948 355.39,109.22 353.492,107.593 C 351.594,105.966 351.323,102.44 352.95,100.542 C 354.577,98.6442 358.102,98.373 360,100"
       id="path3869" />
  </g>
  <g
     id="g3871">
    <line
       style="fill: none; fill-opacity:0; stroke-width: 2; stroke-dasharray: 20; stroke: #000000"
       x1="360"
       y1="100"
       x2="280"
       y2="240"
       id="line3873" />
    <path
       style="fill: #000000"
       d="M 360 100 C 362.171,101.24 363.101,104.651 361.861,106.822 C 360.62,108.993 357.209,109.923 355.039,108.682 C 352.868,107.442 351.938,104.031 353.178,101.861 C 354.418,99.6899 357.829,98.7597 360,100z"
       id="path3875" />
    <path
       style="fill: none; fill-opacity:0; stroke-width: 2; stroke: #000000"
       d="M 360 100 C 362.171,101.24 363.101,104.651 361.861,106.822 C 360.62,108.993 357.209,109.923 355.039,108.682 C 352.868,107.442 351.938,104.031 353.178,101.861 C 354.418,99.6899 357.829,98.7597 360,100"
       id="path3877" />
  </g>
  <g
     id="g3879">
    <line
       style="fill: none; fill-opacity:0; stroke-width: 2; stroke-dasharray: 20; stroke: #000000"
       x1="360"
       y1="100"
       x2="320"
       y2="240"
       id="line3881" />
    <path
       style="fill: #000000"
       d="M 360 100 C 362.404,100.687 364.121,103.777 363.434,106.181 C 362.747,108.585 359.657,110.302 357.253,109.615 C 354.849,108.928 353.132,105.838 353.819,103.434 C 354.506,101.03 357.596,99.3132 360,100z"
       id="path3883" />
    <path
       style="fill: none; fill-opacity:0; stroke-width: 2; stroke: #000000"
       d="M 360 100 C 362.404,100.687 364.121,103.777 363.434,106.181 C 362.747,108.585 359.657,110.302 357.253,109.615 C 354.849,108.928 353.132,105.838 353.819,103.434 C 354.506,101.03 357.596,99.3132 360,100"
       id="path3885" />
  </g>
  <g
     id="g3887">
    <line
       style="fill: none; fill-opacity:0; stroke-width: 2; stroke-dasharray: 20; stroke: #000000"
       x1="360"
       y1="100"
       x2="360"
       y2="240"
       id="line3889" />
    <path
       style="fill: #000000"
       d="M 360 100 C 362.5,100 365,102.5 365,105 C 365,107.5 362.5,110 360,110 C 357.5,110 355,107.5 355,105 C 355,102.5 357.5,100 360,100z"
       id="path3891" />
    <path
       style="fill: none; fill-opacity:0; stroke-width: 2; stroke: #000000"
       d="M 360 100 C 362.5,100 365,102.5 365,105 C 365,107.5 362.5,110 360,110 C 357.5,110 355,107.5 355,105 C 355,102.5 357.5,100 360,100"
       id="path3893" />
  </g>
  <g
     id="g3895">
    <line
       style="fill: none; fill-opacity:0; stroke-width: 2; stroke-dasharray: 20; stroke: #000000"
       x1="360"
       y1="100"
       x2="400"
       y2="240"
       id="line3897" />
    <path
       style="fill: #000000"
       d="M 360 100 C 362.404,99.3132 365.494,101.03 366.181,103.434 C 366.868,105.838 365.151,108.928 362.747,109.615 C 360.343,110.302 357.253,108.585 356.566,106.181 C 355.879,103.777 357.596,100.687 360,100z"
       id="path3899" />
    <path
       style="fill: none; fill-opacity:0; stroke-width: 2; stroke: #000000"
       d="M 360 100 C 362.404,99.3132 365.494,101.03 366.181,103.434 C 366.868,105.838 365.151,108.928 362.747,109.615 C 360.343,110.302 357.253,108.585 356.566,106.181 C 355.879,103.777 357.596,100.687 360,100"
       id="path3901" />
  </g>
  <g
     id="g3903">
    <line
       style="fill: none; fill-opacity:0; stroke-width: 2; stroke-dasharray: 20; stroke: #000000"
       x1="360"
       y1="100"
       x2="440"
       y2="240"
       id="line3905" />
    <path
       style="fill: #000000"
       d="M 360 100 C 362.171,98.7597 365.582,99.6899 366.822,101.861 C 368.062,104.031 367.132,107.442 364.961,108.682 C 362.791,109.923 359.38,108.993 358.139,106.822 C 356.899,104.651 357.829,101.24 360,100z"
       id="path3907" />
    <path
       style="fill: none; fill-opacity:0; stroke-width: 2; stroke: #000000"
       d="M 360 100 C 362.171,98.7597 365.582,99.6899 366.822,101.861 C 368.062,104.031 367.132,107.442 364.961,108.682 C 362.791,109.923 359.38,108.993 358.139,106.822 C 356.899,104.651 357.829,101.24 360,100"
       id="path3909" />
  </g>
  <g
     id="g3911">
    <line
       style="fill: none; fill-opacity:0; stroke-width: 2; stroke-dasharray: 20; stroke: #000000"
       x1="360"
       y1="100"
       x2="480"
       y2="240"
       id="line3913" />
    <path
       style="fill: #000000"
       d="M 360 100 C 361.898,98.373 365.423,98.6442 367.05,100.542 C 368.677,102.44 368.406,105.966 366.508,107.593 C 364.61,109.22 361.085,108.948 359.458,107.05 C 357.831,105.152 358.102,101.627 360,100z"
       id="path3915" />
    <path
       style="fill: none; fill-opacity:0; stroke-width: 2; stroke: #000000"
       d="M 360 100 C 361.898,98.373 365.423,98.6442 367.05,100.542 C 368.677,102.44 368.406,105.966 366.508,107.593 C 364.61,109.22 361.085,108.948 359.458,107.05 C 357.831,105.152 358.102,101.627 360,100"
       id="path3917" />
  </g>
  <g
     id="g3919">
    <line
       style="fill: none; fill-opacity:0; stroke-width: 2; stroke-dasharray: 20; stroke: #000000"
       x1="360"
       y1="100"
       x2="520"
       y2="240"
       id="line3921" />
    <path
       style="fill: #000000"
       d="M 360 100 C 361.646,98.1186 365.174,97.8834 367.055,99.5296 C 368.937,101.176 369.172,104.704 367.526,106.585 C 365.88,108.466 362.352,108.702 360.47,107.055 C 358.589,105.409 358.354,101.881 360,100z"
       id="path3923" />
    <path
       style="fill: none; fill-opacity:0; stroke-width: 2; stroke: #000000"
       d="M 360 100 C 361.646,98.1186 365.174,97.8834 367.055,99.5296 C 368.937,101.176 369.172,104.704 367.526,106.585 C 365.88,108.466 362.352,108.702 360.47,107.055 C 358.589,105.409 358.354,101.881 360,100"
       id="path3925" />
  </g>
  <path
     style="fill:none;stroke:#000000;stroke-width:1.38615298"
     d="m 62.150222,382.27483 c 212.479998,0 179.999998,-48.03551 299.999998,-48.03551 120,0 87.52,48.03551 300,48.03551"
     id="path3927"
     inkscape:connector-curvature="0" />
  <g
     id="g3929"
     transform="matrix(1,0,0,-0.47388083,2.1502216,524.43906)">
    <rect
       style="fill:#ffffff"
       x="180"
       y="300"
       width="40"
       height="19.5"
       id="rect3931" />
    <rect
       style="fill:none;stroke:#000000;stroke-width:2"
       x="180"
       y="300"
       width="40"
       height="19.5"
       id="rect3933" />
    <text
       style="font-size:5.97181988px;font-style:normal;font-weight:normal;text-anchor:middle;fill:#000000;font-family:sanserif"
       x="200"
       y="311.56799"
       id="text3935">
      <tspan
         x="200"
         y="311.56799"
         id="tspan3937" />
    </text>
  </g>
  <g
     id="g3939"
     transform="matrix(1,0,0,-0.47388083,2.1502216,524.43906)">
    <rect
       style="fill:#ffffff"
       x="220"
       y="300"
       width="40"
       height="38"
       id="rect3941" />
    <rect
       style="fill:none;stroke:#000000;stroke-width:2"
       x="220"
       y="300"
       width="40"
       height="38"
       id="rect3943" />
    <text
       style="font-size:12.80000019px;font-style:normal;font-weight:normal;text-anchor:middle;fill:#000000;font-family:sanserif"
       x="240"
       y="322.89999"
       id="text3945">
      <tspan
         x="240"
         y="322.89999"
         id="tspan3947" />
    </text>
  </g>
  <g
     id="g3949"
     transform="matrix(1,0,0,-0.47388083,2.1502216,524.43906)">
    <rect
       style="fill:#ffffff"
       x="260"
       y="300"
       width="40"
       height="60"
       id="rect3951" />
    <rect
       style="fill:none;stroke:#000000;stroke-width:2"
       x="260"
       y="300"
       width="40"
       height="60"
       id="rect3953" />
    <text
       style="font-size:12.80000019px;font-style:normal;font-weight:normal;text-anchor:middle;fill:#000000;font-family:sanserif"
       x="280"
       y="333.89999"
       id="text3955">
      <tspan
         x="280"
         y="333.89999"
         id="tspan3957" />
    </text>
  </g>
  <g
     id="g3959"
     transform="matrix(1,0,0,-0.51642935,2.1502216,537.20362)">
    <rect
       style="fill:#ffffff"
       x="300"
       y="300"
       width="40"
       height="80"
       id="rect3961" />
    <rect
       style="fill:none;stroke:#000000;stroke-width:2"
       x="300"
       y="300"
       width="40"
       height="80"
       id="rect3963" />
    <text
       style="font-size:12.80000019px;font-style:normal;font-weight:normal;text-anchor:middle;fill:#000000;font-family:sanserif"
       x="320"
       y="343.89999"
       id="text3965">
      <tspan
         x="320"
         y="343.89999"
         id="tspan3967" />
    </text>
  </g>
  <g
     id="g3969"
     transform="matrix(1,0,0,-0.40965215,2.1502216,505.17047)">
    <rect
       style="fill:#ffffff"
       x="340"
       y="300"
       width="40"
       height="120"
       id="rect3971" />
    <rect
       style="fill:none;stroke:#000000;stroke-width:2"
       x="340"
       y="300"
       width="40"
       height="120"
       id="rect3973" />
    <text
       style="font-size:12.80000019px;font-style:normal;font-weight:normal;text-anchor:middle;fill:#000000;font-family:sanserif"
       x="360"
       y="363.89999"
       id="text3975">
      <tspan
         x="360"
         y="363.89999"
         id="tspan3977" />
    </text>
  </g>
  <g
     id="g3979"
     transform="matrix(1,0,0,-0.52706647,2.1502216,540.39476)">
    <rect
       style="fill:#ffffff"
       x="380"
       y="300"
       width="40"
       height="80"
       id="rect3981" />
    <rect
       style="fill:none;stroke:#000000;stroke-width:2"
       x="380"
       y="300"
       width="40"
       height="80"
       id="rect3983" />
    <text
       style="font-size:12.80000019px;font-style:normal;font-weight:normal;text-anchor:middle;fill:#000000;font-family:sanserif"
       x="400"
       y="343.89999"
       id="text3985">
      <tspan
         x="400"
         y="343.89999"
         id="tspan3987" />
    </text>
  </g>
  <g
     id="g3989"
     transform="matrix(1,0,0,-0.47388083,2.1502216,524.43906)">
    <rect
       style="fill:#ffffff"
       x="420"
       y="300"
       width="40"
       height="60"
       id="rect3991" />
    <rect
       style="fill:none;stroke:#000000;stroke-width:2"
       x="420"
       y="300"
       width="40"
       height="60"
       id="rect3993" />
    <text
       style="font-size:12.80000019px;font-style:normal;font-weight:normal;text-anchor:middle;fill:#000000;font-family:sanserif"
       x="440"
       y="333.89999"
       id="text3995">
      <tspan
         x="440"
         y="333.89999"
         id="tspan3997" />
    </text>
  </g>
  <g
     id="g3999"
     transform="matrix(1,0,0,-0.47388083,2.1502216,524.43906)">
    <rect
       style="fill:#ffffff"
       x="460"
       y="300"
       width="40"
       height="38"
       id="rect4001" />
    <rect
       style="fill:none;stroke:#000000;stroke-width:2"
       x="460"
       y="300"
       width="40"
       height="38"
       id="rect4003" />
    <text
       style="font-size:12.80000019px;font-style:normal;font-weight:normal;text-anchor:middle;fill:#000000;font-family:sanserif"
       x="480"
       y="322.89999"
       id="text4005">
      <tspan
         x="480"
         y="322.89999"
         id="tspan4007" />
    </text>
  </g>
  <g
     id="g4009"
     transform="matrix(1,0,0,-0.47388083,2.1502216,524.43906)">
    <rect
       style="fill:#ffffff"
       x="500"
       y="300"
       width="40"
       height="20"
       id="rect4011" />
    <rect
       style="fill:none;stroke:#000000;stroke-width:2"
       x="500"
       y="300"
       width="40"
       height="20"
       id="rect4013" />
    <text
       style="font-size:6.08471012px;font-style:normal;font-weight:normal;text-anchor:middle;fill:#000000;font-family:sanserif"
       x="520"
       y="311.84698"
       id="text4015">
      <tspan
         x="520"
         y="311.84698"
         id="tspan4017" />
    </text>
  </g>
  <text
     style="fill: #000000;text-anchor:start;font-size:12.8;font-family:sanserif;font-style:normal;font-weight:normal"
     x="340"
     y="20"
     id="text4019">
    <tspan
       x="340"
       y="20"
       id="tspan4021" />
  </text>
  <text
     style="font-size:12.80000019px;font-style:normal;font-weight:normal;text-anchor:start;fill:#000000;font-family:sanserif"
     x="262.99432"
     y="409.74179"
     id="text4027">
    <tspan
       x="262.99432"
       y="409.74179"
       id="tspan4029">Mean = channel position + optional offset</tspan>
  </text>
  <line
     style="fill:none;stroke:#000000;stroke-width:1.4299531;stroke-dasharray:2.85990645"
     x1="362.15021"
     y1="382.74872"
     x2="362.15021"
     y2="300.95804"
     id="line4031" />
  <text
     style="fill: #000000;text-anchor:start;font-size:12.8;font-family:sanserif;font-style:normal;font-weight:normal"
     x="60"
     y="40"
     id="text4033">
    <tspan
       x="60"
       y="40"
       id="tspan4035"
       style="font-size:16.58696908px">Post Synaptic Cell Group</tspan>
  </text>
  <text
     style="font-size:12.80000019px;font-style:normal;font-weight:normal;text-anchor:start;fill:#000000;font-family:sanserif"
     x="16.873898"
     y="220"
     id="text4037">
    <tspan
       x="16.873898"
       y="220"
       id="tspan4039"
       style="font-size:16.58696938px">Pre Synaptic Cell Group</tspan>
  </text>
  <g
     id="g4041"
     transform="matrix(0.78702035,0,0,-0.47388083,79.298906,524.43906)">
    <line
       style="fill:none;stroke:#000000;stroke-width:2"
       x1="364.47"
       y1="440.147"
       x2="416.53"
       y2="441.853"
       id="line4043" />
    <polyline
       style="fill:none;stroke:#000000;stroke-width:2"
       points="372.393,435.404 362.235,440.073 372.066,445.398 "
       id="polyline4045" />
    <polyline
       style="fill:none;stroke:#000000;stroke-width:2"
       points="408.607,446.596 418.765,441.927 408.934,436.602 "
       id="polyline4047" />
  </g>
  <line
     style="fill:none;stroke:#000000;stroke-width:1.37678003;stroke-dasharray:2.7535601"
     x1="411.68237"
     y1="323.74463"
     x2="411.68237"
     y2="304.78937"
     id="line4049" />
  <text
     style="font-size:12.80000019px;font-style:normal;font-weight:normal;text-anchor:start;fill:#000000;font-family:sanserif"
     x="456.48505"
     y="311.43738"
     id="text4051">
    <tspan
       x="456.48505"
       y="311.43738"
       id="tspan4053">Standard deviation</tspan>
    <tspan
       x="456.48505"
       y="327.43738"
       id="tspan4055">of connection</tspan>
  </text>
  <text
     style="font-size:12.80000019px;font-style:normal;font-weight:normal;text-anchor:start;fill:#000000;font-family:sanserif"
     x="72.184586"
     y="314.05988"
     id="text4057">
    <tspan
       x="72.184586"
       y="314.05988"
       id="tspan4059">Number of Connections</tspan>
    <tspan
       x="72.184586"
       y="330.05988"
       id="tspan4061">from Pre-synaptic cell group to</tspan>
    <tspan
       x="72.184586"
       y="346.05988"
       id="tspan4063">Post-synaptic cell</tspan>
  </text>
  <path
     style="fill:none;stroke:#000000;stroke-width:0.56087828px;stroke-linecap:butt;stroke-linejoin:miter;stroke-opacity:1"
     d="m 57.978926,306.58814 0,75.97048"
     id="path4094"
     inkscape:connector-curvature="0" />
  <path
     style="fill:none;stroke:#000000;stroke-width:0.55289894px;stroke-linecap:butt;stroke-linejoin:miter;stroke-opacity:1"
     d="m 49.151282,306.8109 7.884145,0 0.71674,0"
     id="path4096"
     inkscape:connector-curvature="0" />
  <path
     style="fill:none;stroke:#000000;stroke-width:0.55289894px;stroke-linecap:butt;stroke-linejoin:miter;stroke-opacity:1"
     d="m 49.154773,382.25394 7.884146,0 0.71674,0"
     id="path4096-4"
     inkscape:connector-curvature="0" />
  <path
     style="fill:none;stroke:#000000;stroke-width:0.55289894px;stroke-linecap:butt;stroke-linejoin:miter;stroke-opacity:1"
     d="m 49.154772,325.89669 7.884146,0 0.71674,0"
     id="path4096-5"
     inkscape:connector-curvature="0" />
  <path
     style="fill:none;stroke:#000000;stroke-width:0.55289894px;stroke-linecap:butt;stroke-linejoin:miter;stroke-opacity:1"
     d="m 49.251162,346.59675 7.884146,0 0.71674,0"
     id="path4096-9"
     inkscape:connector-curvature="0" />
  <path
     style="fill:none;stroke:#000000;stroke-width:0.55289894px;stroke-linecap:butt;stroke-linejoin:miter;stroke-opacity:1"
     d="m 49.145772,365.11311 7.884146,0 0.71674,0"
     id="path4096-46"
     inkscape:connector-curvature="0" />
  <text
     xml:space="preserve"
     style="font-size:22.11595917px;font-style:normal;font-weight:normal;line-height:125%;letter-spacing:0px;word-spacing:0px;fill:#000000;fill-opacity:1;stroke:none;font-family:Sans"
     x="-44.061329"
     y="125.04784"
     id="text3245"
     sodipodi:linespacing="125%"><tspan
       sodipodi:role="line"
       x="-44.061329"
       y="125.04784"
       id="tspan3249">Frequency Channels</tspan><tspan
       sodipodi:role="line"
       x="-44.061329"
       y="152.69278"
       id="tspan3253">(Low CF to High CF)</tspan></text>
</svg>
